  0
SECTION
  2
HEADER
  9
$ANGBASE
  50
0.0
  9
$ANGDIR
  70
1
  9
$MEASUREMENT
  70
1
  0
ENDSEC
  0
SECTION
  2
TABLES
  0
TABLE
  2
LTYPE
  70
4
  0
LTYPE
  5
40F
  2
CONTINUOUS
  70
0
  3
Solid line
  72
65
  73
0
  40
0.0
  0
LTYPE
  5
410
  2
DASHDOT
 70
0
  3
Dash Dot ____ _ ____ _
 72
65
 73
4
 40
2.0
 49
1.25
 49
-0.25
 49
0.25
 49
-0.25
  0
LTYPE
  5
411
  2
DASHED
 70
0
  3
Dashed __ __ __ __ __
 72
65
 73
2
 40
0.75
 49
0.5
 49
-0.25
  0
LTYPE
  5
43B
  2
DOTTED
 70
0
  3
Dotted .  .  .  .
 72
65
 73
2
 40
0.2
 49
0.0
 49
-0.2
  0
ENDTAB
  0
TABLE
  2
STYLE
  70
4
  0
STYLE
  2
KICAD
  70
0
  40
0
  41
1
  42
1
  50
0
  71
0
  3
isocp.shx
  0
STYLE
  2
KICADB
  70
0
  40
0
  41
1
  42
1
  50
0
  71
0
  3
isocp.shx
  0
STYLE
  2
KICADI
  70
0
  40
0
  41
1
  42
1
  50
15
  71
0
  3
isocp.shx
  0
STYLE
  2
KICADBI
  70
0
  40
0
  41
1
  42
1
  50
15
  71
0
  3
isocp.shx
  0
ENDTAB
  0
TABLE
  2
LAYER
  70
1
  0
LAYER
  2
BLACK
  70
0
  62
7
  6
CONTINUOUS
  0
ENDTAB
  0
ENDSEC
  0
SECTION
  2
ENTITIES
0
LINE
8
BLACK
6
CONTINUOUS
10
110.6985079999999897
20
-144.9749999999999943
11
110.6985079999999897
21
-147.3249999999999886
0
LINE
8
BLACK
6
CONTINUOUS
10
110.6985079999999897
20
-144.9749999999999943
11
112.8485079999999954
21
-144.9749999999999943
0
LINE
8
BLACK
6
CONTINUOUS
10
110.6985079999999897
20
-147.3249999999999886
11
112.8485079999999954
21
-147.3249999999999886
0
LINE
8
BLACK
6
CONTINUOUS
10
112.8485079999999954
20
-144.5699999999999932
11
113.619253999999998
21
-143.7992539999999906
0
LINE
8
BLACK
6
CONTINUOUS
10
112.8485079999999954
20
-144.9749999999999943
11
112.8485079999999954
21
-144.5699999999999932
0
LINE
8
BLACK
6
CONTINUOUS
10
112.8485079999999954
20
-147.3249999999999886
11
112.8485079999999954
21
-147.6800000000000068
0
LINE
8
BLACK
6
CONTINUOUS
10
112.8485079999999954
20
-147.6800000000000068
11
113.619253999999998
21
-148.450745999999981
0
LINE
8
BLACK
6
CONTINUOUS
10
113.619253999999998
20
-143.7992539999999906
11
115.980253999999988
21
-143.7992539999999906
0
LINE
8
BLACK
6
CONTINUOUS
10
113.619253999999998
20
-148.450745999999981
11
116.8292539999999917
21
-148.450745999999981
0
LINE
8
BLACK
6
CONTINUOUS
10
116.8292539999999917
20
-148.450745999999981
11
117.5999999999999943
21
-147.6800000000000068
0
LINE
8
BLACK
6
CONTINUOUS
10
117.5999999999999943
20
-147.6800000000000068
11
117.5999999999999943
21
-147.1500000000000057
0
LINE
8
BLACK
6
CONTINUOUS
10
118.5
20
-146.25
11
121.5
21
-146.25
0
LINE
8
BLACK
6
CONTINUOUS
10
118.8585080000000005
20
-141.5457839999999976
11
122.625
21
-141.5449999999999875
0
LINE
8
BLACK
6
CONTINUOUS
10
122.625
20
-142.7750000000000057
11
122.625
21
-141.5449999999999875
0
LINE
8
BLACK
6
CONTINUOUS
10
122.625
20
-145.125
11
124.7749999999999915
21
-145.125
0
LINE
8
BLACK
6
CONTINUOUS
10
124.7749999999999915
20
-142.7750000000000057
11
122.625
21
-142.7750000000000057
0
LINE
8
BLACK
6
CONTINUOUS
10
124.7749999999999915
20
-142.7750000000000057
11
124.7749999999999915
21
-145.125
0
ARC
8
BLACK
10
118.5
20
-147.1500000000000057
40
0.8999999999999999
50
90.00000000
51
180.00000000
0
ARC
8
BLACK
10
121.5
20
-145.125
40
1.125
50
-90.00000000
51
-0.00000000
0
ARC
8
BLACK
10
115.980253999999988
20
-141.7665169999999932
40
2.0327371609947509
50
-89.99991544
51
-13.61452603
0
ARC
8
BLACK
10
118.8585080000000005
20
-142.4780079999999884
40
0.9322236137429688
50
90.00000000
51
165.52552856
0
CIRCLE
8
BLACK
10
114.5
20
-150.
40
1.
0
CIRCLE
8
BLACK
10
120.
20
-150.
40
1.5999999999999999
0
CIRCLE
8
BLACK
10
125.5
20
-150.
40
1.
0
LINE
8
BLACK
6
CONTINUOUS
10
110.6985079999999897
20
-127.9749999999999943
11
110.6985079999999897
21
-130.3249999999999886
0
LINE
8
BLACK
6
CONTINUOUS
10
110.6985079999999897
20
-127.9749999999999943
11
112.8485079999999954
21
-127.9749999999999943
0
LINE
8
BLACK
6
CONTINUOUS
10
110.6985079999999897
20
-130.3249999999999886
11
112.8485079999999954
21
-130.3249999999999886
0
LINE
8
BLACK
6
CONTINUOUS
10
112.8485079999999954
20
-127.5699999999999932
11
113.619253999999998
21
-126.7992539999999906
0
LINE
8
BLACK
6
CONTINUOUS
10
112.8485079999999954
20
-127.9749999999999943
11
112.8485079999999954
21
-127.5699999999999932
0
LINE
8
BLACK
6
CONTINUOUS
10
112.8485079999999954
20
-130.3249999999999886
11
112.8485079999999954
21
-130.6800000000000068
0
LINE
8
BLACK
6
CONTINUOUS
10
112.8485079999999954
20
-130.6800000000000068
11
113.619253999999998
21
-131.450745999999981
0
LINE
8
BLACK
6
CONTINUOUS
10
113.619253999999998
20
-126.7992539999999906
11
115.980253999999988
21
-126.7992539999999906
0
LINE
8
BLACK
6
CONTINUOUS
10
113.619253999999998
20
-131.450745999999981
11
116.8292539999999917
21
-131.450745999999981
0
LINE
8
BLACK
6
CONTINUOUS
10
116.8292539999999917
20
-131.450745999999981
11
117.5999999999999943
21
-130.6800000000000068
0
LINE
8
BLACK
6
CONTINUOUS
10
117.5999999999999943
20
-130.6800000000000068
11
117.5999999999999943
21
-130.1500000000000057
0
LINE
8
BLACK
6
CONTINUOUS
10
118.5
20
-129.25
11
121.5
21
-129.25
0
LINE
8
BLACK
6
CONTINUOUS
10
118.8585080000000005
20
-124.5457839999999976
11
122.625
21
-124.5449999999999875
0
LINE
8
BLACK
6
CONTINUOUS
10
122.625
20
-125.7749999999999915
11
122.625
21
-124.5449999999999875
0
LINE
8
BLACK
6
CONTINUOUS
10
122.625
20
-128.125
11
124.7749999999999915
21
-128.125
0
LINE
8
BLACK
6
CONTINUOUS
10
124.7749999999999915
20
-125.7749999999999915
11
122.625
21
-125.7749999999999915
0
LINE
8
BLACK
6
CONTINUOUS
10
124.7749999999999915
20
-125.7749999999999915
11
124.7749999999999915
21
-128.125
0
ARC
8
BLACK
10
118.5
20
-130.1500000000000057
40
0.8999999999999999
50
90.00000000
51
180.00000000
0
ARC
8
BLACK
10
121.5
20
-128.125
40
1.125
50
-90.00000000
51
-0.00000000
0
ARC
8
BLACK
10
115.980253999999988
20
-124.7665169999999932
40
2.0327371609947509
50
-89.99991544
51
-13.61452603
0
ARC
8
BLACK
10
118.8585080000000005
20
-125.4780079999999884
40
0.9322236137429688
50
90.00000000
51
165.52552856
0
CIRCLE
8
BLACK
10
114.5
20
-133.
40
1.
0
CIRCLE
8
BLACK
10
120.
20
-133.
40
1.5999999999999999
0
CIRCLE
8
BLACK
10
125.5
20
-133.
40
1.
0
LINE
8
BLACK
6
CONTINUOUS
10
110.6985079999999897
20
-110.9749999999999943
11
110.6985079999999897
21
-113.3249999999999886
0
LINE
8
BLACK
6
CONTINUOUS
10
110.6985079999999897
20
-110.9749999999999943
11
112.8485079999999954
21
-110.9749999999999943
0
LINE
8
BLACK
6
CONTINUOUS
10
110.6985079999999897
20
-113.3249999999999886
11
112.8485079999999954
21
-113.3249999999999886
0
LINE
8
BLACK
6
CONTINUOUS
10
112.8485079999999954
20
-110.5699999999999932
11
113.619253999999998
21
-109.7992539999999906
0
LINE
8
BLACK
6
CONTINUOUS
10
112.8485079999999954
20
-110.9749999999999943
11
112.8485079999999954
21
-110.5699999999999932
0
LINE
8
BLACK
6
CONTINUOUS
10
112.8485079999999954
20
-113.3249999999999886
11
112.8485079999999954
21
-113.6799999999999926
0
LINE
8
BLACK
6
CONTINUOUS
10
112.8485079999999954
20
-113.6799999999999926
11
113.619253999999998
21
-114.4507459999999952
0
LINE
8
BLACK
6
CONTINUOUS
10
113.619253999999998
20
-109.7992539999999906
11
115.980253999999988
21
-109.7992539999999906
0
LINE
8
BLACK
6
CONTINUOUS
10
113.619253999999998
20
-114.4507459999999952
11
116.8292539999999917
21
-114.4507459999999952
0
LINE
8
BLACK
6
CONTINUOUS
10
116.8292539999999917
20
-114.4507459999999952
11
117.5999999999999943
21
-113.6799999999999926
0
LINE
8
BLACK
6
CONTINUOUS
10
117.5999999999999943
20
-113.6799999999999926
11
117.5999999999999943
21
-113.1499999999999915
0
LINE
8
BLACK
6
CONTINUOUS
10
118.5
20
-112.25
11
121.5
21
-112.25
0
LINE
8
BLACK
6
CONTINUOUS
10
118.8585080000000005
20
-107.5457839999999976
11
122.625
21
-107.5450000000000017
0
LINE
8
BLACK
6
CONTINUOUS
10
122.625
20
-108.7749999999999915
11
122.625
21
-107.5450000000000017
0
LINE
8
BLACK
6
CONTINUOUS
10
122.625
20
-111.125
11
124.7749999999999915
21
-111.125
0
LINE
8
BLACK
6
CONTINUOUS
10
124.7749999999999915
20
-108.7749999999999915
11
122.625
21
-108.7749999999999915
0
LINE
8
BLACK
6
CONTINUOUS
10
124.7749999999999915
20
-108.7749999999999915
11
124.7749999999999915
21
-111.125
0
ARC
8
BLACK
10
118.5
20
-113.1499999999999915
40
0.8999999999999999
50
90.00000000
51
180.00000000
0
ARC
8
BLACK
10
121.5
20
-111.125
40
1.125
50
-90.00000000
51
-0.00000000
0
ARC
8
BLACK
10
115.980253999999988
20
-107.7665169999999932
40
2.0327371609947509
50
-89.99991544
51
-13.61452603
0
ARC
8
BLACK
10
118.8585080000000005
20
-108.4780079999999884
40
0.9322236137429688
50
90.00000000
51
165.52552856
0
CIRCLE
8
BLACK
10
114.5
20
-116.
40
1.
0
CIRCLE
8
BLACK
10
120.
20
-116.
40
1.5999999999999999
0
CIRCLE
8
BLACK
10
125.5
20
-116.
40
1.
0
LINE
8
BLACK
6
CONTINUOUS
10
110.6985079999999897
20
-93.9749999999999943
11
110.6985079999999897
21
-96.3249999999999886
0
LINE
8
BLACK
6
CONTINUOUS
10
110.6985079999999897
20
-93.9749999999999943
11
112.8485079999999954
21
-93.9749999999999943
0
LINE
8
BLACK
6
CONTINUOUS
10
110.6985079999999897
20
-96.3249999999999886
11
112.8485079999999954
21
-96.3249999999999886
0
LINE
8
BLACK
6
CONTINUOUS
10
112.8485079999999954
20
-93.5699999999999932
11
113.619253999999998
21
-92.7992539999999906
0
LINE
8
BLACK
6
CONTINUOUS
10
112.8485079999999954
20
-93.9749999999999943
11
112.8485079999999954
21
-93.5699999999999932
0
LINE
8
BLACK
6
CONTINUOUS
10
112.8485079999999954
20
-96.3249999999999886
11
112.8485079999999954
21
-96.6799999999999926
0
LINE
8
BLACK
6
CONTINUOUS
10
112.8485079999999954
20
-96.6799999999999926
11
113.619253999999998
21
-97.4507459999999952
0
LINE
8
BLACK
6
CONTINUOUS
10
113.619253999999998
20
-92.7992539999999906
11
115.980253999999988
21
-92.7992539999999906
0
LINE
8
BLACK
6
CONTINUOUS
10
113.619253999999998
20
-97.4507459999999952
11
116.8292539999999917
21
-97.4507459999999952
0
LINE
8
BLACK
6
CONTINUOUS
10
116.8292539999999917
20
-97.4507459999999952
11
117.5999999999999943
21
-96.6799999999999926
0
LINE
8
BLACK
6
CONTINUOUS
10
117.5999999999999943
20
-96.6799999999999926
11
117.5999999999999943
21
-96.1499999999999915
0
LINE
8
BLACK
6
CONTINUOUS
10
118.5
20
-95.25
11
121.5
21
-95.25
0
LINE
8
BLACK
6
CONTINUOUS
10
118.8585080000000005
20
-90.5457839999999976
11
122.625
21
-90.5450000000000017
0
LINE
8
BLACK
6
CONTINUOUS
10
122.625
20
-91.7749999999999915
11
122.625
21
-90.5450000000000017
0
LINE
8
BLACK
6
CONTINUOUS
10
122.625
20
-94.125
11
124.7749999999999915
21
-94.125
0
LINE
8
BLACK
6
CONTINUOUS
10
124.7749999999999915
20
-91.7749999999999915
11
122.625
21
-91.7749999999999915
0
LINE
8
BLACK
6
CONTINUOUS
10
124.7749999999999915
20
-91.7749999999999915
11
124.7749999999999915
21
-94.125
0
ARC
8
BLACK
10
118.5
20
-96.1499999999999915
40
0.8999999999999999
50
90.00000000
51
180.00000000
0
ARC
8
BLACK
10
121.5
20
-94.125
40
1.125
50
-90.00000000
51
-0.00000000
0
ARC
8
BLACK
10
115.980253999999988
20
-90.7665169999999932
40
2.0327371609947509
50
-89.99991544
51
-13.61452603
0
ARC
8
BLACK
10
118.8585080000000005
20
-91.4780080000000027
40
0.9322236137429688
50
90.00000000
51
165.52552856
0
CIRCLE
8
BLACK
10
114.5
20
-99.
40
1.
0
CIRCLE
8
BLACK
10
120.
20
-99.
40
1.5999999999999999
0
CIRCLE
8
BLACK
10
125.5
20
-99.
40
1.
0
LINE
8
BLACK
6
CONTINUOUS
10
128.6985080000000039
20
-140.9749999999999943
11
128.6985080000000039
21
-143.3249999999999886
0
LINE
8
BLACK
6
CONTINUOUS
10
128.6985080000000039
20
-140.9749999999999943
11
130.8485079999999812
21
-140.9749999999999943
0
LINE
8
BLACK
6
CONTINUOUS
10
128.6985080000000039
20
-143.3249999999999886
11
130.8485079999999812
21
-143.3249999999999886
0
LINE
8
BLACK
6
CONTINUOUS
10
130.8485079999999812
20
-140.5699999999999932
11
131.6192539999999838
21
-139.7992539999999906
0
LINE
8
BLACK
6
CONTINUOUS
10
130.8485079999999812
20
-140.9749999999999943
11
130.8485079999999812
21
-140.5699999999999932
0
LINE
8
BLACK
6
CONTINUOUS
10
130.8485079999999812
20
-143.3249999999999886
11
130.8485079999999812
21
-143.6800000000000068
0
LINE
8
BLACK
6
CONTINUOUS
10
130.8485079999999812
20
-143.6800000000000068
11
131.6192539999999838
21
-144.450745999999981
0
LINE
8
BLACK
6
CONTINUOUS
10
131.6192539999999838
20
-139.7992539999999906
11
133.9802540000000022
21
-139.7992539999999906
0
LINE
8
BLACK
6
CONTINUOUS
10
131.6192539999999838
20
-144.450745999999981
11
134.8292539999999917
21
-144.450745999999981
0
LINE
8
BLACK
6
CONTINUOUS
10
134.8292539999999917
20
-144.450745999999981
11
135.5999999999999943
21
-143.6800000000000068
0
LINE
8
BLACK
6
CONTINUOUS
10
135.5999999999999943
20
-143.6800000000000068
11
135.5999999999999943
21
-143.1500000000000057
0
LINE
8
BLACK
6
CONTINUOUS
10
136.5
20
-142.25
11
139.5
21
-142.25
0
LINE
8
BLACK
6
CONTINUOUS
10
136.8585080000000005
20
-137.5457839999999976
11
140.625
21
-137.5449999999999875
0
LINE
8
BLACK
6
CONTINUOUS
10
140.625
20
-138.7750000000000057
11
140.625
21
-137.5449999999999875
0
LINE
8
BLACK
6
CONTINUOUS
10
140.625
20
-141.125
11
142.7750000000000057
21
-141.125
0
LINE
8
BLACK
6
CONTINUOUS
10
142.7750000000000057
20
-138.7750000000000057
11
140.625
21
-138.7750000000000057
0
LINE
8
BLACK
6
CONTINUOUS
10
142.7750000000000057
20
-138.7750000000000057
11
142.7750000000000057
21
-141.125
0
ARC
8
BLACK
10
136.5
20
-143.1500000000000057
40
0.8999999999999999
50
90.00000000
51
180.00000000
0
ARC
8
BLACK
10
139.5
20
-141.125
40
1.125
50
-90.00000000
51
-0.00000000
0
ARC
8
BLACK
10
133.9802540000000022
20
-137.7665169999999932
40
2.0327371609947509
50
-89.99991544
51
-13.61452603
0
ARC
8
BLACK
10
136.8585080000000005
20
-138.4780079999999884
40
0.9322236137429688
50
90.00000000
51
165.52552856
0
CIRCLE
8
BLACK
10
132.5
20
-146.
40
1.
0
CIRCLE
8
BLACK
10
138.
20
-146.
40
1.5999999999999999
0
CIRCLE
8
BLACK
10
143.5
20
-146.
40
1.
0
LINE
8
BLACK
6
CONTINUOUS
10
128.6985080000000039
20
-123.9749999999999943
11
128.6985080000000039
21
-126.3249999999999886
0
LINE
8
BLACK
6
CONTINUOUS
10
128.6985080000000039
20
-123.9749999999999943
11
130.8485079999999812
21
-123.9749999999999943
0
LINE
8
BLACK
6
CONTINUOUS
10
128.6985080000000039
20
-126.3249999999999886
11
130.8485079999999812
21
-126.3249999999999886
0
LINE
8
BLACK
6
CONTINUOUS
10
130.8485079999999812
20
-123.5699999999999932
11
131.6192539999999838
21
-122.7992539999999906
0
LINE
8
BLACK
6
CONTINUOUS
10
130.8485079999999812
20
-123.9749999999999943
11
130.8485079999999812
21
-123.5699999999999932
0
LINE
8
BLACK
6
CONTINUOUS
10
130.8485079999999812
20
-126.3249999999999886
11
130.8485079999999812
21
-126.6799999999999926
0
LINE
8
BLACK
6
CONTINUOUS
10
130.8485079999999812
20
-126.6799999999999926
11
131.6192539999999838
21
-127.4507459999999952
0
LINE
8
BLACK
6
CONTINUOUS
10
131.6192539999999838
20
-122.7992539999999906
11
133.9802540000000022
21
-122.7992539999999906
0
LINE
8
BLACK
6
CONTINUOUS
10
131.6192539999999838
20
-127.4507459999999952
11
134.8292539999999917
21
-127.4507459999999952
0
LINE
8
BLACK
6
CONTINUOUS
10
134.8292539999999917
20
-127.4507459999999952
11
135.5999999999999943
21
-126.6799999999999926
0
LINE
8
BLACK
6
CONTINUOUS
10
135.5999999999999943
20
-126.6799999999999926
11
135.5999999999999943
21
-126.1499999999999915
0
LINE
8
BLACK
6
CONTINUOUS
10
136.5
20
-125.25
11
139.5
21
-125.25
0
LINE
8
BLACK
6
CONTINUOUS
10
136.8585080000000005
20
-120.5457839999999976
11
140.625
21
-120.5449999999999875
0
LINE
8
BLACK
6
CONTINUOUS
10
140.625
20
-121.7749999999999915
11
140.625
21
-120.5449999999999875
0
LINE
8
BLACK
6
CONTINUOUS
10
140.625
20
-124.125
11
142.7750000000000057
21
-124.125
0
LINE
8
BLACK
6
CONTINUOUS
10
142.7750000000000057
20
-121.7749999999999915
11
140.625
21
-121.7749999999999915
0
LINE
8
BLACK
6
CONTINUOUS
10
142.7750000000000057
20
-121.7749999999999915
11
142.7750000000000057
21
-124.125
0
ARC
8
BLACK
10
136.5
20
-126.1499999999999915
40
0.8999999999999999
50
90.00000000
51
180.00000000
0
ARC
8
BLACK
10
139.5
20
-124.125
40
1.125
50
-90.00000000
51
-0.00000000
0
ARC
8
BLACK
10
133.9802540000000022
20
-120.7665169999999932
40
2.0327371609947509
50
-89.99991544
51
-13.61452603
0
ARC
8
BLACK
10
136.8585080000000005
20
-121.4780079999999884
40
0.9322236137429688
50
90.00000000
51
165.52552856
0
CIRCLE
8
BLACK
10
132.5
20
-129.
40
1.
0
CIRCLE
8
BLACK
10
138.
20
-129.
40
1.5999999999999999
0
CIRCLE
8
BLACK
10
143.5
20
-129.
40
1.
0
LINE
8
BLACK
6
CONTINUOUS
10
128.6985080000000039
20
-106.9749999999999943
11
128.6985080000000039
21
-109.3249999999999886
0
LINE
8
BLACK
6
CONTINUOUS
10
128.6985080000000039
20
-106.9749999999999943
11
130.8485079999999812
21
-106.9749999999999943
0
LINE
8
BLACK
6
CONTINUOUS
10
128.6985080000000039
20
-109.3249999999999886
11
130.8485079999999812
21
-109.3249999999999886
0
LINE
8
BLACK
6
CONTINUOUS
10
130.8485079999999812
20
-106.5699999999999932
11
131.6192539999999838
21
-105.7992539999999906
0
LINE
8
BLACK
6
CONTINUOUS
10
130.8485079999999812
20
-106.9749999999999943
11
130.8485079999999812
21
-106.5699999999999932
0
LINE
8
BLACK
6
CONTINUOUS
10
130.8485079999999812
20
-109.3249999999999886
11
130.8485079999999812
21
-109.6799999999999926
0
LINE
8
BLACK
6
CONTINUOUS
10
130.8485079999999812
20
-109.6799999999999926
11
131.6192539999999838
21
-110.4507459999999952
0
LINE
8
BLACK
6
CONTINUOUS
10
131.6192539999999838
20
-105.7992539999999906
11
133.9802540000000022
21
-105.7992539999999906
0
LINE
8
BLACK
6
CONTINUOUS
10
131.6192539999999838
20
-110.4507459999999952
11
134.8292539999999917
21
-110.4507459999999952
0
LINE
8
BLACK
6
CONTINUOUS
10
134.8292539999999917
20
-110.4507459999999952
11
135.5999999999999943
21
-109.6799999999999926
0
LINE
8
BLACK
6
CONTINUOUS
10
135.5999999999999943
20
-109.6799999999999926
11
135.5999999999999943
21
-109.1499999999999915
0
LINE
8
BLACK
6
CONTINUOUS
10
136.5
20
-108.25
11
139.5
21
-108.25
0
LINE
8
BLACK
6
CONTINUOUS
10
136.8585080000000005
20
-103.5457839999999976
11
140.625
21
-103.5450000000000017
0
LINE
8
BLACK
6
CONTINUOUS
10
140.625
20
-104.7749999999999915
11
140.625
21
-103.5450000000000017
0
LINE
8
BLACK
6
CONTINUOUS
10
140.625
20
-107.125
11
142.7750000000000057
21
-107.125
0
LINE
8
BLACK
6
CONTINUOUS
10
142.7750000000000057
20
-104.7749999999999915
11
140.625
21
-104.7749999999999915
0
LINE
8
BLACK
6
CONTINUOUS
10
142.7750000000000057
20
-104.7749999999999915
11
142.7750000000000057
21
-107.125
0
ARC
8
BLACK
10
136.5
20
-109.1499999999999915
40
0.8999999999999999
50
90.00000000
51
180.00000000
0
ARC
8
BLACK
10
139.5
20
-107.125
40
1.125
50
-90.00000000
51
-0.00000000
0
ARC
8
BLACK
10
133.9802540000000022
20
-103.7665169999999932
40
2.0327371609947509
50
-89.99991544
51
-13.61452603
0
ARC
8
BLACK
10
136.8585080000000005
20
-104.4780079999999884
40
0.9322236137429688
50
90.00000000
51
165.52552856
0
CIRCLE
8
BLACK
10
132.5
20
-112.
40
1.
0
CIRCLE
8
BLACK
10
138.
20
-112.
40
1.5999999999999999
0
CIRCLE
8
BLACK
10
143.5
20
-112.
40
1.
0
LINE
8
BLACK
6
CONTINUOUS
10
128.6985080000000039
20
-89.9749999999999943
11
128.6985080000000039
21
-92.3250000000000028
0
LINE
8
BLACK
6
CONTINUOUS
10
128.6985080000000039
20
-89.9749999999999943
11
130.8485079999999812
21
-89.9749999999999943
0
LINE
8
BLACK
6
CONTINUOUS
10
128.6985080000000039
20
-92.3250000000000028
11
130.8485079999999812
21
-92.3250000000000028
0
LINE
8
BLACK
6
CONTINUOUS
10
130.8485079999999812
20
-89.5699999999999932
11
131.6192539999999838
21
-88.7992539999999906
0
LINE
8
BLACK
6
CONTINUOUS
10
130.8485079999999812
20
-89.9749999999999943
11
130.8485079999999812
21
-89.5699999999999932
0
LINE
8
BLACK
6
CONTINUOUS
10
130.8485079999999812
20
-92.3250000000000028
11
130.8485079999999812
21
-92.6799999999999926
0
LINE
8
BLACK
6
CONTINUOUS
10
130.8485079999999812
20
-92.6799999999999926
11
131.6192539999999838
21
-93.4507459999999952
0
LINE
8
BLACK
6
CONTINUOUS
10
131.6192539999999838
20
-88.7992539999999906
11
133.9802540000000022
21
-88.7992539999999906
0
LINE
8
BLACK
6
CONTINUOUS
10
131.6192539999999838
20
-93.4507459999999952
11
134.8292539999999917
21
-93.4507459999999952
0
LINE
8
BLACK
6
CONTINUOUS
10
134.8292539999999917
20
-93.4507459999999952
11
135.5999999999999943
21
-92.6799999999999926
0
LINE
8
BLACK
6
CONTINUOUS
10
135.5999999999999943
20
-92.6799999999999926
11
135.5999999999999943
21
-92.1499999999999915
0
LINE
8
BLACK
6
CONTINUOUS
10
136.5
20
-91.25
11
139.5
21
-91.25
0
LINE
8
BLACK
6
CONTINUOUS
10
136.8585080000000005
20
-86.5457839999999976
11
140.625
21
-86.5450000000000017
0
LINE
8
BLACK
6
CONTINUOUS
10
140.625
20
-87.7749999999999915
11
140.625
21
-86.5450000000000017
0
LINE
8
BLACK
6
CONTINUOUS
10
140.625
20
-90.125
11
142.7750000000000057
21
-90.125
0
LINE
8
BLACK
6
CONTINUOUS
10
142.7750000000000057
20
-87.7749999999999915
11
140.625
21
-87.7749999999999915
0
LINE
8
BLACK
6
CONTINUOUS
10
142.7750000000000057
20
-87.7749999999999915
11
142.7750000000000057
21
-90.125
0
ARC
8
BLACK
10
136.5
20
-92.1499999999999915
40
0.8999999999999999
50
90.00000000
51
180.00000000
0
ARC
8
BLACK
10
139.5
20
-90.125
40
1.125
50
-90.00000000
51
-0.00000000
0
ARC
8
BLACK
10
133.9802540000000022
20
-86.7665169999999932
40
2.0327371609947509
50
-89.99991544
51
-13.61452603
0
ARC
8
BLACK
10
136.8585080000000005
20
-87.4780080000000027
40
0.9322236137429688
50
90.00000000
51
165.52552856
0
CIRCLE
8
BLACK
10
132.5
20
-95.
40
1.
0
CIRCLE
8
BLACK
10
138.
20
-95.
40
1.5999999999999999
0
CIRCLE
8
BLACK
10
143.5
20
-95.
40
1.
0
LINE
8
BLACK
6
CONTINUOUS
10
148.9149759999999958
20
-136.2595489999999927
11
148.7101600000000019
21
-138.6006069999999966
0
LINE
8
BLACK
6
CONTINUOUS
10
148.9149759999999958
20
-136.2595489999999927
11
151.0567939999999965
21
-136.4469339999999988
0
LINE
8
BLACK
6
CONTINUOUS
10
148.7101600000000019
20
-138.6006069999999966
11
150.8519780000000026
21
-138.7879920000000027
0
LINE
8
BLACK
6
CONTINUOUS
10
151.0920919999999796
20
-136.0434750000000008
11
151.9270799999999895
21
-135.3428370000000029
0
LINE
8
BLACK
6
CONTINUOUS
10
151.0567939999999965
20
-136.4469339999999988
11
151.0920919999999796
21
-136.0434750000000008
0
LINE
8
BLACK
6
CONTINUOUS
10
150.8519780000000026
20
-138.7879920000000027
11
150.8210379999999873
21
-139.1416409999999928
0
LINE
8
BLACK
6
CONTINUOUS
10
150.8210379999999873
20
-139.1416409999999928
11
151.5216759999999852
21
-139.9766290000000026
0
LINE
8
BLACK
6
CONTINUOUS
10
151.9270799999999895
20
-135.3428370000000029
11
154.2790959999999814
21
-135.5486119999999914
0
LINE
8
BLACK
6
CONTINUOUS
10
151.5216759999999852
20
-139.9766290000000026
11
154.7194609999999955
21
-140.2563989999999876
0
LINE
8
BLACK
6
CONTINUOUS
10
154.7194609999999955
20
-140.2563989999999876
11
155.5544490000000053
21
-139.5557609999999897
0
LINE
8
BLACK
6
CONTINUOUS
10
155.5544490000000053
20
-139.5557609999999897
11
155.6006419999999935
21
-139.0277769999999862
0
LINE
8
BLACK
6
CONTINUOUS
10
156.5756570000000067
20
-138.2096420000000023
11
159.5642409999999813
21
-138.4711089999999842
0
LINE
8
BLACK
6
CONTINUOUS
10
157.3427999999999827
20
-133.5545730000000049
11
161.095027999999985
21
-133.8820639999999855
0
LINE
8
BLACK
6
CONTINUOUS
10
160.9878259999999841
20
-135.1073829999999987
11
161.095027999999985
21
-133.8820639999999855
0
LINE
8
BLACK
6
CONTINUOUS
10
160.7830099999999902
20
-137.4484410000000025
11
162.9248289999999884
21
-137.6358259999999802
0
LINE
8
BLACK
6
CONTINUOUS
10
163.1296449999999822
20
-135.2947680000000048
11
160.9878259999999841
21
-135.1073829999999987
0
LINE
8
BLACK
6
CONTINUOUS
10
163.1296449999999822
20
-135.2947680000000048
11
162.9248289999999884
21
-137.6358259999999802
0
ARC
8
BLACK
10
156.4972170000000062
20
-139.1062169999999867
40
0.8999997579027452
50
85.00000942
51
175.00000942
0
ARC
8
BLACK
10
159.662290999999982
20
-137.3503900000000044
40
1.1250000335831105
50
-94.99998947
51
-5.00004021
0
ARC
8
BLACK
10
154.4562609999999836
20
-133.5236099999999908
40
2.0327366115662895
50
-94.99992366
51
-18.61453553
0
ARC
8
BLACK
10
157.2615519999999947
20
-134.4832499999999982
40
0.9322243256561159
50
85.00004345
51
160.52554866
0
CIRCLE
8
BLACK
10
152.2640439999999842
20
-141.5967489999999884
40
1.
0
CIRCLE
8
BLACK
10
157.7431149999999889
20
-142.0761059999999816
40
1.5999999999999999
0
CIRCLE
8
BLACK
10
163.2221859999999936
20
-142.5554630000000031
40
1.
0
LINE
8
BLACK
6
CONTINUOUS
10
150.3966240000000028
20
-119.3242389999999915
11
150.1918079999999804
21
-121.6652969999999954
0
LINE
8
BLACK
6
CONTINUOUS
10
150.3966240000000028
20
-119.3242389999999915
11
152.5384420000000034
21
-119.5116239999999976
0
LINE
8
BLACK
6
CONTINUOUS
10
150.1918079999999804
20
-121.6652969999999954
11
152.3336259999999811
21
-121.8526820000000015
0
LINE
8
BLACK
6
CONTINUOUS
10
152.5737399999999866
20
-119.1081649999999996
11
153.4087279999999964
21
-118.4075269999999875
0
LINE
8
BLACK
6
CONTINUOUS
10
152.5384420000000034
20
-119.5116239999999976
11
152.5737399999999866
21
-119.1081649999999996
0
LINE
8
BLACK
6
CONTINUOUS
10
152.3336259999999811
20
-121.8526820000000015
11
152.3026859999999942
21
-122.2063309999999916
0
LINE
8
BLACK
6
CONTINUOUS
10
152.3026859999999942
20
-122.2063309999999916
11
153.0033239999999921
21
-123.0413190000000014
0
LINE
8
BLACK
6
CONTINUOUS
10
153.4087279999999964
20
-118.4075269999999875
11
155.7607439999999883
21
-118.6133019999999902
0
LINE
8
BLACK
6
CONTINUOUS
10
153.0033239999999921
20
-123.0413190000000014
11
156.2011090000000024
21
-123.3210890000000006
0
LINE
8
BLACK
6
CONTINUOUS
10
156.2011090000000024
20
-123.3210890000000006
11
157.0360969999999838
21
-122.6204509999999885
0
LINE
8
BLACK
6
CONTINUOUS
10
157.0360969999999838
20
-122.6204509999999885
11
157.0822900000000004
21
-122.0924669999999992
0
LINE
8
BLACK
6
CONTINUOUS
10
158.0573049999999853
20
-121.2743320000000011
11
161.0458889999999883
21
-121.5357989999999972
0
LINE
8
BLACK
6
CONTINUOUS
10
158.8244479999999896
20
-116.6192629999999895
11
162.576675999999992
21
-116.9467539999999985
0
LINE
8
BLACK
6
CONTINUOUS
10
162.4694739999999911
20
-118.1720729999999975
11
162.576675999999992
21
-116.9467539999999985
0
LINE
8
BLACK
6
CONTINUOUS
10
162.2646579999999972
20
-120.5131310000000013
11
164.4064769999999953
21
-120.7005159999999933
0
LINE
8
BLACK
6
CONTINUOUS
10
164.6112929999999892
20
-118.3594579999999894
11
162.4694739999999911
21
-118.1720729999999975
0
LINE
8
BLACK
6
CONTINUOUS
10
164.6112929999999892
20
-118.3594579999999894
11
164.4064769999999953
21
-120.7005159999999933
0
ARC
8
BLACK
10
157.9788649999999848
20
-122.1709069999999997
40
0.8999997579027452
50
85.00000942
51
175.00000942
0
ARC
8
BLACK
10
161.1439389999999889
20
-120.415079999999989
40
1.1250000335831105
50
-94.99998947
51
-5.00004021
0
ARC
8
BLACK
10
155.9379089999999906
20
-116.5882999999999896
40
2.0327366115662895
50
-94.99992366
51
-18.61453553
0
ARC
8
BLACK
10
158.7432000000000016
20
-117.547939999999997
40
0.9322243256561159
50
85.00004345
51
160.52554866
0
CIRCLE
8
BLACK
10
153.7456919999999911
20
-124.6614390000000014
40
1.
0
CIRCLE
8
BLACK
10
159.2247629999999958
20
-125.1407959999999946
40
1.5999999999999999
0
CIRCLE
8
BLACK
10
164.7038340000000005
20
-125.6201529999999877
40
1.
0
LINE
8
BLACK
6
CONTINUOUS
10
151.8782709999999838
20
-102.3889289999999903
11
151.6734549999999899
21
-104.7299869999999942
0
LINE
8
BLACK
6
CONTINUOUS
10
151.8782709999999838
20
-102.3889289999999903
11
154.0200889999999845
21
-102.5763139999999964
0
LINE
8
BLACK
6
CONTINUOUS
10
151.6734549999999899
20
-104.7299869999999942
11
153.8152729999999906
21
-104.9173720000000003
0
LINE
8
BLACK
6
CONTINUOUS
10
154.0553869999999961
20
-102.1728549999999984
11
154.8903750000000059
21
-101.4722170000000006
0
LINE
8
BLACK
6
CONTINUOUS
10
154.0200889999999845
20
-102.5763139999999964
11
154.0553869999999961
21
-102.1728549999999984
0
LINE
8
BLACK
6
CONTINUOUS
10
153.8152729999999906
20
-104.9173720000000003
11
153.7843330000000037
21
-105.2710209999999904
0
LINE
8
BLACK
6
CONTINUOUS
10
153.7843330000000037
20
-105.2710209999999904
11
154.4849710000000016
21
-106.1060090000000002
0
LINE
8
BLACK
6
CONTINUOUS
10
154.8903750000000059
20
-101.4722170000000006
11
157.2423909999999978
21
-101.677991999999989
0
LINE
8
BLACK
6
CONTINUOUS
10
154.4849710000000016
20
-106.1060090000000002
11
157.6827559999999835
21
-106.3857789999999994
0
LINE
8
BLACK
6
CONTINUOUS
10
157.6827559999999835
20
-106.3857789999999994
11
158.5177439999999933
21
-105.6851410000000016
0
LINE
8
BLACK
6
CONTINUOUS
10
158.5177439999999933
20
-105.6851410000000016
11
158.5639369999999815
21
-105.157156999999998
0
LINE
8
BLACK
6
CONTINUOUS
10
159.5389519999999948
20
-104.3390219999999999
11
162.5275359999999978
21
-104.6004889999999961
0
LINE
8
BLACK
6
CONTINUOUS
10
160.3060949999999991
20
-99.6839530000000025
11
164.0583230000000015
21
-100.0114439999999973
0
LINE
8
BLACK
6
CONTINUOUS
10
163.9511210000000005
20
-101.2367629999999963
11
164.0583230000000015
21
-100.0114439999999973
0
LINE
8
BLACK
6
CONTINUOUS
10
163.7463050000000067
20
-103.5778210000000001
11
165.8881240000000048
21
-103.7652059999999921
0
LINE
8
BLACK
6
CONTINUOUS
10
166.0929399999999987
20
-101.4241480000000024
11
163.9511210000000005
21
-101.2367629999999963
0
LINE
8
BLACK
6
CONTINUOUS
10
166.0929399999999987
20
-101.4241480000000024
11
165.8881240000000048
21
-103.7652059999999921
0
ARC
8
BLACK
10
159.4605119999999943
20
-105.2355969999999985
40
0.8999997579027452
50
85.00000942
51
175.00000942
0
ARC
8
BLACK
10
162.6255859999999984
20
-103.479770000000002
40
1.1250000335831105
50
-94.99998947
51
-5.00004021
0
ARC
8
BLACK
10
157.419556
20
-99.6529899999999884
40
2.0327366115662895
50
-94.99992366
51
-18.61453553
0
ARC
8
BLACK
10
160.2248469999999827
20
-100.6126299999999958
40
0.9322243256561159
50
85.00004345
51
160.52554866
0
CIRCLE
8
BLACK
10
155.2273390000000006
20
-107.7261290000000002
40
1.
0
CIRCLE
8
BLACK
10
160.7064100000000053
20
-108.2054859999999934
40
1.5999999999999999
0
CIRCLE
8
BLACK
10
166.1854809999999816
20
-108.6848430000000008
40
1.
0
LINE
8
BLACK
6
CONTINUOUS
10
153.3599189999999908
20
-85.4536189999999891
11
153.1551029999999969
21
-87.794676999999993
0
LINE
8
BLACK
6
CONTINUOUS
10
153.3599189999999908
20
-85.4536189999999891
11
155.5017369999999914
21
-85.6410039999999952
0
LINE
8
BLACK
6
CONTINUOUS
10
153.1551029999999969
20
-87.794676999999993
11
155.2969209999999975
21
-87.9820619999999991
0
LINE
8
BLACK
6
CONTINUOUS
10
155.537035000000003
20
-85.2375449999999972
11
156.3720229999999844
21
-84.5369069999999994
0
LINE
8
BLACK
6
CONTINUOUS
10
155.5017369999999914
20
-85.6410039999999952
11
155.537035000000003
21
-85.2375449999999972
0
LINE
8
BLACK
6
CONTINUOUS
10
155.2969209999999975
20
-87.9820619999999991
11
155.2659809999999823
21
-88.3357109999999892
0
LINE
8
BLACK
6
CONTINUOUS
10
155.2659809999999823
20
-88.3357109999999892
11
155.9666189999999801
21
-89.170698999999999
0
LINE
8
BLACK
6
CONTINUOUS
10
156.3720229999999844
20
-84.5369069999999994
11
158.7240390000000048
21
-84.7426820000000021
0
LINE
8
BLACK
6
CONTINUOUS
10
155.9666189999999801
20
-89.170698999999999
11
159.1644039999999904
21
-89.4504689999999982
0
LINE
8
BLACK
6
CONTINUOUS
10
159.1644039999999904
20
-89.4504689999999982
11
159.9993920000000003
21
-88.7498310000000004
0
LINE
8
BLACK
6
CONTINUOUS
10
159.9993920000000003
20
-88.7498310000000004
11
160.0455849999999884
21
-88.2218469999999968
0
LINE
8
BLACK
6
CONTINUOUS
10
161.0206000000000017
20
-87.4037119999999987
11
164.0091840000000047
21
-87.6651789999999949
0
LINE
8
BLACK
6
CONTINUOUS
10
161.7877430000000061
20
-82.7486430000000013
11
165.53997099999998
21
-83.0761339999999961
0
LINE
8
BLACK
6
CONTINUOUS
10
165.4327689999999791
20
-84.3014529999999951
11
165.53997099999998
21
-83.0761339999999961
0
LINE
8
BLACK
6
CONTINUOUS
10
165.2279529999999852
20
-86.6425109999999989
11
167.3697719999999833
21
-86.8298959999999909
0
LINE
8
BLACK
6
CONTINUOUS
10
167.5745880000000056
20
-84.4888380000000012
11
165.4327689999999791
21
-84.3014529999999951
0
LINE
8
BLACK
6
CONTINUOUS
10
167.5745880000000056
20
-84.4888380000000012
11
167.3697719999999833
21
-86.8298959999999909
0
ARC
8
BLACK
10
160.9421600000000012
20
-88.3002869999999973
40
0.8999997579027452
50
85.00000942
51
175.00000942
0
ARC
8
BLACK
10
164.1072340000000054
20
-86.5444600000000008
40
1.1250000335831105
50
-94.99998947
51
-5.00004021
0
ARC
8
BLACK
10
158.901204000000007
20
-82.7176800000000014
40
2.0327366115662895
50
-94.99992366
51
-18.61453553
0
ARC
8
BLACK
10
161.7064949999999897
20
-83.6773199999999946
40
0.9322243256561159
50
85.00004345
51
160.52554866
0
CIRCLE
8
BLACK
10
156.7089869999999792
20
-90.7908189999999991
40
1.
0
CIRCLE
8
BLACK
10
162.1880579999999838
20
-91.2701759999999922
40
1.5999999999999999
0
CIRCLE
8
BLACK
10
167.6671289999999885
20
-91.7495329999999996
40
1.
0
LINE
8
BLACK
6
CONTINUOUS
10
167.1951029999999889
20
-133.8435739999999896
11
166.990286999999995
21
-136.1846319999999935
0
LINE
8
BLACK
6
CONTINUOUS
10
167.1951029999999889
20
-133.8435739999999896
11
169.3369209999999896
21
-134.0309589999999957
0
LINE
8
BLACK
6
CONTINUOUS
10
166.990286999999995
20
-136.1846319999999935
11
169.1321049999999957
21
-136.3720169999999996
0
LINE
8
BLACK
6
CONTINUOUS
10
169.3722190000000012
20
-133.6274999999999977
11
170.2072069999999826
21
-132.9268619999999999
0
LINE
8
BLACK
6
CONTINUOUS
10
169.3369209999999896
20
-134.0309589999999957
11
169.3722190000000012
21
-133.6274999999999977
0
LINE
8
BLACK
6
CONTINUOUS
10
169.1321049999999957
20
-136.3720169999999996
11
169.1011649999999804
21
-136.7256659999999897
0
LINE
8
BLACK
6
CONTINUOUS
10
169.1011649999999804
20
-136.7256659999999897
11
169.8018029999999783
21
-137.5606539999999995
0
LINE
8
BLACK
6
CONTINUOUS
10
170.2072069999999826
20
-132.9268619999999999
11
172.5592230000000029
21
-133.1326369999999883
0
LINE
8
BLACK
6
CONTINUOUS
10
169.8018029999999783
20
-137.5606539999999995
11
172.9995879999999886
21
-137.8404239999999845
0
LINE
8
BLACK
6
CONTINUOUS
10
172.9995879999999886
20
-137.8404239999999845
11
173.8345759999999984
21
-137.1397859999999866
0
LINE
8
BLACK
6
CONTINUOUS
10
173.8345759999999984
20
-137.1397859999999866
11
173.8807689999999866
21
-136.6118019999999831
0
LINE
8
BLACK
6
CONTINUOUS
10
174.8557839999999999
20
-135.7936669999999992
11
177.8443680000000029
21
-136.0551339999999811
0
LINE
8
BLACK
6
CONTINUOUS
10
175.6229270000000042
20
-131.1385980000000018
11
179.3751549999999781
21
-131.4660889999999824
0
LINE
8
BLACK
6
CONTINUOUS
10
179.2679530000000057
20
-132.6914079999999956
11
179.3751549999999781
21
-131.4660889999999824
0
LINE
8
BLACK
6
CONTINUOUS
10
179.0631369999999833
20
-135.0324659999999994
11
181.2049559999999815
21
-135.2198510000000056
0
LINE
8
BLACK
6
CONTINUOUS
10
181.4097720000000038
20
-132.8787930000000017
11
179.2679530000000057
21
-132.6914079999999956
0
LINE
8
BLACK
6
CONTINUOUS
10
181.4097720000000038
20
-132.8787930000000017
11
181.2049559999999815
21
-135.2198510000000056
0
ARC
8
BLACK
10
174.7773439999999994
20
-136.6902419999999836
40
0.8999997579027452
50
85.00000942
51
175.00000942
0
ARC
8
BLACK
10
177.9424180000000035
20
-134.9344150000000013
40
1.1250000335831105
50
-94.99998947
51
-5.00004021
0
ARC
8
BLACK
10
172.7363880000000051
20
-131.1076349999999877
40
2.0327366115662895
50
-94.99992366
51
-18.61453553
0
ARC
8
BLACK
10
175.5416789999999878
20
-132.0672749999999951
40
0.9322243256561159
50
85.00004345
51
160.52554866
0
CIRCLE
8
BLACK
10
170.5441710000000057
20
-139.1807739999999853
40
1.
0
CIRCLE
8
BLACK
10
176.023241999999982
20
-139.6601310000000069
40
1.5999999999999999
0
CIRCLE
8
BLACK
10
181.5023129999999867
20
-140.1394880000000001
40
1.
0
LINE
8
BLACK
6
CONTINUOUS
10
168.6767509999999959
20
-116.9082639999999884
11
168.471935000000002
21
-119.2493219999999923
0
LINE
8
BLACK
6
CONTINUOUS
10
168.6767509999999959
20
-116.9082639999999884
11
170.8185689999999965
21
-117.0956489999999945
0
LINE
8
BLACK
6
CONTINUOUS
10
168.471935000000002
20
-119.2493219999999923
11
170.6137530000000027
21
-119.4367069999999984
0
LINE
8
BLACK
6
CONTINUOUS
10
170.8538669999999797
20
-116.6921899999999965
11
171.6888549999999896
21
-115.9915519999999987
0
LINE
8
BLACK
6
CONTINUOUS
10
170.8185689999999965
20
-117.0956489999999945
11
170.8538669999999797
21
-116.6921899999999965
0
LINE
8
BLACK
6
CONTINUOUS
10
170.6137530000000027
20
-119.4367069999999984
11
170.5828129999999874
21
-119.7903559999999885
0
LINE
8
BLACK
6
CONTINUOUS
10
170.5828129999999874
20
-119.7903559999999885
11
171.2834509999999852
21
-120.6253439999999983
0
LINE
8
BLACK
6
CONTINUOUS
10
171.6888549999999896
20
-115.9915519999999987
11
174.0408709999999814
21
-116.1973270000000014
0
LINE
8
BLACK
6
CONTINUOUS
10
171.2834509999999852
20
-120.6253439999999983
11
174.4812359999999956
21
-120.9051139999999975
0
LINE
8
BLACK
6
CONTINUOUS
10
174.4812359999999956
20
-120.9051139999999975
11
175.3162240000000054
21
-120.2044759999999997
0
LINE
8
BLACK
6
CONTINUOUS
10
175.3162240000000054
20
-120.2044759999999997
11
175.3624169999999935
21
-119.6764919999999961
0
LINE
8
BLACK
6
CONTINUOUS
10
176.3374319999999784
20
-118.858356999999998
11
179.3260159999999814
21
-119.1198239999999942
0
LINE
8
BLACK
6
CONTINUOUS
10
177.1045749999999828
20
-114.2032880000000006
11
180.8568029999999851
21
-114.5307789999999954
0
LINE
8
BLACK
6
CONTINUOUS
10
180.7496009999999842
20
-115.7560979999999944
11
180.8568029999999851
21
-114.5307789999999954
0
LINE
8
BLACK
6
CONTINUOUS
10
180.5447849999999903
20
-118.0971559999999982
11
182.6866039999999884
21
-118.2845409999999902
0
LINE
8
BLACK
6
CONTINUOUS
10
182.8914199999999823
20
-115.9434830000000005
11
180.7496009999999842
21
-115.7560979999999944
0
LINE
8
BLACK
6
CONTINUOUS
10
182.8914199999999823
20
-115.9434830000000005
11
182.6866039999999884
21
-118.2845409999999902
0
ARC
8
BLACK
10
176.2589919999999779
20
-119.7549319999999966
40
0.8999997579027452
50
85.00000942
51
175.00000942
0
ARC
8
BLACK
10
179.4240659999999821
20
-117.9991050000000001
40
1.1250000335831105
50
-94.99998947
51
-5.00004021
0
ARC
8
BLACK
10
174.2180359999999837
20
-114.1723250000000007
40
2.0327366115662895
50
-94.99992366
51
-18.61453553
0
ARC
8
BLACK
10
177.0233269999999948
20
-115.1319649999999939
40
0.9322243256561159
50
85.00004345
51
160.52554866
0
CIRCLE
8
BLACK
10
172.0258189999999843
20
-122.2454639999999984
40
1.
0
CIRCLE
8
BLACK
10
177.504889999999989
20
-122.7248209999999915
40
1.5999999999999999
0
CIRCLE
8
BLACK
10
182.9839609999999936
20
-123.2041779999999989
40
1.
0
LINE
8
BLACK
6
CONTINUOUS
10
170.1583990000000028
20
-99.9729540000000014
11
169.9535829999999805
21
-102.3140119999999911
0
LINE
8
BLACK
6
CONTINUOUS
10
170.1583990000000028
20
-99.9729540000000014
11
172.3002170000000035
21
-100.1603389999999933
0
LINE
8
BLACK
6
CONTINUOUS
10
169.9535829999999805
20
-102.3140119999999911
11
172.0954009999999812
21
-102.5013969999999972
0
LINE
8
BLACK
6
CONTINUOUS
10
172.3355149999999867
20
-99.7568799999999953
11
173.1705029999999965
21
-99.0562419999999975
0
LINE
8
BLACK
6
CONTINUOUS
10
172.3002170000000035
20
-100.1603389999999933
11
172.3355149999999867
21
-99.7568799999999953
0
LINE
8
BLACK
6
CONTINUOUS
10
172.0954009999999812
20
-102.5013969999999972
11
172.0644609999999943
21
-102.8550460000000015
0
LINE
8
BLACK
6
CONTINUOUS
10
172.0644609999999943
20
-102.8550460000000015
11
172.7650989999999922
21
-103.6900339999999971
0
LINE
8
BLACK
6
CONTINUOUS
10
173.1705029999999965
20
-99.0562419999999975
11
175.5225189999999884
21
-99.2620170000000002
0
LINE
8
BLACK
6
CONTINUOUS
10
172.7650989999999922
20
-103.6900339999999971
11
175.9628840000000025
21
-103.9698039999999963
0
LINE
8
BLACK
6
CONTINUOUS
10
175.9628840000000025
20
-103.9698039999999963
11
176.7978719999999839
21
-103.2691659999999985
0
LINE
8
BLACK
6
CONTINUOUS
10
176.7978719999999839
20
-103.2691659999999985
11
176.8440650000000005
21
-102.7411819999999949
0
LINE
8
BLACK
6
CONTINUOUS
10
177.8190799999999854
20
-101.9230469999999968
11
180.8076639999999884
21
-102.184513999999993
0
LINE
8
BLACK
6
CONTINUOUS
10
178.5862229999999897
20
-97.2679779999999994
11
182.3384509999999921
21
-97.5954689999999943
0
LINE
8
BLACK
6
CONTINUOUS
10
182.2312489999999912
20
-98.8207879999999932
11
182.3384509999999921
21
-97.5954689999999943
0
LINE
8
BLACK
6
CONTINUOUS
10
182.0264329999999973
20
-101.161845999999997
11
184.1682519999999954
21
-101.349230999999989
0
LINE
8
BLACK
6
CONTINUOUS
10
184.3730679999999893
20
-99.0081729999999993
11
182.2312489999999912
21
-98.8207879999999932
0
LINE
8
BLACK
6
CONTINUOUS
10
184.3730679999999893
20
-99.0081729999999993
11
184.1682519999999954
21
-101.349230999999989
0
ARC
8
BLACK
10
177.7406399999999849
20
-102.8196219999999954
40
0.8999997579027452
50
85.00000942
51
175.00000942
0
ARC
8
BLACK
10
180.905713999999989
20
-101.0637949999999989
40
1.1250000335831105
50
-94.99998947
51
-5.00004021
0
ARC
8
BLACK
10
175.6996839999999906
20
-97.2370149999999995
40
2.0327366115662895
50
-94.99992366
51
-18.61453553
0
ARC
8
BLACK
10
178.5049750000000017
20
-98.1966549999999927
40
0.9322243256561159
50
85.00004345
51
160.52554866
0
CIRCLE
8
BLACK
10
173.5074669999999912
20
-105.3101539999999972
40
1.
0
CIRCLE
8
BLACK
10
178.9865379999999959
20
-105.7895109999999903
40
1.5999999999999999
0
CIRCLE
8
BLACK
10
184.4656090000000006
20
-106.2688679999999977
40
1.
0
LINE
8
BLACK
6
CONTINUOUS
10
171.6400459999999839
20
-83.0376440000000002
11
171.43522999999999
21
-85.3787019999999899
0
LINE
8
BLACK
6
CONTINUOUS
10
171.6400459999999839
20
-83.0376440000000002
11
173.7818639999999846
21
-83.2250289999999922
0
LINE
8
BLACK
6
CONTINUOUS
10
171.43522999999999
20
-85.3787019999999899
11
173.5770479999999907
21
-85.566086999999996
0
LINE
8
BLACK
6
CONTINUOUS
10
173.8171619999999962
20
-82.8215699999999941
11
174.652150000000006
21
-82.1209319999999963
0
LINE
8
BLACK
6
CONTINUOUS
10
173.7818639999999846
20
-83.2250289999999922
11
173.8171619999999962
21
-82.8215699999999941
0
LINE
8
BLACK
6
CONTINUOUS
10
173.5770479999999907
20
-85.566086999999996
11
173.5461080000000038
21
-85.9197360000000003
0
LINE
8
BLACK
6
CONTINUOUS
10
173.5461080000000038
20
-85.9197360000000003
11
174.2467460000000017
21
-86.754723999999996
0
LINE
8
BLACK
6
CONTINUOUS
10
174.652150000000006
20
-82.1209319999999963
11
177.0041659999999979
21
-82.326706999999999
0
LINE
8
BLACK
6
CONTINUOUS
10
174.2467460000000017
20
-86.754723999999996
11
177.4445309999999836
21
-87.0344939999999951
0
LINE
8
BLACK
6
CONTINUOUS
10
177.4445309999999836
20
-87.0344939999999951
11
178.2795189999999934
21
-86.3338559999999973
0
LINE
8
BLACK
6
CONTINUOUS
10
178.2795189999999934
20
-86.3338559999999973
11
178.3257119999999816
21
-85.8058719999999937
0
LINE
8
BLACK
6
CONTINUOUS
10
179.3007269999999949
20
-84.9877369999999956
11
182.2893109999999979
21
-85.2492039999999918
0
LINE
8
BLACK
6
CONTINUOUS
10
180.0678699999999992
20
-80.3326679999999982
11
183.8200980000000015
21
-80.6601589999999931
0
LINE
8
BLACK
6
CONTINUOUS
10
183.7128960000000006
20
-81.885477999999992
11
183.8200980000000015
21
-80.6601589999999931
0
LINE
8
BLACK
6
CONTINUOUS
10
183.5080799999999783
20
-84.2265359999999959
11
185.6498990000000049
21
-84.413921000000002
0
LINE
8
BLACK
6
CONTINUOUS
10
185.8547149999999988
20
-82.0728629999999981
11
183.7128960000000006
21
-81.885477999999992
0
LINE
8
BLACK
6
CONTINUOUS
10
185.8547149999999988
20
-82.0728629999999981
11
185.6498990000000049
21
-84.413921000000002
0
ARC
8
BLACK
10
179.2222869999999944
20
-85.8843119999999942
40
0.8999997579027452
50
85.00000942
51
175.00000942
0
ARC
8
BLACK
10
182.3873609999999985
20
-84.1284849999999977
40
1.1250000335831105
50
-94.99998947
51
-5.00004021
0
ARC
8
BLACK
10
177.1813310000000001
20
-80.3017049999999983
40
2.0327366115662895
50
-94.99992366
51
-18.61453553
0
ARC
8
BLACK
10
179.9866219999999828
20
-81.2613449999999915
40
0.9322243256561159
50
85.00004345
51
160.52554866
0
CIRCLE
8
BLACK
10
174.9891140000000007
20
-88.374843999999996
40
1.
0
CIRCLE
8
BLACK
10
180.4681850000000054
20
-88.8542009999999891
40
1.5999999999999999
0
CIRCLE
8
BLACK
10
185.9472559999999817
20
-89.3335579999999965
40
1.
0
LINE
8
BLACK
6
CONTINUOUS
10
184.777985000000001
20
-139.3971559999999954
11
184.5731689999999787
21
-141.7382139999999993
0
LINE
8
BLACK
6
CONTINUOUS
10
184.777985000000001
20
-139.3971559999999954
11
186.9198030000000017
21
-139.5845410000000015
0
LINE
8
BLACK
6
CONTINUOUS
10
184.5731689999999787
20
-141.7382139999999993
11
186.7149869999999794
21
-141.9255990000000054
0
LINE
8
BLACK
6
CONTINUOUS
10
186.9551009999999849
20
-139.1810820000000035
11
187.7900889999999947
21
-138.4804440000000056
0
LINE
8
BLACK
6
CONTINUOUS
10
186.9198030000000017
20
-139.5845410000000015
11
186.9551009999999849
21
-139.1810820000000035
0
LINE
8
BLACK
6
CONTINUOUS
10
186.7149869999999794
20
-141.9255990000000054
11
186.6840469999999925
21
-142.2792479999999955
0
LINE
8
BLACK
6
CONTINUOUS
10
186.6840469999999925
20
-142.2792479999999955
11
187.3846849999999904
21
-143.1142360000000053
0
LINE
8
BLACK
6
CONTINUOUS
10
187.7900889999999947
20
-138.4804440000000056
11
190.1421049999999866
21
-138.6862189999999941
0
LINE
8
BLACK
6
CONTINUOUS
10
187.3846849999999904
20
-143.1142360000000053
11
190.5824700000000007
21
-143.3940059999999903
0
LINE
8
BLACK
6
CONTINUOUS
10
190.5824700000000007
20
-143.3940059999999903
11
191.4174579999999821
21
-142.6933679999999924
0
LINE
8
BLACK
6
CONTINUOUS
10
191.4174579999999821
20
-142.6933679999999924
11
191.4636509999999987
21
-142.1653839999999889
0
LINE
8
BLACK
6
CONTINUOUS
10
192.4386659999999836
20
-141.347249000000005
11
195.4272499999999866
21
-141.6087159999999869
0
LINE
8
BLACK
6
CONTINUOUS
10
193.2058089999999879
20
-136.6921800000000076
11
196.9580369999999903
21
-137.0196709999999882
0
LINE
8
BLACK
6
CONTINUOUS
10
196.8508349999999893
20
-138.2449900000000014
11
196.9580369999999903
21
-137.0196709999999882
0
LINE
8
BLACK
6
CONTINUOUS
10
196.6460189999999955
20
-140.5860480000000052
11
198.7878379999999936
21
-140.7734329999999829
0
LINE
8
BLACK
6
CONTINUOUS
10
198.9926539999999875
20
-138.4323750000000075
11
196.8508349999999893
21
-138.2449900000000014
0
LINE
8
BLACK
6
CONTINUOUS
10
198.9926539999999875
20
-138.4323750000000075
11
198.7878379999999936
21
-140.7734329999999829
0
ARC
8
BLACK
10
192.3602259999999831
20
-142.2438239999999894
40
0.8999997579027452
50
85.00000942
51
175.00000942
0
ARC
8
BLACK
10
195.5252999999999872
20
-140.4879970000000071
40
1.1250000335831105
50
-94.99998947
51
-5.00004021
0
ARC
8
BLACK
10
190.3192699999999888
20
-136.6612169999999935
40
2.0327366115662895
50
-94.99992366
51
-18.61453553
0
ARC
8
BLACK
10
193.1245609999999999
20
-137.6208570000000009
40
0.9322243256561159
50
85.00004345
51
160.52554866
0
CIRCLE
8
BLACK
10
188.1270529999999894
20
-144.7343559999999911
40
1.
0
CIRCLE
8
BLACK
10
193.6061239999999941
20
-145.2137129999999843
40
1.5999999999999999
0
CIRCLE
8
BLACK
10
199.0851949999999988
20
-145.6930700000000058
40
1.
0
LINE
8
BLACK
6
CONTINUOUS
10
186.2596329999999796
20
-122.4618459999999942
11
186.0548169999999857
21
-124.8029039999999981
0
LINE
8
BLACK
6
CONTINUOUS
10
186.2596329999999796
20
-122.4618459999999942
11
188.4014509999999802
21
-122.6492310000000003
0
LINE
8
BLACK
6
CONTINUOUS
10
186.0548169999999857
20
-124.8029039999999981
11
188.1966349999999863
21
-124.99028899999999
0
LINE
8
BLACK
6
CONTINUOUS
10
188.4367489999999918
20
-122.2457719999999881
11
189.2717370000000017
21
-121.5451339999999902
0
LINE
8
BLACK
6
CONTINUOUS
10
188.4014509999999802
20
-122.6492310000000003
11
188.4367489999999918
21
-122.2457719999999881
0
LINE
8
BLACK
6
CONTINUOUS
10
188.1966349999999863
20
-124.99028899999999
11
188.1656949999999995
21
-125.3439379999999943
0
LINE
8
BLACK
6
CONTINUOUS
10
188.1656949999999995
20
-125.3439379999999943
11
188.8663329999999974
21
-126.1789259999999899
0
LINE
8
BLACK
6
CONTINUOUS
10
189.2717370000000017
20
-121.5451339999999902
11
191.6237529999999936
21
-121.7509089999999929
0
LINE
8
BLACK
6
CONTINUOUS
10
188.8663329999999974
20
-126.1789259999999899
11
192.0641179999999792
21
-126.4586959999999891
0
LINE
8
BLACK
6
CONTINUOUS
10
192.0641179999999792
20
-126.4586959999999891
11
192.8991059999999891
21
-125.7580579999999912
0
LINE
8
BLACK
6
CONTINUOUS
10
192.8991059999999891
20
-125.7580579999999912
11
192.9452989999999772
21
-125.2300739999999877
0
LINE
8
BLACK
6
CONTINUOUS
10
193.9203139999999905
20
-124.4119389999999896
11
196.9088979999999935
21
-124.6734059999999999
0
LINE
8
BLACK
6
CONTINUOUS
10
194.6874569999999949
20
-119.7568699999999922
11
198.4396849999999972
21
-120.0843610000000012
0
LINE
8
BLACK
6
CONTINUOUS
10
198.3324829999999963
20
-121.3096800000000002
11
198.4396849999999972
21
-120.0843610000000012
0
LINE
8
BLACK
6
CONTINUOUS
10
198.1276670000000024
20
-123.6507379999999898
11
200.2694860000000006
21
-123.838122999999996
0
LINE
8
BLACK
6
CONTINUOUS
10
200.4743019999999945
20
-121.4970649999999921
11
198.3324829999999963
21
-121.3096800000000002
0
LINE
8
BLACK
6
CONTINUOUS
10
200.4743019999999945
20
-121.4970649999999921
11
200.2694860000000006
21
-123.838122999999996
0
ARC
8
BLACK
10
193.84187399999999
20
-125.3085139999999882
40
0.8999997579027452
50
85.00000942
51
175.00000942
0
ARC
8
BLACK
10
197.0069479999999942
20
-123.5526869999999917
40
1.1250000335831105
50
-94.99998947
51
-5.00004021
0
ARC
8
BLACK
10
191.8009179999999958
20
-119.7259069999999923
40
2.0327366115662895
50
-94.99992366
51
-18.61453553
0
ARC
8
BLACK
10
194.6062089999999785
20
-120.6855469999999997
40
0.9322243256561159
50
85.00004345
51
160.52554866
0
CIRCLE
8
BLACK
10
189.6087009999999964
20
-127.7990459999999899
40
1.
0
CIRCLE
8
BLACK
10
195.0877720000000011
20
-128.2784029999999973
40
1.5999999999999999
0
CIRCLE
8
BLACK
10
200.5668429999999773
20
-128.7577599999999904
40
1.
0
LINE
8
BLACK
6
CONTINUOUS
10
187.7412799999999891
20
-105.526535999999993
11
187.5364639999999952
21
-107.8675939999999969
0
LINE
8
BLACK
6
CONTINUOUS
10
187.7412799999999891
20
-105.526535999999993
11
189.8830979999999897
21
-105.7139209999999991
0
LINE
8
BLACK
6
CONTINUOUS
10
187.5364639999999952
20
-107.8675939999999969
11
189.6782819999999958
21
-108.0549789999999888
0
LINE
8
BLACK
6
CONTINUOUS
10
189.9183960000000013
20
-105.3104620000000011
11
190.7533839999999827
21
-104.609823999999989
0
LINE
8
BLACK
6
CONTINUOUS
10
189.8830979999999897
20
-105.7139209999999991
11
189.9183960000000013
21
-105.3104620000000011
0
LINE
8
BLACK
6
CONTINUOUS
10
189.6782819999999958
20
-108.0549789999999888
11
189.6473419999999805
21
-108.4086279999999931
0
LINE
8
BLACK
6
CONTINUOUS
10
189.6473419999999805
20
-108.4086279999999931
11
190.3479799999999784
21
-109.2436159999999887
0
LINE
8
BLACK
6
CONTINUOUS
10
190.7533839999999827
20
-104.609823999999989
11
193.105400000000003
21
-104.8155989999999917
0
LINE
8
BLACK
6
CONTINUOUS
10
190.3479799999999784
20
-109.2436159999999887
11
193.5457649999999887
21
-109.5233860000000021
0
LINE
8
BLACK
6
CONTINUOUS
10
193.5457649999999887
20
-109.5233860000000021
11
194.3807529999999986
21
-108.82274799999999
0
LINE
8
BLACK
6
CONTINUOUS
10
194.3807529999999986
20
-108.82274799999999
11
194.4269459999999867
21
-108.2947640000000007
0
LINE
8
BLACK
6
CONTINUOUS
10
195.401961
20
-107.4766289999999884
11
198.390545000000003
21
-107.7380959999999988
0
LINE
8
BLACK
6
CONTINUOUS
10
196.1691040000000044
20
-102.821559999999991
11
199.9213319999999783
21
-103.149051
0
LINE
8
BLACK
6
CONTINUOUS
10
199.8141299999999774
20
-104.374369999999999
11
199.9213319999999783
21
-103.149051
0
LINE
8
BLACK
6
CONTINUOUS
10
199.6093139999999835
20
-106.7154279999999886
11
201.7511329999999816
21
-106.9028129999999948
0
LINE
8
BLACK
6
CONTINUOUS
10
201.9559490000000039
20
-104.5617549999999909
11
199.8141299999999774
21
-104.374369999999999
0
LINE
8
BLACK
6
CONTINUOUS
10
201.9559490000000039
20
-104.5617549999999909
11
201.7511329999999816
21
-106.9028129999999948
0
ARC
8
BLACK
10
195.3235209999999995
20
-108.3732040000000012
40
0.8999997579027452
50
85.00000942
51
175.00000942
0
ARC
8
BLACK
10
198.4885950000000037
20
-106.6173769999999905
40
1.1250000335831105
50
-94.99998947
51
-5.00004021
0
ARC
8
BLACK
10
193.2825650000000053
20
-102.7905969999999911
40
2.0327366115662895
50
-94.99992366
51
-18.61453553
0
ARC
8
BLACK
10
196.0878559999999879
20
-103.7502369999999985
40
0.9322243256561159
50
85.00004345
51
160.52554866
0
CIRCLE
8
BLACK
10
191.0903479999999774
20
-110.8637359999999887
40
1.
0
CIRCLE
8
BLACK
10
196.5694189999999821
20
-111.3430929999999961
40
1.5999999999999999
0
CIRCLE
8
BLACK
10
202.0484899999999868
20
-111.8224499999999892
40
1.
0
LINE
8
BLACK
6
CONTINUOUS
10
189.222927999999996
20
-88.5912259999999918
11
189.0181120000000021
21
-90.9322839999999957
0
LINE
8
BLACK
6
CONTINUOUS
10
189.222927999999996
20
-88.5912259999999918
11
191.3647459999999967
21
-88.7786109999999979
0
LINE
8
BLACK
6
CONTINUOUS
10
189.0181120000000021
20
-90.9322839999999957
11
191.1599300000000028
21
-91.1196690000000018
0
LINE
8
BLACK
6
CONTINUOUS
10
191.4000439999999799
20
-88.3751519999999999
11
192.2350319999999897
21
-87.6745140000000021
0
LINE
8
BLACK
6
CONTINUOUS
10
191.3647459999999967
20
-88.7786109999999979
11
191.4000439999999799
21
-88.3751519999999999
0
LINE
8
BLACK
6
CONTINUOUS
10
191.1599300000000028
20
-91.1196690000000018
11
191.1289899999999875
21
-91.4733179999999919
0
LINE
8
BLACK
6
CONTINUOUS
10
191.1289899999999875
20
-91.4733179999999919
11
191.8296279999999854
21
-92.3083060000000017
0
LINE
8
BLACK
6
CONTINUOUS
10
192.2350319999999897
20
-87.6745140000000021
11
194.5870479999999816
21
-87.8802889999999906
0
LINE
8
BLACK
6
CONTINUOUS
10
191.8296279999999854
20
-92.3083060000000017
11
195.0274129999999957
21
-92.5880760000000009
0
LINE
8
BLACK
6
CONTINUOUS
10
195.0274129999999957
20
-92.5880760000000009
11
195.8624009999999771
21
-91.8874379999999888
0
LINE
8
BLACK
6
CONTINUOUS
10
195.8624009999999771
20
-91.8874379999999888
11
195.9085939999999937
21
-91.3594539999999995
0
LINE
8
BLACK
6
CONTINUOUS
10
196.8836089999999786
20
-90.5413190000000014
11
199.8721929999999816
21
-90.8027859999999976
0
LINE
8
BLACK
6
CONTINUOUS
10
197.6507519999999829
20
-85.8862499999999898
11
201.4029799999999852
21
-86.2137409999999988
0
LINE
8
BLACK
6
CONTINUOUS
10
201.2957779999999843
20
-87.4390599999999978
11
201.4029799999999852
21
-86.2137409999999988
0
LINE
8
BLACK
6
CONTINUOUS
10
201.0909619999999904
20
-89.7801180000000016
11
203.2327809999999886
21
-89.9675029999999936
0
LINE
8
BLACK
6
CONTINUOUS
10
203.4375969999999825
20
-87.6264449999999897
11
201.2957779999999843
21
-87.4390599999999978
0
LINE
8
BLACK
6
CONTINUOUS
10
203.4375969999999825
20
-87.6264449999999897
11
203.2327809999999886
21
-89.9675029999999936
0
ARC
8
BLACK
10
196.805168999999978
20
-91.437894
40
0.8999997579027452
50
85.00000942
51
175.00000942
0
ARC
8
BLACK
10
199.9702429999999822
20
-89.6820669999999893
40
1.1250000335831105
50
-94.99998947
51
-5.00004021
0
ARC
8
BLACK
10
194.7642129999999838
20
-85.8552869999999899
40
2.0327366115662895
50
-94.99992366
51
-18.61453553
0
ARC
8
BLACK
10
197.5695039999999949
20
-86.8149269999999973
40
0.9322243256561159
50
85.00004345
51
160.52554866
0
CIRCLE
8
BLACK
10
192.5719959999999844
20
-93.9284260000000017
40
1.
0
CIRCLE
8
BLACK
10
198.0510669999999891
20
-94.4077829999999949
40
1.5999999999999999
0
CIRCLE
8
BLACK
10
203.5301379999999938
20
-94.8871400000000023
40
1.
0
LINE
8
BLACK
6
CONTINUOUS
10
202.3608669999999847
20
-144.9507380000000012
11
202.1560509999999908
21
-147.2917960000000051
0
LINE
8
BLACK
6
CONTINUOUS
10
202.3608669999999847
20
-144.9507380000000012
11
204.5026849999999854
21
-145.1381230000000073
0
LINE
8
BLACK
6
CONTINUOUS
10
202.1560509999999908
20
-147.2917960000000051
11
204.2978689999999915
21
-147.4791809999999828
0
LINE
8
BLACK
6
CONTINUOUS
10
204.537982999999997
20
-144.7346639999999809
11
205.3729709999999784
21
-144.034025999999983
0
LINE
8
BLACK
6
CONTINUOUS
10
204.5026849999999854
20
-145.1381230000000073
11
204.537982999999997
21
-144.7346639999999809
0
LINE
8
BLACK
6
CONTINUOUS
10
204.2978689999999915
20
-147.4791809999999828
11
204.2669290000000046
21
-147.8328300000000013
0
LINE
8
BLACK
6
CONTINUOUS
10
204.2669290000000046
20
-147.8328300000000013
11
204.9675670000000025
21
-148.6678179999999827
0
LINE
8
BLACK
6
CONTINUOUS
10
205.3729709999999784
20
-144.034025999999983
11
207.7249869999999987
21
-144.2398009999999999
0
LINE
8
BLACK
6
CONTINUOUS
10
204.9675670000000025
20
-148.6678179999999827
11
208.1653519999999844
21
-148.9475879999999961
0
LINE
8
BLACK
6
CONTINUOUS
10
208.1653519999999844
20
-148.9475879999999961
11
209.0003399999999942
21
-148.2469499999999982
0
LINE
8
BLACK
6
CONTINUOUS
10
209.0003399999999942
20
-148.2469499999999982
11
209.0465329999999824
21
-147.7189659999999947
0
LINE
8
BLACK
6
CONTINUOUS
10
210.0215479999999957
20
-146.9008309999999824
11
213.0101319999999987
21
-147.1622979999999927
0
LINE
8
BLACK
6
CONTINUOUS
10
210.788691
20
-142.2457619999999849
11
214.5409190000000024
21
-142.573252999999994
0
LINE
8
BLACK
6
CONTINUOUS
10
214.4337170000000015
20
-143.7985720000000072
11
214.5409190000000024
21
-142.573252999999994
0
LINE
8
BLACK
6
CONTINUOUS
10
214.2289009999999791
20
-146.1396299999999826
11
216.3707199999999773
21
-146.3270149999999887
0
LINE
8
BLACK
6
CONTINUOUS
10
216.5755359999999996
20
-143.9859569999999849
11
214.4337170000000015
21
-143.7985720000000072
0
LINE
8
BLACK
6
CONTINUOUS
10
216.5755359999999996
20
-143.9859569999999849
11
216.3707199999999773
21
-146.3270149999999887
0
ARC
8
BLACK
10
209.9431079999999952
20
-147.7974059999999952
40
0.8999997579027452
50
85.00000942
51
175.00000942
0
ARC
8
BLACK
10
213.1081819999999993
20
-146.0415789999999845
40
1.1250000335831105
50
-94.99998947
51
-5.00004021
0
ARC
8
BLACK
10
207.902152000000001
20
-142.2147989999999993
40
2.0327366115662895
50
-94.99992366
51
-18.61453553
0
ARC
8
BLACK
10
210.7074429999999836
20
-143.1744390000000067
40
0.9322243256561159
50
85.00004345
51
160.52554866
0
CIRCLE
8
BLACK
10
205.7099350000000015
20
-150.2879379999999969
40
1.
0
CIRCLE
8
BLACK
10
211.1890059999999778
20
-150.7672949999999901
40
1.5999999999999999
0
CIRCLE
8
BLACK
10
216.6680769999999825
20
-151.2466519999999832
40
1.
0
LINE
8
BLACK
6
CONTINUOUS
10
203.8425139999999942
20
-128.0154279999999858
11
203.6376980000000003
21
-130.3564859999999896
0
LINE
8
BLACK
6
CONTINUOUS
10
203.8425139999999942
20
-128.0154279999999858
11
205.9843319999999949
21
-128.2028129999999919
0
LINE
8
BLACK
6
CONTINUOUS
10
203.6376980000000003
20
-130.3564859999999896
11
205.779516000000001
21
-130.5438709999999958
0
LINE
8
BLACK
6
CONTINUOUS
10
206.0196299999999781
20
-127.7993539999999939
11
206.8546179999999879
21
-127.098715999999996
0
LINE
8
BLACK
6
CONTINUOUS
10
205.9843319999999949
20
-128.2028129999999919
11
206.0196299999999781
21
-127.7993539999999939
0
LINE
8
BLACK
6
CONTINUOUS
10
205.779516000000001
20
-130.5438709999999958
11
205.7485759999999857
21
-130.8975199999999859
0
LINE
8
BLACK
6
CONTINUOUS
10
205.7485759999999857
20
-130.8975199999999859
11
206.4492139999999836
21
-131.7325079999999957
0
LINE
8
BLACK
6
CONTINUOUS
10
206.8546179999999879
20
-127.098715999999996
11
209.2066339999999798
21
-127.3044909999999987
0
LINE
8
BLACK
6
CONTINUOUS
10
206.4492139999999836
20
-131.7325079999999957
11
209.6469989999999939
21
-132.0122779999999807
0
LINE
8
BLACK
6
CONTINUOUS
10
209.6469989999999939
20
-132.0122779999999807
11
210.4819870000000037
21
-131.3116399999999828
0
LINE
8
BLACK
6
CONTINUOUS
10
210.4819870000000037
20
-131.3116399999999828
11
210.5281799999999919
21
-130.7836560000000077
0
LINE
8
BLACK
6
CONTINUOUS
10
211.5031949999999767
20
-129.9655209999999954
11
214.4917789999999798
21
-130.2269880000000057
0
LINE
8
BLACK
6
CONTINUOUS
10
212.2703379999999811
20
-125.310451999999998
11
216.0225659999999834
21
-125.6379429999999928
0
LINE
8
BLACK
6
CONTINUOUS
10
215.9153639999999825
20
-126.8632619999999918
11
216.0225659999999834
21
-125.6379429999999928
0
LINE
8
BLACK
6
CONTINUOUS
10
215.7105479999999886
20
-129.2043199999999956
11
217.8523669999999868
21
-129.3917050000000017
0
LINE
8
BLACK
6
CONTINUOUS
10
218.0571829999999807
20
-127.0506469999999979
11
215.9153639999999825
21
-126.8632619999999918
0
LINE
8
BLACK
6
CONTINUOUS
10
218.0571829999999807
20
-127.0506469999999979
11
217.8523669999999868
21
-129.3917050000000017
0
ARC
8
BLACK
10
211.4247549999999762
20
-130.8620960000000082
40
0.8999997579027452
50
85.00000942
51
175.00000942
0
ARC
8
BLACK
10
214.5898289999999804
20
-129.1062689999999975
40
1.1250000335831105
50
-94.99998947
51
-5.00004021
0
ARC
8
BLACK
10
209.383798999999982
20
-125.2794889999999981
40
2.0327366115662895
50
-94.99992366
51
-18.61453553
0
ARC
8
BLACK
10
212.1890899999999931
20
-126.2391289999999913
40
0.9322243256561159
50
85.00004345
51
160.52554866
0
CIRCLE
8
BLACK
10
207.1915819999999826
20
-133.3526279999999815
40
1.
0
CIRCLE
8
BLACK
10
212.6706529999999873
20
-133.8319850000000031
40
1.5999999999999999
0
CIRCLE
8
BLACK
10
218.149723999999992
20
-134.3113419999999962
40
1.
0
LINE
8
BLACK
6
CONTINUOUS
10
205.3241620000000012
20
-111.0801179999999988
11
205.1193459999999789
21
-113.4211759999999884
0
LINE
8
BLACK
6
CONTINUOUS
10
205.3241620000000012
20
-111.0801179999999988
11
207.4659800000000018
21
-111.2675029999999907
0
LINE
8
BLACK
6
CONTINUOUS
10
205.1193459999999789
20
-113.4211759999999884
11
207.2611639999999795
21
-113.6085609999999946
0
LINE
8
BLACK
6
CONTINUOUS
10
207.501277999999985
20
-110.8640439999999927
11
208.3362659999999948
21
-110.1634059999999948
0
LINE
8
BLACK
6
CONTINUOUS
10
207.4659800000000018
20
-111.2675029999999907
11
207.501277999999985
21
-110.8640439999999927
0
LINE
8
BLACK
6
CONTINUOUS
10
207.2611639999999795
20
-113.6085609999999946
11
207.2302239999999927
21
-113.9622099999999989
0
LINE
8
BLACK
6
CONTINUOUS
10
207.2302239999999927
20
-113.9622099999999989
11
207.9308619999999905
21
-114.7971979999999945
0
LINE
8
BLACK
6
CONTINUOUS
10
208.3362659999999948
20
-110.1634059999999948
11
210.6882819999999867
21
-110.3691809999999975
0
LINE
8
BLACK
6
CONTINUOUS
10
207.9308619999999905
20
-114.7971979999999945
11
211.1286470000000008
21
-115.0769679999999937
0
LINE
8
BLACK
6
CONTINUOUS
10
211.1286470000000008
20
-115.0769679999999937
11
211.9636349999999823
21
-114.3763299999999958
0
LINE
8
BLACK
6
CONTINUOUS
10
211.9636349999999823
20
-114.3763299999999958
11
212.0098279999999988
21
-113.8483459999999923
0
LINE
8
BLACK
6
CONTINUOUS
10
212.9848429999999837
20
-113.0302109999999942
11
215.9734269999999867
21
-113.2916779999999903
0
LINE
8
BLACK
6
CONTINUOUS
10
213.7519859999999881
20
-108.3751419999999968
11
217.5042139999999904
21
-108.7026329999999916
0
LINE
8
BLACK
6
CONTINUOUS
10
217.3970119999999895
20
-109.9279519999999906
11
217.5042139999999904
21
-108.7026329999999916
0
LINE
8
BLACK
6
CONTINUOUS
10
217.1921959999999956
20
-112.2690099999999944
11
219.3340149999999937
21
-112.4563950000000006
0
LINE
8
BLACK
6
CONTINUOUS
10
219.5388309999999876
20
-110.1153369999999967
11
217.3970119999999895
21
-109.9279519999999906
0
LINE
8
BLACK
6
CONTINUOUS
10
219.5388309999999876
20
-110.1153369999999967
11
219.3340149999999937
21
-112.4563950000000006
0
ARC
8
BLACK
10
212.9064029999999832
20
-113.9267859999999928
40
0.8999997579027452
50
85.00000942
51
175.00000942
0
ARC
8
BLACK
10
216.0714769999999874
20
-112.1709589999999963
40
1.1250000335831105
50
-94.99998947
51
-5.00004021
0
ARC
8
BLACK
10
210.865446999999989
20
-108.3441789999999969
40
2.0327366115662895
50
-94.99992366
51
-18.61453553
0
ARC
8
BLACK
10
213.6707380000000001
20
-109.3038189999999901
40
0.9322243256561159
50
85.00004345
51
160.52554866
0
CIRCLE
8
BLACK
10
208.6732299999999896
20
-116.4173179999999945
40
1.
0
CIRCLE
8
BLACK
10
214.1523009999999942
20
-116.8966749999999877
40
1.5999999999999999
0
CIRCLE
8
BLACK
10
219.6313719999999989
20
-117.376031999999995
40
1.
0
LINE
8
BLACK
6
CONTINUOUS
10
206.8058089999999822
20
-94.1448079999999976
11
206.6009929999999883
21
-96.4858660000000015
0
LINE
8
BLACK
6
CONTINUOUS
10
206.8058089999999822
20
-94.1448079999999976
11
208.9476269999999829
21
-94.3321929999999895
0
LINE
8
BLACK
6
CONTINUOUS
10
206.6009929999999883
20
-96.4858660000000015
11
208.742810999999989
21
-96.6732509999999934
0
LINE
8
BLACK
6
CONTINUOUS
10
208.9829249999999945
20
-93.9287339999999915
11
209.8179130000000043
21
-93.2280959999999936
0
LINE
8
BLACK
6
CONTINUOUS
10
208.9476269999999829
20
-94.3321929999999895
11
208.9829249999999945
21
-93.9287339999999915
0
LINE
8
BLACK
6
CONTINUOUS
10
208.742810999999989
20
-96.6732509999999934
11
208.7118710000000021
21
-97.0268999999999977
0
LINE
8
BLACK
6
CONTINUOUS
10
208.7118710000000021
20
-97.0268999999999977
11
209.412509
21
-97.8618879999999933
0
LINE
8
BLACK
6
CONTINUOUS
10
209.8179130000000043
20
-93.2280959999999936
11
212.1699289999999962
21
-93.4338709999999963
0
LINE
8
BLACK
6
CONTINUOUS
10
209.412509
20
-97.8618879999999933
11
212.6102939999999819
21
-98.1416579999999925
0
LINE
8
BLACK
6
CONTINUOUS
10
212.6102939999999819
20
-98.1416579999999925
11
213.4452819999999917
21
-97.4410199999999946
0
LINE
8
BLACK
6
CONTINUOUS
10
213.4452819999999917
20
-97.4410199999999946
11
213.4914749999999799
21
-96.9130359999999911
0
LINE
8
BLACK
6
CONTINUOUS
10
214.4664899999999932
20
-96.094900999999993
11
217.4550739999999962
21
-96.3563679999999891
0
LINE
8
BLACK
6
CONTINUOUS
10
215.2336329999999975
20
-91.4398319999999956
11
218.9858609999999999
21
-91.7673229999999904
0
LINE
8
BLACK
6
CONTINUOUS
10
218.878658999999999
20
-92.9926419999999894
11
218.9858609999999999
21
-91.7673229999999904
0
LINE
8
BLACK
6
CONTINUOUS
10
218.6738429999999767
20
-95.3336999999999932
11
220.8156620000000032
21
-95.5210849999999994
0
LINE
8
BLACK
6
CONTINUOUS
10
221.0204779999999971
20
-93.1800269999999955
11
218.878658999999999
21
-92.9926419999999894
0
LINE
8
BLACK
6
CONTINUOUS
10
221.0204779999999971
20
-93.1800269999999955
11
220.8156620000000032
21
-95.5210849999999994
0
ARC
8
BLACK
10
214.3880499999999927
20
-96.9914759999999916
40
0.8999997579027452
50
85.00000942
51
175.00000942
0
ARC
8
BLACK
10
217.5531239999999968
20
-95.2356489999999951
40
1.1250000335831105
50
-94.99998947
51
-5.00004021
0
ARC
8
BLACK
10
212.3470939999999985
20
-91.4088689999999957
40
2.0327366115662895
50
-94.99992366
51
-18.61453553
0
ARC
8
BLACK
10
215.1523849999999811
20
-92.3685089999999889
40
0.9322243256561159
50
85.00004345
51
160.52554866
0
CIRCLE
8
BLACK
10
210.154876999999999
20
-99.4820079999999933
40
1.
0
CIRCLE
8
BLACK
10
215.6339480000000037
20
-99.9613650000000007
40
1.5999999999999999
0
CIRCLE
8
BLACK
10
221.11301899999998
20
-100.4407219999999938
40
1.
0
LINE
8
BLACK
6
CONTINUOUS
10
179.8456209999999942
20
-161.5125819999999806
11
179.2373969999999872
21
-163.7825079999999787
0
LINE
8
BLACK
6
CONTINUOUS
10
179.8456209999999942
20
-161.5125819999999806
11
181.9223619999999926
21
-162.0690429999999935
0
LINE
8
BLACK
6
CONTINUOUS
10
179.2373969999999872
20
-163.7825079999999787
11
181.3141369999999881
21
-164.3389689999999916
0
LINE
8
BLACK
6
CONTINUOUS
10
182.0271840000000054
20
-161.6778429999999958
11
182.9711509999999919
21
-161.1328440000000057
0
LINE
8
BLACK
6
CONTINUOUS
10
181.9223619999999926
20
-162.0690429999999935
11
182.0271840000000054
21
-161.6778429999999958
0
LINE
8
BLACK
6
CONTINUOUS
10
181.3141369999999881
20
-164.3389689999999916
11
181.2222559999999874
21
-164.681872999999996
0
LINE
8
BLACK
6
CONTINUOUS
10
181.2222559999999874
20
-164.681872999999996
11
181.7672560000000033
21
-165.6258399999999824
0
LINE
8
BLACK
6
CONTINUOUS
10
182.9711509999999919
20
-161.1328440000000057
11
185.2517019999999945
21
-161.743914999999987
0
LINE
8
BLACK
6
CONTINUOUS
10
181.7672560000000033
20
-165.6258399999999824
11
184.8678779999999904
21
-166.4566489999999988
0
LINE
8
BLACK
6
CONTINUOUS
10
184.8678779999999904
20
-166.4566489999999988
11
185.8118450000000053
21
-165.9116489999999828
0
LINE
8
BLACK
6
CONTINUOUS
10
185.8118450000000053
20
-165.9116489999999828
11
185.9490189999999927
21
-165.3997090000000014
0
LINE
8
BLACK
6
CONTINUOUS
10
187.0512899999999945
20
-164.7633129999999824
11
189.9490669999999852
21
-165.5397700000000043
0
LINE
8
BLACK
6
CONTINUOUS
10
188.6151229999999828
20
-160.3121779999999887
11
192.2534770000000037
21
-161.2862599999999986
0
LINE
8
BLACK
6
CONTINUOUS
10
191.9351299999999867
20
-162.4743489999999895
11
192.2534770000000037
21
-161.2862599999999986
0
LINE
8
BLACK
6
CONTINUOUS
10
191.3269049999999822
20
-164.7442749999999876
11
193.4036459999999806
21
-165.3007360000000006
0
LINE
8
BLACK
6
CONTINUOUS
10
194.0118699999999876
20
-163.0308100000000024
11
191.9351299999999867
21
-162.4743489999999895
0
LINE
8
BLACK
6
CONTINUOUS
10
194.0118699999999876
20
-163.0308100000000024
11
193.4036459999999806
21
-165.3007360000000006
0
ARC
8
BLACK
10
186.8183530000000019
20
-165.632645999999994
40
0.9000006941802878
50
75.00000463
51
165.00002111
0
ARC
8
BLACK
10
190.2402390000000025
20
-164.4531029999999987
40
1.1249996129510444
50
-105.00002238
51
-15.00003556
0
ARC
8
BLACK
10
185.7778129999999805
20
-159.7804419999999936
40
2.0327371961207872
50
-104.99991090
51
-28.61452007
0
ARC
8
BLACK
10
188.3738449999999887
20
-161.2126370000000009
40
0.9322234422304557
50
74.99995618
51
150.52547424
0
CIRCLE
8
BLACK
10
182.2170150000000035
20
-167.3502579999999966
40
1.
0
CIRCLE
8
BLACK
10
187.5296069999999986
20
-168.7737630000000024
40
1.5999999999999999
0
CIRCLE
8
BLACK
10
192.8421989999999937
20
-170.1972679999999798
40
1.
0
LINE
8
BLACK
6
CONTINUOUS
10
201.1704819999999927
20
-168.1052799999999934
11
200.1773289999999861
21
-170.235102999999981
0
LINE
8
BLACK
6
CONTINUOUS
10
201.1704819999999927
20
-168.1052799999999934
11
203.1190440000000024
21
-169.013908999999984
0
LINE
8
BLACK
6
CONTINUOUS
10
200.1773289999999861
20
-170.235102999999981
11
202.1258909999999958
21
-171.1437329999999974
0
LINE
8
BLACK
6
CONTINUOUS
10
203.2902039999999886
20
-168.646854999999988
11
204.3144690000000026
21
-168.2740529999999808
0
LINE
8
BLACK
6
CONTINUOUS
10
203.1190440000000024
20
-169.013908999999984
11
203.2902039999999886
21
-168.646854999999988
0
LINE
8
BLACK
6
CONTINUOUS
10
202.1258909999999958
20
-171.1437329999999974
11
201.9758609999999805
21
-171.4654720000000054
0
LINE
8
BLACK
6
CONTINUOUS
10
201.9758609999999805
20
-171.4654720000000054
11
202.3486629999999877
21
-172.4897359999999935
0
LINE
8
BLACK
6
CONTINUOUS
10
204.3144690000000026
20
-168.2740529999999808
11
206.4542610000000025
21
-169.271854999999988
0
LINE
8
BLACK
6
CONTINUOUS
10
202.3486629999999877
20
-172.4897359999999935
11
205.2579109999999787
21
-173.8463409999999953
0
LINE
8
BLACK
6
CONTINUOUS
10
205.2579109999999787
20
-173.8463409999999953
11
206.2821759999999927
21
-173.4735389999999882
0
LINE
8
BLACK
6
CONTINUOUS
10
206.2821759999999927
20
-173.4735389999999882
11
206.5061629999999866
21
-172.9931959999999833
0
LINE
8
BLACK
6
CONTINUOUS
10
207.702196999999984
20
-172.5578749999999957
11
210.4211200000000019
21
-173.825729999999993
0
LINE
8
BLACK
6
CONTINUOUS
10
210.0152029999999854
20
-168.445920000000001
11
213.4291350000000023
21
-170.0369979999999828
0
LINE
8
BLACK
6
CONTINUOUS
10
212.9093149999999923
20
-171.151756000000006
11
213.4291350000000023
21
-170.0369979999999828
0
LINE
8
BLACK
6
CONTINUOUS
10
211.9161619999999857
20
-173.2815789999999936
11
213.8647239999999954
21
-174.1902089999999816
0
LINE
8
BLACK
6
CONTINUOUS
10
214.857877000000002
20
-172.0603849999999966
11
212.9093149999999923
21
-171.151756000000006
0
LINE
8
BLACK
6
CONTINUOUS
10
214.857877000000002
20
-172.0603849999999966
11
213.8647239999999954
21
-174.1902089999999816
0
ARC
8
BLACK
10
207.3218399999999804
20
-173.3735519999999894
40
0.8999998083694241
50
64.99996721
51
155.00002491
0
ARC
8
BLACK
10
210.8965659999999787
20
-172.8061339999999859
40
1.1249995338847922
50
-115.00002663
51
-24.99998047
0
ARC
8
BLACK
10
207.3133330000000001
20
-167.4295689999999865
40
2.0327370798536637
50
-114.99990965
51
-38.61452933
0
ARC
8
BLACK
10
209.6212280000000021
20
-169.2908019999999851
40
0.9322240470455586
50
64.99999704
51
140.52551681
0
CIRCLE
8
BLACK
10
202.4921469999999886
20
-174.2660569999999893
40
1.0000009999999999
0
CIRCLE
8
BLACK
10
207.4768399999999815
20
-176.5904569999999865
40
1.5999989999999999
0
CIRCLE
8
BLACK
10
212.4615330000000029
20
-178.9148569999999836
40
1.
0
LINE
8
BLACK
6
CONTINUOUS
10
222.615257999999983
20
-179.8166279999999801
11
221.104707999999988
21
-181.6168319999999881
0
LINE
8
BLACK
6
CONTINUOUS
10
222.615257999999983
20
-179.8166279999999801
11
224.2622539999999844
21
-181.1986210000000028
0
LINE
8
BLACK
6
CONTINUOUS
10
221.104707999999988
20
-181.6168319999999881
11
222.751702999999992
21
-182.9988259999999798
0
LINE
8
BLACK
6
CONTINUOUS
10
224.5225829999999974
20
-180.8883730000000014
11
225.6084349999999858
21
-180.793374
0
LINE
8
BLACK
6
CONTINUOUS
10
224.2622539999999844
20
-181.1986210000000028
11
224.5225829999999974
21
-180.8883730000000014
0
LINE
8
BLACK
6
CONTINUOUS
10
222.751702999999992
20
-182.9988259999999798
11
222.5235139999999774
21
-183.2707709999999963
0
LINE
8
BLACK
6
CONTINUOUS
10
222.5235139999999774
20
-183.2707709999999963
11
222.6185129999999788
21
-184.3566229999999848
0
LINE
8
BLACK
6
CONTINUOUS
10
225.6084349999999858
20
-180.793374
11
227.4170659999999771
21
-182.3109949999999913
0
LINE
8
BLACK
6
CONTINUOUS
10
222.6185129999999788
20
-184.3566229999999848
11
225.0775160000000028
21
-186.4199710000000039
0
LINE
8
BLACK
6
CONTINUOUS
10
225.0775160000000028
20
-186.4199710000000039
11
226.1633679999999913
21
-186.3249720000000025
0
LINE
8
BLACK
6
CONTINUOUS
10
226.1633679999999913
20
-186.3249720000000025
11
226.5040449999999908
21
-185.9189679999999782
0
LINE
8
BLACK
6
CONTINUOUS
10
227.7719939999999781
20
-185.8080369999999846
11
230.0701269999999852
21
-187.7364000000000033
0
LINE
8
BLACK
6
CONTINUOUS
10
231.0704389999999933
20
-182.4348430000000008
11
233.9562430000000006
21
-184.8552969999999789
0
LINE
8
BLACK
6
CONTINUOUS
10
233.1656139999999766
20
-185.7975309999999922
11
233.9562430000000006
21
-184.8552969999999789
0
LINE
8
BLACK
6
CONTINUOUS
10
231.6550629999999842
20
-187.5977359999999976
11
233.3020589999999856
21
-188.9797289999999919
0
LINE
8
BLACK
6
CONTINUOUS
10
234.8126099999999781
20
-187.1795249999999839
11
233.1656139999999766
21
-185.7975309999999922
0
LINE
8
BLACK
6
CONTINUOUS
10
234.8126099999999781
20
-187.1795249999999839
11
233.3020589999999856
21
-188.9797289999999919
0
ARC
8
BLACK
10
227.1934849999999813
20
-186.4974770000000035
40
0.9000000981561057
50
49.99999267
51
139.99999267
0
ARC
8
BLACK
10
230.7932629999999961
20
-186.8745999999999867
40
1.1249999619982214
50
-129.99999758
51
-39.99999758
0
ARC
8
BLACK
10
228.7236839999999916
20
-180.7538279999999986
40
2.0327370500753412
50
-129.99991507
51
-53.61451599
0
ARC
8
BLACK
10
230.4712169999999958
20
-183.1489679999999964
40
0.9322240129378774
50
50.00000114
51
125.52550315
0
CIRCLE
8
BLACK
10
222.2973629999999901
20
-186.1095530000000053
40
1.
0
CIRCLE
8
BLACK
10
226.5106069999999931
20
-189.6448849999999879
40
1.5999999999999999
0
CIRCLE
8
BLACK
10
230.7238509999999962
20
-193.180216999999999
40
1.
  0
ENDSEC
  0
EOF
