  0
SECTION
  2
HEADER
  9
$ANGBASE
  50
0.0
  9
$ANGDIR
  70
1
  9
$MEASUREMENT
  70
1
  0
ENDSEC
  0
SECTION
  2
TABLES
  0
TABLE
  2
LTYPE
  70
4
  0
LTYPE
  5
40F
  2
CONTINUOUS
  70
0
  3
Solid line
  72
65
  73
0
  40
0.0
  0
LTYPE
  5
410
  2
DASHDOT
 70
0
  3
Dash Dot ____ _ ____ _
 72
65
 73
4
 40
2.0
 49
1.25
 49
-0.25
 49
0.25
 49
-0.25
  0
LTYPE
  5
411
  2
DASHED
 70
0
  3
Dashed __ __ __ __ __
 72
65
 73
2
 40
0.75
 49
0.5
 49
-0.25
  0
LTYPE
  5
43B
  2
DOTTED
 70
0
  3
Dotted .  .  .  .
 72
65
 73
2
 40
0.2
 49
0.0
 49
-0.2
  0
ENDTAB
  0
TABLE
  2
STYLE
  70
4
  0
STYLE
  2
KICAD
  70
0
  40
0
  41
1
  42
1
  50
0
  71
0
  3
isocp.shx
  0
STYLE
  2
KICADB
  70
0
  40
0
  41
1
  42
1
  50
0
  71
0
  3
isocp.shx
  0
STYLE
  2
KICADI
  70
0
  40
0
  41
1
  42
1
  50
15
  71
0
  3
isocp.shx
  0
STYLE
  2
KICADBI
  70
0
  40
0
  41
1
  42
1
  50
15
  71
0
  3
isocp.shx
  0
ENDTAB
  0
TABLE
  2
LAYER
  70
1
  0
LAYER
  2
BLACK
  70
0
  62
7
  6
CONTINUOUS
  0
ENDTAB
  0
ENDSEC
  0
SECTION
  2
ENTITIES
0
LINE
8
BLACK
6
CONTINUOUS
10
115.2249999999999943
20
-142.7750000000000057
11
115.2249999999999943
21
-145.125
0
LINE
8
BLACK
6
CONTINUOUS
10
115.2249999999999943
20
-142.7750000000000057
11
117.375
21
-142.7750000000000057
0
LINE
8
BLACK
6
CONTINUOUS
10
117.375
20
-142.7750000000000057
11
117.375
21
-141.5449999999999875
0
LINE
8
BLACK
6
CONTINUOUS
10
117.375
20
-145.125
11
115.2249999999999943
21
-145.125
0
LINE
8
BLACK
6
CONTINUOUS
10
121.1414919999999995
20
-141.5457839999999976
11
117.375
21
-141.5449999999999875
0
LINE
8
BLACK
6
CONTINUOUS
10
121.5
20
-146.25
11
118.5
21
-146.25
0
LINE
8
BLACK
6
CONTINUOUS
10
122.3999999999999915
20
-147.6800000000000068
11
122.3999999999999915
21
-147.1500000000000057
0
LINE
8
BLACK
6
CONTINUOUS
10
123.1707459999999941
20
-148.450745999999981
11
122.3999999999999915
21
-147.6800000000000068
0
LINE
8
BLACK
6
CONTINUOUS
10
126.3807459999999878
20
-143.7992539999999906
11
124.0197459999999978
21
-143.7992539999999906
0
LINE
8
BLACK
6
CONTINUOUS
10
126.3807459999999878
20
-148.450745999999981
11
123.1707459999999941
21
-148.450745999999981
0
LINE
8
BLACK
6
CONTINUOUS
10
127.1514919999999904
20
-144.5699999999999932
11
126.3807459999999878
21
-143.7992539999999906
0
LINE
8
BLACK
6
CONTINUOUS
10
127.1514919999999904
20
-144.9749999999999943
11
127.1514919999999904
21
-144.5699999999999932
0
LINE
8
BLACK
6
CONTINUOUS
10
127.1514919999999904
20
-147.3249999999999886
11
127.1514919999999904
21
-147.6800000000000068
0
LINE
8
BLACK
6
CONTINUOUS
10
127.1514919999999904
20
-147.6800000000000068
11
126.3807459999999878
21
-148.450745999999981
0
LINE
8
BLACK
6
CONTINUOUS
10
129.3014919999999961
20
-144.9749999999999943
11
127.1514919999999904
21
-144.9749999999999943
0
LINE
8
BLACK
6
CONTINUOUS
10
129.3014919999999961
20
-144.9749999999999943
11
129.3014919999999961
21
-147.3249999999999886
0
LINE
8
BLACK
6
CONTINUOUS
10
129.3014919999999961
20
-147.3249999999999886
11
127.1514919999999904
21
-147.3249999999999886
0
ARC
8
BLACK
10
117.375
20
-146.25
40
1.125
50
0.00000000
51
90.00000000
0
ARC
8
BLACK
10
121.5
20
-147.1500000000000057
40
0.8999999999999999
50
0.00000000
51
90.00000000
0
ARC
8
BLACK
10
124.0197459999999978
20
-141.7665169999999932
40
2.032737
50
-166.38538515
51
-90.00000000
0
ARC
8
BLACK
10
121.1414919999999995
20
-142.4780079999999884
40
0.9322239999999999
50
14.47453095
51
90.00000000
0
CIRCLE
8
BLACK
10
114.5
20
-150.
40
1.
0
CIRCLE
8
BLACK
10
120.
20
-150.
40
1.5999999999999999
0
CIRCLE
8
BLACK
10
125.5
20
-150.
40
1.
0
LINE
8
BLACK
6
CONTINUOUS
10
115.2249999999999943
20
-125.7749999999999915
11
115.2249999999999943
21
-128.125
0
LINE
8
BLACK
6
CONTINUOUS
10
115.2249999999999943
20
-125.7749999999999915
11
117.375
21
-125.7749999999999915
0
LINE
8
BLACK
6
CONTINUOUS
10
117.375
20
-125.7749999999999915
11
117.375
21
-124.5449999999999875
0
LINE
8
BLACK
6
CONTINUOUS
10
117.375
20
-128.125
11
115.2249999999999943
21
-128.125
0
LINE
8
BLACK
6
CONTINUOUS
10
121.1414919999999995
20
-124.5457839999999976
11
117.375
21
-124.5449999999999875
0
LINE
8
BLACK
6
CONTINUOUS
10
121.5
20
-129.25
11
118.5
21
-129.25
0
LINE
8
BLACK
6
CONTINUOUS
10
122.3999999999999915
20
-130.6800000000000068
11
122.3999999999999915
21
-130.1500000000000057
0
LINE
8
BLACK
6
CONTINUOUS
10
123.1707459999999941
20
-131.450745999999981
11
122.3999999999999915
21
-130.6800000000000068
0
LINE
8
BLACK
6
CONTINUOUS
10
126.3807459999999878
20
-126.7992539999999906
11
124.0197459999999978
21
-126.7992539999999906
0
LINE
8
BLACK
6
CONTINUOUS
10
126.3807459999999878
20
-131.450745999999981
11
123.1707459999999941
21
-131.450745999999981
0
LINE
8
BLACK
6
CONTINUOUS
10
127.1514919999999904
20
-127.5699999999999932
11
126.3807459999999878
21
-126.7992539999999906
0
LINE
8
BLACK
6
CONTINUOUS
10
127.1514919999999904
20
-127.9749999999999943
11
127.1514919999999904
21
-127.5699999999999932
0
LINE
8
BLACK
6
CONTINUOUS
10
127.1514919999999904
20
-130.3249999999999886
11
127.1514919999999904
21
-130.6800000000000068
0
LINE
8
BLACK
6
CONTINUOUS
10
127.1514919999999904
20
-130.6800000000000068
11
126.3807459999999878
21
-131.450745999999981
0
LINE
8
BLACK
6
CONTINUOUS
10
129.3014919999999961
20
-127.9749999999999943
11
127.1514919999999904
21
-127.9749999999999943
0
LINE
8
BLACK
6
CONTINUOUS
10
129.3014919999999961
20
-127.9749999999999943
11
129.3014919999999961
21
-130.3249999999999886
0
LINE
8
BLACK
6
CONTINUOUS
10
129.3014919999999961
20
-130.3249999999999886
11
127.1514919999999904
21
-130.3249999999999886
0
ARC
8
BLACK
10
117.375
20
-129.25
40
1.125
50
0.00000000
51
90.00000000
0
ARC
8
BLACK
10
121.5
20
-130.1500000000000057
40
0.8999999999999999
50
0.00000000
51
90.00000000
0
ARC
8
BLACK
10
124.0197459999999978
20
-124.7665169999999932
40
2.032737
50
-166.38538515
51
-90.00000000
0
ARC
8
BLACK
10
121.1414919999999995
20
-125.4780079999999884
40
0.9322239999999999
50
14.47453095
51
90.00000000
0
CIRCLE
8
BLACK
10
114.5
20
-133.
40
1.
0
CIRCLE
8
BLACK
10
120.
20
-133.
40
1.5999999999999999
0
CIRCLE
8
BLACK
10
125.5
20
-133.
40
1.
0
LINE
8
BLACK
6
CONTINUOUS
10
115.2249999999999943
20
-108.7749999999999915
11
115.2249999999999943
21
-111.125
0
LINE
8
BLACK
6
CONTINUOUS
10
115.2249999999999943
20
-108.7749999999999915
11
117.375
21
-108.7749999999999915
0
LINE
8
BLACK
6
CONTINUOUS
10
117.375
20
-108.7749999999999915
11
117.375
21
-107.5450000000000017
0
LINE
8
BLACK
6
CONTINUOUS
10
117.375
20
-111.125
11
115.2249999999999943
21
-111.125
0
LINE
8
BLACK
6
CONTINUOUS
10
121.1414919999999995
20
-107.5457839999999976
11
117.375
21
-107.5450000000000017
0
LINE
8
BLACK
6
CONTINUOUS
10
121.5
20
-112.25
11
118.5
21
-112.25
0
LINE
8
BLACK
6
CONTINUOUS
10
122.3999999999999915
20
-113.6799999999999926
11
122.3999999999999915
21
-113.1499999999999915
0
LINE
8
BLACK
6
CONTINUOUS
10
123.1707459999999941
20
-114.4507459999999952
11
122.3999999999999915
21
-113.6799999999999926
0
LINE
8
BLACK
6
CONTINUOUS
10
126.3807459999999878
20
-109.7992539999999906
11
124.0197459999999978
21
-109.7992539999999906
0
LINE
8
BLACK
6
CONTINUOUS
10
126.3807459999999878
20
-114.4507459999999952
11
123.1707459999999941
21
-114.4507459999999952
0
LINE
8
BLACK
6
CONTINUOUS
10
127.1514919999999904
20
-110.5699999999999932
11
126.3807459999999878
21
-109.7992539999999906
0
LINE
8
BLACK
6
CONTINUOUS
10
127.1514919999999904
20
-110.9749999999999943
11
127.1514919999999904
21
-110.5699999999999932
0
LINE
8
BLACK
6
CONTINUOUS
10
127.1514919999999904
20
-113.3249999999999886
11
127.1514919999999904
21
-113.6799999999999926
0
LINE
8
BLACK
6
CONTINUOUS
10
127.1514919999999904
20
-113.6799999999999926
11
126.3807459999999878
21
-114.4507459999999952
0
LINE
8
BLACK
6
CONTINUOUS
10
129.3014919999999961
20
-110.9749999999999943
11
127.1514919999999904
21
-110.9749999999999943
0
LINE
8
BLACK
6
CONTINUOUS
10
129.3014919999999961
20
-110.9749999999999943
11
129.3014919999999961
21
-113.3249999999999886
0
LINE
8
BLACK
6
CONTINUOUS
10
129.3014919999999961
20
-113.3249999999999886
11
127.1514919999999904
21
-113.3249999999999886
0
ARC
8
BLACK
10
117.375
20
-112.25
40
1.125
50
0.00000000
51
90.00000000
0
ARC
8
BLACK
10
121.5
20
-113.1499999999999915
40
0.8999999999999999
50
0.00000000
51
90.00000000
0
ARC
8
BLACK
10
124.0197459999999978
20
-107.7665169999999932
40
2.032737
50
-166.38538515
51
-90.00000000
0
ARC
8
BLACK
10
121.1414919999999995
20
-108.4780079999999884
40
0.9322239999999999
50
14.47453095
51
90.00000000
0
CIRCLE
8
BLACK
10
114.5
20
-116.
40
1.
0
CIRCLE
8
BLACK
10
120.
20
-116.
40
1.5999999999999999
0
CIRCLE
8
BLACK
10
125.5
20
-116.
40
1.
0
LINE
8
BLACK
6
CONTINUOUS
10
115.2249999999999943
20
-91.7749999999999915
11
115.2249999999999943
21
-94.125
0
LINE
8
BLACK
6
CONTINUOUS
10
115.2249999999999943
20
-91.7749999999999915
11
117.375
21
-91.7749999999999915
0
LINE
8
BLACK
6
CONTINUOUS
10
117.375
20
-91.7749999999999915
11
117.375
21
-90.5450000000000017
0
LINE
8
BLACK
6
CONTINUOUS
10
117.375
20
-94.125
11
115.2249999999999943
21
-94.125
0
LINE
8
BLACK
6
CONTINUOUS
10
121.1414919999999995
20
-90.5457839999999976
11
117.375
21
-90.5450000000000017
0
LINE
8
BLACK
6
CONTINUOUS
10
121.5
20
-95.25
11
118.5
21
-95.25
0
LINE
8
BLACK
6
CONTINUOUS
10
122.3999999999999915
20
-96.6799999999999926
11
122.3999999999999915
21
-96.1499999999999915
0
LINE
8
BLACK
6
CONTINUOUS
10
123.1707459999999941
20
-97.4507459999999952
11
122.3999999999999915
21
-96.6799999999999926
0
LINE
8
BLACK
6
CONTINUOUS
10
126.3807459999999878
20
-92.7992539999999906
11
124.0197459999999978
21
-92.7992539999999906
0
LINE
8
BLACK
6
CONTINUOUS
10
126.3807459999999878
20
-97.4507459999999952
11
123.1707459999999941
21
-97.4507459999999952
0
LINE
8
BLACK
6
CONTINUOUS
10
127.1514919999999904
20
-93.5699999999999932
11
126.3807459999999878
21
-92.7992539999999906
0
LINE
8
BLACK
6
CONTINUOUS
10
127.1514919999999904
20
-93.9749999999999943
11
127.1514919999999904
21
-93.5699999999999932
0
LINE
8
BLACK
6
CONTINUOUS
10
127.1514919999999904
20
-96.3249999999999886
11
127.1514919999999904
21
-96.6799999999999926
0
LINE
8
BLACK
6
CONTINUOUS
10
127.1514919999999904
20
-96.6799999999999926
11
126.3807459999999878
21
-97.4507459999999952
0
LINE
8
BLACK
6
CONTINUOUS
10
129.3014919999999961
20
-93.9749999999999943
11
127.1514919999999904
21
-93.9749999999999943
0
LINE
8
BLACK
6
CONTINUOUS
10
129.3014919999999961
20
-93.9749999999999943
11
129.3014919999999961
21
-96.3249999999999886
0
LINE
8
BLACK
6
CONTINUOUS
10
129.3014919999999961
20
-96.3249999999999886
11
127.1514919999999904
21
-96.3249999999999886
0
ARC
8
BLACK
10
117.375
20
-95.25
40
1.125
50
0.00000000
51
90.00000000
0
ARC
8
BLACK
10
121.5
20
-96.1499999999999915
40
0.8999999999999999
50
0.00000000
51
90.00000000
0
ARC
8
BLACK
10
124.0197459999999978
20
-90.7665169999999932
40
2.032737
50
-166.38538515
51
-90.00000000
0
ARC
8
BLACK
10
121.1414919999999995
20
-91.4780080000000027
40
0.9322239999999999
50
14.47453095
51
90.00000000
0
CIRCLE
8
BLACK
10
114.5
20
-99.
40
1.
0
CIRCLE
8
BLACK
10
120.
20
-99.
40
1.5999999999999999
0
CIRCLE
8
BLACK
10
125.5
20
-99.
40
1.
0
LINE
8
BLACK
6
CONTINUOUS
10
133.2249999999999943
20
-138.7750000000000057
11
133.2249999999999943
21
-141.125
0
LINE
8
BLACK
6
CONTINUOUS
10
133.2249999999999943
20
-138.7750000000000057
11
135.375
21
-138.7750000000000057
0
LINE
8
BLACK
6
CONTINUOUS
10
135.375
20
-138.7750000000000057
11
135.375
21
-137.5449999999999875
0
LINE
8
BLACK
6
CONTINUOUS
10
135.375
20
-141.125
11
133.2249999999999943
21
-141.125
0
LINE
8
BLACK
6
CONTINUOUS
10
139.1414919999999995
20
-137.5457839999999976
11
135.375
21
-137.5449999999999875
0
LINE
8
BLACK
6
CONTINUOUS
10
139.5
20
-142.25
11
136.5
21
-142.25
0
LINE
8
BLACK
6
CONTINUOUS
10
140.4000000000000057
20
-143.6800000000000068
11
140.4000000000000057
21
-143.1500000000000057
0
LINE
8
BLACK
6
CONTINUOUS
10
141.1707459999999799
20
-144.450745999999981
11
140.4000000000000057
21
-143.6800000000000068
0
LINE
8
BLACK
6
CONTINUOUS
10
144.3807459999999878
20
-139.7992539999999906
11
142.0197459999999978
21
-139.7992539999999906
0
LINE
8
BLACK
6
CONTINUOUS
10
144.3807459999999878
20
-144.450745999999981
11
141.1707459999999799
21
-144.450745999999981
0
LINE
8
BLACK
6
CONTINUOUS
10
145.1514919999999904
20
-140.5699999999999932
11
144.3807459999999878
21
-139.7992539999999906
0
LINE
8
BLACK
6
CONTINUOUS
10
145.1514919999999904
20
-140.9749999999999943
11
145.1514919999999904
21
-140.5699999999999932
0
LINE
8
BLACK
6
CONTINUOUS
10
145.1514919999999904
20
-143.3249999999999886
11
145.1514919999999904
21
-143.6800000000000068
0
LINE
8
BLACK
6
CONTINUOUS
10
145.1514919999999904
20
-143.6800000000000068
11
144.3807459999999878
21
-144.450745999999981
0
LINE
8
BLACK
6
CONTINUOUS
10
147.3014919999999961
20
-140.9749999999999943
11
145.1514919999999904
21
-140.9749999999999943
0
LINE
8
BLACK
6
CONTINUOUS
10
147.3014919999999961
20
-140.9749999999999943
11
147.3014919999999961
21
-143.3249999999999886
0
LINE
8
BLACK
6
CONTINUOUS
10
147.3014919999999961
20
-143.3249999999999886
11
145.1514919999999904
21
-143.3249999999999886
0
ARC
8
BLACK
10
135.375
20
-142.25
40
1.125
50
0.00000000
51
90.00000000
0
ARC
8
BLACK
10
139.5
20
-143.1500000000000057
40
0.8999999999999999
50
0.00000000
51
90.00000000
0
ARC
8
BLACK
10
142.0197459999999978
20
-137.7665169999999932
40
2.032737
50
-166.38538515
51
-90.00000000
0
ARC
8
BLACK
10
139.1414919999999995
20
-138.4780079999999884
40
0.9322239999999999
50
14.47453095
51
90.00000000
0
CIRCLE
8
BLACK
10
132.5
20
-146.
40
1.
0
CIRCLE
8
BLACK
10
138.
20
-146.
40
1.5999999999999999
0
CIRCLE
8
BLACK
10
143.5
20
-146.
40
1.
0
LINE
8
BLACK
6
CONTINUOUS
10
133.2249999999999943
20
-121.7749999999999915
11
133.2249999999999943
21
-124.125
0
LINE
8
BLACK
6
CONTINUOUS
10
133.2249999999999943
20
-121.7749999999999915
11
135.375
21
-121.7749999999999915
0
LINE
8
BLACK
6
CONTINUOUS
10
135.375
20
-121.7749999999999915
11
135.375
21
-120.5449999999999875
0
LINE
8
BLACK
6
CONTINUOUS
10
135.375
20
-124.125
11
133.2249999999999943
21
-124.125
0
LINE
8
BLACK
6
CONTINUOUS
10
139.1414919999999995
20
-120.5457839999999976
11
135.375
21
-120.5449999999999875
0
LINE
8
BLACK
6
CONTINUOUS
10
139.5
20
-125.25
11
136.5
21
-125.25
0
LINE
8
BLACK
6
CONTINUOUS
10
140.4000000000000057
20
-126.6799999999999926
11
140.4000000000000057
21
-126.1499999999999915
0
LINE
8
BLACK
6
CONTINUOUS
10
141.1707459999999799
20
-127.4507459999999952
11
140.4000000000000057
21
-126.6799999999999926
0
LINE
8
BLACK
6
CONTINUOUS
10
144.3807459999999878
20
-122.7992539999999906
11
142.0197459999999978
21
-122.7992539999999906
0
LINE
8
BLACK
6
CONTINUOUS
10
144.3807459999999878
20
-127.4507459999999952
11
141.1707459999999799
21
-127.4507459999999952
0
LINE
8
BLACK
6
CONTINUOUS
10
145.1514919999999904
20
-123.5699999999999932
11
144.3807459999999878
21
-122.7992539999999906
0
LINE
8
BLACK
6
CONTINUOUS
10
145.1514919999999904
20
-123.9749999999999943
11
145.1514919999999904
21
-123.5699999999999932
0
LINE
8
BLACK
6
CONTINUOUS
10
145.1514919999999904
20
-126.3249999999999886
11
145.1514919999999904
21
-126.6799999999999926
0
LINE
8
BLACK
6
CONTINUOUS
10
145.1514919999999904
20
-126.6799999999999926
11
144.3807459999999878
21
-127.4507459999999952
0
LINE
8
BLACK
6
CONTINUOUS
10
147.3014919999999961
20
-123.9749999999999943
11
145.1514919999999904
21
-123.9749999999999943
0
LINE
8
BLACK
6
CONTINUOUS
10
147.3014919999999961
20
-123.9749999999999943
11
147.3014919999999961
21
-126.3249999999999886
0
LINE
8
BLACK
6
CONTINUOUS
10
147.3014919999999961
20
-126.3249999999999886
11
145.1514919999999904
21
-126.3249999999999886
0
ARC
8
BLACK
10
135.375
20
-125.25
40
1.125
50
0.00000000
51
90.00000000
0
ARC
8
BLACK
10
139.5
20
-126.1499999999999915
40
0.8999999999999999
50
0.00000000
51
90.00000000
0
ARC
8
BLACK
10
142.0197459999999978
20
-120.7665169999999932
40
2.032737
50
-166.38538515
51
-90.00000000
0
ARC
8
BLACK
10
139.1414919999999995
20
-121.4780079999999884
40
0.9322239999999999
50
14.47453095
51
90.00000000
0
CIRCLE
8
BLACK
10
132.5
20
-129.
40
1.
0
CIRCLE
8
BLACK
10
138.
20
-129.
40
1.5999999999999999
0
CIRCLE
8
BLACK
10
143.5
20
-129.
40
1.
0
LINE
8
BLACK
6
CONTINUOUS
10
133.2249999999999943
20
-104.7749999999999915
11
133.2249999999999943
21
-107.125
0
LINE
8
BLACK
6
CONTINUOUS
10
133.2249999999999943
20
-104.7749999999999915
11
135.375
21
-104.7749999999999915
0
LINE
8
BLACK
6
CONTINUOUS
10
135.375
20
-104.7749999999999915
11
135.375
21
-103.5450000000000017
0
LINE
8
BLACK
6
CONTINUOUS
10
135.375
20
-107.125
11
133.2249999999999943
21
-107.125
0
LINE
8
BLACK
6
CONTINUOUS
10
139.1414919999999995
20
-103.5457839999999976
11
135.375
21
-103.5450000000000017
0
LINE
8
BLACK
6
CONTINUOUS
10
139.5
20
-108.25
11
136.5
21
-108.25
0
LINE
8
BLACK
6
CONTINUOUS
10
140.4000000000000057
20
-109.6799999999999926
11
140.4000000000000057
21
-109.1499999999999915
0
LINE
8
BLACK
6
CONTINUOUS
10
141.1707459999999799
20
-110.4507459999999952
11
140.4000000000000057
21
-109.6799999999999926
0
LINE
8
BLACK
6
CONTINUOUS
10
144.3807459999999878
20
-105.7992539999999906
11
142.0197459999999978
21
-105.7992539999999906
0
LINE
8
BLACK
6
CONTINUOUS
10
144.3807459999999878
20
-110.4507459999999952
11
141.1707459999999799
21
-110.4507459999999952
0
LINE
8
BLACK
6
CONTINUOUS
10
145.1514919999999904
20
-106.5699999999999932
11
144.3807459999999878
21
-105.7992539999999906
0
LINE
8
BLACK
6
CONTINUOUS
10
145.1514919999999904
20
-106.9749999999999943
11
145.1514919999999904
21
-106.5699999999999932
0
LINE
8
BLACK
6
CONTINUOUS
10
145.1514919999999904
20
-109.3249999999999886
11
145.1514919999999904
21
-109.6799999999999926
0
LINE
8
BLACK
6
CONTINUOUS
10
145.1514919999999904
20
-109.6799999999999926
11
144.3807459999999878
21
-110.4507459999999952
0
LINE
8
BLACK
6
CONTINUOUS
10
147.3014919999999961
20
-106.9749999999999943
11
145.1514919999999904
21
-106.9749999999999943
0
LINE
8
BLACK
6
CONTINUOUS
10
147.3014919999999961
20
-106.9749999999999943
11
147.3014919999999961
21
-109.3249999999999886
0
LINE
8
BLACK
6
CONTINUOUS
10
147.3014919999999961
20
-109.3249999999999886
11
145.1514919999999904
21
-109.3249999999999886
0
ARC
8
BLACK
10
135.375
20
-108.25
40
1.125
50
0.00000000
51
90.00000000
0
ARC
8
BLACK
10
139.5
20
-109.1499999999999915
40
0.8999999999999999
50
0.00000000
51
90.00000000
0
ARC
8
BLACK
10
142.0197459999999978
20
-103.7665169999999932
40
2.032737
50
-166.38538515
51
-90.00000000
0
ARC
8
BLACK
10
139.1414919999999995
20
-104.4780079999999884
40
0.9322239999999999
50
14.47453095
51
90.00000000
0
CIRCLE
8
BLACK
10
132.5
20
-112.
40
1.
0
CIRCLE
8
BLACK
10
138.
20
-112.
40
1.5999999999999999
0
CIRCLE
8
BLACK
10
143.5
20
-112.
40
1.
0
LINE
8
BLACK
6
CONTINUOUS
10
133.2249999999999943
20
-87.7749999999999915
11
133.2249999999999943
21
-90.125
0
LINE
8
BLACK
6
CONTINUOUS
10
133.2249999999999943
20
-87.7749999999999915
11
135.375
21
-87.7749999999999915
0
LINE
8
BLACK
6
CONTINUOUS
10
135.375
20
-87.7749999999999915
11
135.375
21
-86.5450000000000017
0
LINE
8
BLACK
6
CONTINUOUS
10
135.375
20
-90.125
11
133.2249999999999943
21
-90.125
0
LINE
8
BLACK
6
CONTINUOUS
10
139.1414919999999995
20
-86.5457839999999976
11
135.375
21
-86.5450000000000017
0
LINE
8
BLACK
6
CONTINUOUS
10
139.5
20
-91.25
11
136.5
21
-91.25
0
LINE
8
BLACK
6
CONTINUOUS
10
140.4000000000000057
20
-92.6799999999999926
11
140.4000000000000057
21
-92.1499999999999915
0
LINE
8
BLACK
6
CONTINUOUS
10
141.1707459999999799
20
-93.4507459999999952
11
140.4000000000000057
21
-92.6799999999999926
0
LINE
8
BLACK
6
CONTINUOUS
10
144.3807459999999878
20
-88.7992539999999906
11
142.0197459999999978
21
-88.7992539999999906
0
LINE
8
BLACK
6
CONTINUOUS
10
144.3807459999999878
20
-93.4507459999999952
11
141.1707459999999799
21
-93.4507459999999952
0
LINE
8
BLACK
6
CONTINUOUS
10
145.1514919999999904
20
-89.5699999999999932
11
144.3807459999999878
21
-88.7992539999999906
0
LINE
8
BLACK
6
CONTINUOUS
10
145.1514919999999904
20
-89.9749999999999943
11
145.1514919999999904
21
-89.5699999999999932
0
LINE
8
BLACK
6
CONTINUOUS
10
145.1514919999999904
20
-92.3250000000000028
11
145.1514919999999904
21
-92.6799999999999926
0
LINE
8
BLACK
6
CONTINUOUS
10
145.1514919999999904
20
-92.6799999999999926
11
144.3807459999999878
21
-93.4507459999999952
0
LINE
8
BLACK
6
CONTINUOUS
10
147.3014919999999961
20
-89.9749999999999943
11
145.1514919999999904
21
-89.9749999999999943
0
LINE
8
BLACK
6
CONTINUOUS
10
147.3014919999999961
20
-89.9749999999999943
11
147.3014919999999961
21
-92.3250000000000028
0
LINE
8
BLACK
6
CONTINUOUS
10
147.3014919999999961
20
-92.3250000000000028
11
145.1514919999999904
21
-92.3250000000000028
0
ARC
8
BLACK
10
135.375
20
-91.25
40
1.125
50
0.00000000
51
90.00000000
0
ARC
8
BLACK
10
139.5
20
-92.1499999999999915
40
0.8999999999999999
50
0.00000000
51
90.00000000
0
ARC
8
BLACK
10
142.0197459999999978
20
-86.7665169999999932
40
2.032737
50
-166.38538515
51
-90.00000000
0
ARC
8
BLACK
10
139.1414919999999995
20
-87.4780080000000027
40
0.9322239999999999
50
14.47453095
51
90.00000000
0
CIRCLE
8
BLACK
10
132.5
20
-95.
40
1.
0
CIRCLE
8
BLACK
10
138.
20
-95.
40
1.5999999999999999
0
CIRCLE
8
BLACK
10
143.5
20
-95.
40
1.
0
LINE
8
BLACK
6
CONTINUOUS
10
153.6159859999999924
20
-134.4624309999999809
11
153.4111699999999985
21
-136.8034879999999873
0
LINE
8
BLACK
6
CONTINUOUS
10
153.6159859999999924
20
-134.4624309999999809
11
155.757803999999993
21
-134.6498149999999896
0
LINE
8
BLACK
6
CONTINUOUS
10
155.757803999999993
20
-134.6498149999999896
11
155.8650059999999939
21
-133.4244960000000049
0
LINE
8
BLACK
6
CONTINUOUS
10
155.5529879999999991
20
-136.9908729999999935
11
153.4111699999999985
21
-136.8034879999999873
0
LINE
8
BLACK
6
CONTINUOUS
10
159.6170970000000011
20
-133.753547999999995
11
155.8650059999999939
21
-133.4244960000000049
0
LINE
8
BLACK
6
CONTINUOUS
10
159.5642409999999813
20
-138.4711089999999842
11
156.5756570000000067
21
-138.2096420000000023
0
LINE
8
BLACK
6
CONTINUOUS
10
160.3361840000000029
20
-139.9741080000000011
11
160.3823759999999936
21
-139.446124999999995
0
LINE
8
BLACK
6
CONTINUOUS
10
161.0368220000000008
20
-140.8090959999999825
11
160.3361840000000029
21
-139.9741080000000011
0
LINE
8
BLACK
6
CONTINUOUS
10
164.640010999999987
20
-136.4550739999999962
11
162.2879949999999951
21
-136.2493000000000052
0
LINE
8
BLACK
6
CONTINUOUS
10
164.2346069999999827
20
-141.0888659999999959
11
161.0368220000000008
21
-140.8090959999999825
0
LINE
8
BLACK
6
CONTINUOUS
10
165.3406489999999849
20
-137.290062000000006
11
164.640010999999987
21
-136.4550739999999962
0
LINE
8
BLACK
6
CONTINUOUS
10
165.3053510000000017
20
-137.6935210000000041
11
165.3406489999999849
21
-137.290062000000006
0
LINE
8
BLACK
6
CONTINUOUS
10
165.1005349999999794
20
-140.0345789999999795
11
165.0695949999999925
21
-140.388227999999998
0
LINE
8
BLACK
6
CONTINUOUS
10
165.0695949999999925
20
-140.388227999999998
11
164.2346069999999827
21
-141.0888659999999959
0
LINE
8
BLACK
6
CONTINUOUS
10
167.4471699999999998
20
-137.8809059999999818
11
165.3053510000000017
21
-137.6935210000000041
0
LINE
8
BLACK
6
CONTINUOUS
10
167.4471699999999998
20
-137.8809059999999818
11
167.242354000000006
21
-140.2219639999999856
0
LINE
8
BLACK
6
CONTINUOUS
10
167.242354000000006
20
-140.2219639999999856
11
165.1005349999999794
21
-140.0345789999999795
0
ARC
8
BLACK
10
155.4549379999999985
20
-138.1115920000000017
40
1.1249999464271099
50
-4.99998947
51
85.00001053
0
ARC
8
BLACK
10
159.4858009999999808
20
-139.3676849999999945
40
0.9000007540974618
50
-4.99999058
51
85.00001497
0
ARC
8
BLACK
10
162.4651599999999974
20
-134.2242980000000045
40
2.0327372031890887
50
-171.38537619
51
-95.00000790
0
ARC
8
BLACK
10
159.5358479999999872
20
-134.6822249999999883
40
0.9322244205822974
50
9.47455839
51
84.99998222
0
CIRCLE
8
BLACK
10
152.2640439999999842
20
-141.5967489999999884
40
1.
0
CIRCLE
8
BLACK
10
157.7431149999999889
20
-142.0761059999999816
40
1.5999999999999999
0
CIRCLE
8
BLACK
10
163.2221859999999936
20
-142.5554630000000031
40
1.
0
LINE
8
BLACK
6
CONTINUOUS
10
155.0976339999999993
20
-117.527120999999994
11
154.8928180000000054
21
-119.8681780000000003
0
LINE
8
BLACK
6
CONTINUOUS
10
155.0976339999999993
20
-117.527120999999994
11
157.239452
21
-117.7145049999999884
0
LINE
8
BLACK
6
CONTINUOUS
10
157.239452
20
-117.7145049999999884
11
157.3466540000000009
21
-116.4891859999999895
0
LINE
8
BLACK
6
CONTINUOUS
10
157.0346360000000061
20
-120.0555629999999923
11
154.8928180000000054
21
-119.8681780000000003
0
LINE
8
BLACK
6
CONTINUOUS
10
161.0987449999999797
20
-116.8182379999999938
11
157.3466540000000009
21
-116.4891859999999895
0
LINE
8
BLACK
6
CONTINUOUS
10
161.0458889999999883
20
-121.5357989999999972
11
158.0573049999999853
21
-121.2743320000000011
0
LINE
8
BLACK
6
CONTINUOUS
10
161.8178319999999815
20
-123.0387979999999999
11
161.8640240000000006
21
-122.5108149999999938
0
LINE
8
BLACK
6
CONTINUOUS
10
162.5184699999999793
20
-123.8737859999999955
11
161.8178319999999815
21
-123.0387979999999999
0
LINE
8
BLACK
6
CONTINUOUS
10
166.121658999999994
20
-119.519763999999995
11
163.7696430000000021
21
-119.3139899999999898
0
LINE
8
BLACK
6
CONTINUOUS
10
165.7162549999999896
20
-124.1535559999999947
11
162.5184699999999793
21
-123.8737859999999955
0
LINE
8
BLACK
6
CONTINUOUS
10
166.8222969999999918
20
-120.3547519999999906
11
166.121658999999994
21
-119.519763999999995
0
LINE
8
BLACK
6
CONTINUOUS
10
166.7869989999999802
20
-120.7582109999999886
11
166.8222969999999918
21
-120.3547519999999906
0
LINE
8
BLACK
6
CONTINUOUS
10
166.5821829999999864
20
-123.0992689999999925
11
166.5512429999999995
21
-123.4529179999999968
0
LINE
8
BLACK
6
CONTINUOUS
10
166.5512429999999995
20
-123.4529179999999968
11
165.7162549999999896
21
-124.1535559999999947
0
LINE
8
BLACK
6
CONTINUOUS
10
168.9288179999999784
20
-120.9455959999999948
11
166.7869989999999802
21
-120.7582109999999886
0
LINE
8
BLACK
6
CONTINUOUS
10
168.9288179999999784
20
-120.9455959999999948
11
168.7240019999999845
21
-123.2866539999999986
0
LINE
8
BLACK
6
CONTINUOUS
10
168.7240019999999845
20
-123.2866539999999986
11
166.5821829999999864
21
-123.0992689999999925
0
ARC
8
BLACK
10
156.9365860000000055
20
-121.1762820000000005
40
1.1249999464271099
50
-4.99998947
51
85.00001053
0
ARC
8
BLACK
10
160.9674489999999878
20
-122.4323749999999933
40
0.9000007540974618
50
-4.99999058
51
85.00001497
0
ARC
8
BLACK
10
163.9468080000000043
20
-117.2889879999999891
40
2.0327372031890887
50
-171.38537619
51
-95.00000790
0
ARC
8
BLACK
10
161.0174959999999942
20
-117.7469150000000013
40
0.9322244205822974
50
9.47455839
51
84.99998222
0
CIRCLE
8
BLACK
10
153.7456919999999911
20
-124.6614390000000014
40
1.
0
CIRCLE
8
BLACK
10
159.2247629999999958
20
-125.1407959999999946
40
1.5999999999999999
0
CIRCLE
8
BLACK
10
164.7038340000000005
20
-125.6201529999999877
40
1.
0
LINE
8
BLACK
6
CONTINUOUS
10
156.5792809999999804
20
-100.5918109999999928
11
156.3744649999999865
21
-102.9328679999999991
0
LINE
8
BLACK
6
CONTINUOUS
10
156.5792809999999804
20
-100.5918109999999928
11
158.7210989999999811
21
-100.7791950000000014
0
LINE
8
BLACK
6
CONTINUOUS
10
158.7210989999999811
20
-100.7791950000000014
11
158.828300999999982
21
-99.5538760000000025
0
LINE
8
BLACK
6
CONTINUOUS
10
158.5162829999999872
20
-103.1202529999999911
11
156.3744649999999865
21
-102.9328679999999991
0
LINE
8
BLACK
6
CONTINUOUS
10
162.5803919999999891
20
-99.8829279999999926
11
158.828300999999982
21
-99.5538760000000025
0
LINE
8
BLACK
6
CONTINUOUS
10
162.5275359999999978
20
-104.6004889999999961
11
159.5389519999999948
21
-104.3390219999999999
0
LINE
8
BLACK
6
CONTINUOUS
10
163.2994789999999909
20
-106.1034879999999987
11
163.3456709999999816
21
-105.5755049999999926
0
LINE
8
BLACK
6
CONTINUOUS
10
164.0001169999999888
20
-106.9384759999999943
11
163.2994789999999909
21
-106.1034879999999987
0
LINE
8
BLACK
6
CONTINUOUS
10
167.6033060000000035
20
-102.5844539999999938
11
165.2512899999999831
21
-102.3786799999999886
0
LINE
8
BLACK
6
CONTINUOUS
10
167.1979019999999991
20
-107.2182459999999935
11
164.0001169999999888
21
-106.9384759999999943
0
LINE
8
BLACK
6
CONTINUOUS
10
168.3039440000000013
20
-103.4194419999999894
11
167.6033060000000035
21
-102.5844539999999938
0
LINE
8
BLACK
6
CONTINUOUS
10
168.2686459999999897
20
-103.8229010000000017
11
168.3039440000000013
21
-103.4194419999999894
0
LINE
8
BLACK
6
CONTINUOUS
10
168.0638299999999958
20
-106.1639589999999913
11
168.0328899999999805
21
-106.5176079999999956
0
LINE
8
BLACK
6
CONTINUOUS
10
168.0328899999999805
20
-106.5176079999999956
11
167.1979019999999991
21
-107.2182459999999935
0
LINE
8
BLACK
6
CONTINUOUS
10
170.4104649999999879
20
-104.0102859999999936
11
168.2686459999999897
21
-103.8229010000000017
0
LINE
8
BLACK
6
CONTINUOUS
10
170.4104649999999879
20
-104.0102859999999936
11
170.205648999999994
21
-106.3513439999999974
0
LINE
8
BLACK
6
CONTINUOUS
10
170.205648999999994
20
-106.3513439999999974
11
168.0638299999999958
21
-106.1639589999999913
0
ARC
8
BLACK
10
158.4182329999999865
20
-104.2409719999999993
40
1.1249999464271099
50
-4.99998947
51
85.00001053
0
ARC
8
BLACK
10
162.4490959999999973
20
-105.4970649999999921
40
0.9000007540974618
50
-4.99999058
51
85.00001497
0
ARC
8
BLACK
10
165.4284549999999854
20
-100.3536780000000022
40
2.0327372031890887
50
-171.38537619
51
-95.00000790
0
ARC
8
BLACK
10
162.4991430000000037
20
-100.8116050000000001
40
0.9322244205822974
50
9.47455839
51
84.99998222
0
CIRCLE
8
BLACK
10
155.2273390000000006
20
-107.7261290000000002
40
1.
0
CIRCLE
8
BLACK
10
160.7064100000000053
20
-108.2054859999999934
40
1.5999999999999999
0
CIRCLE
8
BLACK
10
166.1854809999999816
20
-108.6848430000000008
40
1.
0
LINE
8
BLACK
6
CONTINUOUS
10
158.0609289999999874
20
-83.6565009999999916
11
157.8561129999999935
21
-85.9975579999999979
0
LINE
8
BLACK
6
CONTINUOUS
10
158.0609289999999874
20
-83.6565009999999916
11
160.202746999999988
21
-83.8438850000000002
0
LINE
8
BLACK
6
CONTINUOUS
10
160.202746999999988
20
-83.8438850000000002
11
160.3099489999999889
21
-82.6185660000000013
0
LINE
8
BLACK
6
CONTINUOUS
10
159.9979309999999941
20
-86.1849429999999899
11
157.8561129999999935
21
-85.9975579999999979
0
LINE
8
BLACK
6
CONTINUOUS
10
164.0620399999999961
20
-82.9476179999999914
11
160.3099489999999889
21
-82.6185660000000013
0
LINE
8
BLACK
6
CONTINUOUS
10
164.0091840000000047
20
-87.6651789999999949
11
161.0206000000000017
21
-87.4037119999999987
0
LINE
8
BLACK
6
CONTINUOUS
10
164.7811269999999979
20
-89.1681779999999975
11
164.8273189999999886
21
-88.6401949999999914
0
LINE
8
BLACK
6
CONTINUOUS
10
165.4817649999999958
20
-90.0031659999999931
11
164.7811269999999979
21
-89.1681779999999975
0
LINE
8
BLACK
6
CONTINUOUS
10
169.084953999999982
20
-85.6491439999999926
11
166.7329379999999901
21
-85.4433700000000016
0
LINE
8
BLACK
6
CONTINUOUS
10
168.6795500000000061
20
-90.2829359999999923
11
165.4817649999999958
21
-90.0031659999999931
0
LINE
8
BLACK
6
CONTINUOUS
10
169.7855919999999799
20
-86.4841320000000024
11
169.084953999999982
21
-85.6491439999999926
0
LINE
8
BLACK
6
CONTINUOUS
10
169.7502939999999967
20
-86.8875910000000005
11
169.7855919999999799
21
-86.4841320000000024
0
LINE
8
BLACK
6
CONTINUOUS
10
169.5454780000000028
20
-89.2286489999999901
11
169.5145379999999875
21
-89.5822979999999944
0
LINE
8
BLACK
6
CONTINUOUS
10
169.5145379999999875
20
-89.5822979999999944
11
168.6795500000000061
21
-90.2829359999999923
0
LINE
8
BLACK
6
CONTINUOUS
10
171.8921129999999948
20
-87.0749759999999924
11
169.7502939999999967
21
-86.8875910000000005
0
LINE
8
BLACK
6
CONTINUOUS
10
171.8921129999999948
20
-87.0749759999999924
11
171.6872970000000009
21
-89.4160339999999962
0
LINE
8
BLACK
6
CONTINUOUS
10
171.6872970000000009
20
-89.4160339999999962
11
169.5454780000000028
21
-89.2286489999999901
0
ARC
8
BLACK
10
159.8998809999999935
20
-87.3056619999999981
40
1.1249999464271099
50
-4.99998947
51
85.00001053
0
ARC
8
BLACK
10
163.9307440000000042
20
-88.5617549999999909
40
0.9000007540974618
50
-4.99999058
51
85.00001497
0
ARC
8
BLACK
10
166.9101029999999923
20
-83.418368000000001
40
2.0327372031890887
50
-171.38537619
51
-95.00000790
0
ARC
8
BLACK
10
163.9807909999999822
20
-83.8762949999999989
40
0.9322244205822974
50
9.47455839
51
84.99998222
0
CIRCLE
8
BLACK
10
156.7089869999999792
20
-90.7908189999999991
40
1.
0
CIRCLE
8
BLACK
10
162.1880579999999838
20
-91.2701759999999922
40
1.5999999999999999
0
CIRCLE
8
BLACK
10
167.6671289999999885
20
-91.7495329999999996
40
1.
0
LINE
8
BLACK
6
CONTINUOUS
10
171.8961129999999855
20
-132.0464560000000063
11
171.6912969999999916
21
-134.3875129999999842
0
LINE
8
BLACK
6
CONTINUOUS
10
171.8961129999999855
20
-132.0464560000000063
11
174.0379309999999862
21
-132.2338399999999865
0
LINE
8
BLACK
6
CONTINUOUS
10
174.0379309999999862
20
-132.2338399999999865
11
174.1451329999999871
21
-131.0085210000000018
0
LINE
8
BLACK
6
CONTINUOUS
10
173.8331149999999923
20
-134.5748979999999904
11
171.6912969999999916
21
-134.3875129999999842
0
LINE
8
BLACK
6
CONTINUOUS
10
177.8972239999999942
20
-131.3375729999999919
11
174.1451329999999871
21
-131.0085210000000018
0
LINE
8
BLACK
6
CONTINUOUS
10
177.8443680000000029
20
-136.0551339999999811
11
174.8557839999999999
21
-135.7936669999999992
0
LINE
8
BLACK
6
CONTINUOUS
10
178.6163109999999961
20
-137.558132999999998
11
178.6625029999999867
21
-137.0301499999999919
0
LINE
8
BLACK
6
CONTINUOUS
10
179.3169489999999939
20
-138.3931210000000078
11
178.6163109999999961
21
-137.558132999999998
0
LINE
8
BLACK
6
CONTINUOUS
10
182.9201379999999801
20
-134.0390989999999931
11
180.5681219999999882
21
-133.8333250000000021
0
LINE
8
BLACK
6
CONTINUOUS
10
182.5147340000000042
20
-138.6728909999999928
11
179.3169489999999939
21
-138.3931210000000078
0
LINE
8
BLACK
6
CONTINUOUS
10
183.620775999999978
20
-134.8740870000000029
11
182.9201379999999801
21
-134.0390989999999931
0
LINE
8
BLACK
6
CONTINUOUS
10
183.5854779999999948
20
-135.277546000000001
11
183.620775999999978
21
-134.8740870000000029
0
LINE
8
BLACK
6
CONTINUOUS
10
183.3806620000000009
20
-137.6186040000000048
11
183.3497219999999857
21
-137.9722529999999949
0
LINE
8
BLACK
6
CONTINUOUS
10
183.3497219999999857
20
-137.9722529999999949
11
182.5147340000000042
21
-138.6728909999999928
0
LINE
8
BLACK
6
CONTINUOUS
10
185.727296999999993
20
-135.4649310000000071
11
183.5854779999999948
21
-135.277546000000001
0
LINE
8
BLACK
6
CONTINUOUS
10
185.727296999999993
20
-135.4649310000000071
11
185.5224809999999991
21
-137.8059889999999825
0
LINE
8
BLACK
6
CONTINUOUS
10
185.5224809999999991
20
-137.8059889999999825
11
183.3806620000000009
21
-137.6186040000000048
0
ARC
8
BLACK
10
173.7350649999999916
20
-135.6956169999999986
40
1.1249999464271099
50
-4.99998947
51
85.00001053
0
ARC
8
BLACK
10
177.7659280000000024
20
-136.9517099999999914
40
0.9000007540974618
50
-4.99999058
51
85.00001497
0
ARC
8
BLACK
10
180.7452869999999905
20
-131.8083230000000015
40
2.0327372031890887
50
-171.38537619
51
-95.00000790
0
ARC
8
BLACK
10
177.8159749999999804
20
-132.2662499999999852
40
0.9322244205822974
50
9.47455839
51
84.99998222
0
CIRCLE
8
BLACK
10
170.5441710000000057
20
-139.1807739999999853
40
1.
0
CIRCLE
8
BLACK
10
176.023241999999982
20
-139.6601310000000069
40
1.5999999999999999
0
CIRCLE
8
BLACK
10
181.5023129999999867
20
-140.1394880000000001
40
1.
0
LINE
8
BLACK
6
CONTINUOUS
10
173.3777609999999925
20
-115.1111459999999909
11
173.1729449999999986
21
-117.4522029999999972
0
LINE
8
BLACK
6
CONTINUOUS
10
173.3777609999999925
20
-115.1111459999999909
11
175.5195789999999931
21
-115.2985299999999995
0
LINE
8
BLACK
6
CONTINUOUS
10
175.5195789999999931
20
-115.2985299999999995
11
175.626780999999994
21
-114.0732110000000006
0
LINE
8
BLACK
6
CONTINUOUS
10
175.3147629999999992
20
-117.6395879999999892
11
173.1729449999999986
21
-117.4522029999999972
0
LINE
8
BLACK
6
CONTINUOUS
10
179.3788720000000012
20
-114.4022629999999907
11
175.626780999999994
21
-114.0732110000000006
0
LINE
8
BLACK
6
CONTINUOUS
10
179.3260159999999814
20
-119.1198239999999942
11
176.3374319999999784
21
-118.858356999999998
0
LINE
8
BLACK
6
CONTINUOUS
10
180.097959000000003
20
-120.6228229999999968
11
180.1441509999999937
21
-120.0948399999999907
0
LINE
8
BLACK
6
CONTINUOUS
10
180.7985970000000009
20
-121.4578109999999924
11
180.097959000000003
21
-120.6228229999999968
0
LINE
8
BLACK
6
CONTINUOUS
10
184.4017859999999871
20
-117.1037889999999919
11
182.0497699999999952
21
-116.8980150000000009
0
LINE
8
BLACK
6
CONTINUOUS
10
183.9963819999999828
20
-121.7375809999999916
11
180.7985970000000009
21
-121.4578109999999924
0
LINE
8
BLACK
6
CONTINUOUS
10
185.102423999999985
20
-117.9387770000000017
11
184.4017859999999871
21
-117.1037889999999919
0
LINE
8
BLACK
6
CONTINUOUS
10
185.0671260000000018
20
-118.3422359999999998
11
185.102423999999985
21
-117.9387770000000017
0
LINE
8
BLACK
6
CONTINUOUS
10
184.8623099999999795
20
-120.6832939999999894
11
184.8313699999999926
21
-121.0369429999999937
0
LINE
8
BLACK
6
CONTINUOUS
10
184.8313699999999926
20
-121.0369429999999937
11
183.9963819999999828
21
-121.7375809999999916
0
LINE
8
BLACK
6
CONTINUOUS
10
187.2089449999999999
20
-118.5296209999999917
11
185.0671260000000018
21
-118.3422359999999998
0
LINE
8
BLACK
6
CONTINUOUS
10
187.2089449999999999
20
-118.5296209999999917
11
187.0041289999999776
21
-120.8706789999999955
0
LINE
8
BLACK
6
CONTINUOUS
10
187.0041289999999776
20
-120.8706789999999955
11
184.8623099999999795
21
-120.6832939999999894
0
ARC
8
BLACK
10
175.2167129999999986
20
-118.7603069999999974
40
1.1249999464271099
50
-4.99998947
51
85.00001053
0
ARC
8
BLACK
10
179.2475759999999809
20
-120.0163999999999902
40
0.9000007540974618
50
-4.99999058
51
85.00001497
0
ARC
8
BLACK
10
182.2269349999999974
20
-114.8730130000000003
40
2.0327372031890887
50
-171.38537619
51
-95.00000790
0
ARC
8
BLACK
10
179.2976229999999873
20
-115.3309399999999982
40
0.9322244205822974
50
9.47455839
51
84.99998222
0
CIRCLE
8
BLACK
10
172.0258189999999843
20
-122.2454639999999984
40
1.
0
CIRCLE
8
BLACK
10
177.504889999999989
20
-122.7248209999999915
40
1.5999999999999999
0
CIRCLE
8
BLACK
10
182.9839609999999936
20
-123.2041779999999989
40
1.
0
LINE
8
BLACK
6
CONTINUOUS
10
174.8594089999999994
20
-98.1758359999999897
11
174.6545930000000055
21
-100.5168929999999961
0
LINE
8
BLACK
6
CONTINUOUS
10
174.8594089999999994
20
-98.1758359999999897
11
177.0012270000000001
21
-98.3632199999999983
0
LINE
8
BLACK
6
CONTINUOUS
10
177.0012270000000001
20
-98.3632199999999983
11
177.108429000000001
21
-97.1379009999999994
0
LINE
8
BLACK
6
CONTINUOUS
10
176.7964110000000062
20
-100.7042780000000022
11
174.6545930000000055
21
-100.5168929999999961
0
LINE
8
BLACK
6
CONTINUOUS
10
180.8605199999999797
20
-97.4669529999999895
11
177.108429000000001
21
-97.1379009999999994
0
LINE
8
BLACK
6
CONTINUOUS
10
180.8076639999999884
20
-102.184513999999993
11
177.8190799999999854
21
-101.9230469999999968
0
LINE
8
BLACK
6
CONTINUOUS
10
181.5796069999999816
20
-103.6875129999999956
11
181.6257990000000007
21
-103.1595299999999895
0
LINE
8
BLACK
6
CONTINUOUS
10
182.2802449999999794
20
-104.5225009999999912
11
181.5796069999999816
21
-103.6875129999999956
0
LINE
8
BLACK
6
CONTINUOUS
10
185.8834339999999941
20
-100.1684789999999907
11
183.5314180000000022
21
-99.9627049999999997
0
LINE
8
BLACK
6
CONTINUOUS
10
185.4780299999999897
20
-104.8022709999999904
11
182.2802449999999794
21
-104.5225009999999912
0
LINE
8
BLACK
6
CONTINUOUS
10
186.5840719999999919
20
-101.0034670000000006
11
185.8834339999999941
21
-100.1684789999999907
0
LINE
8
BLACK
6
CONTINUOUS
10
186.5487739999999803
20
-101.4069259999999986
11
186.5840719999999919
21
-101.0034670000000006
0
LINE
8
BLACK
6
CONTINUOUS
10
186.3439579999999864
20
-103.7479839999999882
11
186.3130179999999996
21
-104.1016329999999925
0
LINE
8
BLACK
6
CONTINUOUS
10
186.3130179999999996
20
-104.1016329999999925
11
185.4780299999999897
21
-104.8022709999999904
0
LINE
8
BLACK
6
CONTINUOUS
10
188.6905929999999785
20
-101.5943109999999905
11
186.5487739999999803
21
-101.4069259999999986
0
LINE
8
BLACK
6
CONTINUOUS
10
188.6905929999999785
20
-101.5943109999999905
11
188.4857769999999846
21
-103.9353689999999943
0
LINE
8
BLACK
6
CONTINUOUS
10
188.4857769999999846
20
-103.9353689999999943
11
186.3439579999999864
21
-103.7479839999999882
0
ARC
8
BLACK
10
176.6983610000000056
20
-101.8249969999999962
40
1.1249999464271099
50
-4.99998947
51
85.00001053
0
ARC
8
BLACK
10
180.7292239999999879
20
-103.081089999999989
40
0.9000007540974618
50
-4.99999058
51
85.00001497
0
ARC
8
BLACK
10
183.7085830000000044
20
-97.9377029999999991
40
2.0327372031890887
50
-171.38537619
51
-95.00000790
0
ARC
8
BLACK
10
180.7792709999999943
20
-98.395629999999997
40
0.9322244205822974
50
9.47455839
51
84.99998222
0
CIRCLE
8
BLACK
10
173.5074669999999912
20
-105.3101539999999972
40
1.
0
CIRCLE
8
BLACK
10
178.9865379999999959
20
-105.7895109999999903
40
1.5999999999999999
0
CIRCLE
8
BLACK
10
184.4656090000000006
20
-106.2688679999999977
40
1.
0
LINE
8
BLACK
6
CONTINUOUS
10
176.3410559999999805
20
-81.2405260000000027
11
176.1362399999999866
21
-83.5815829999999949
0
LINE
8
BLACK
6
CONTINUOUS
10
176.3410559999999805
20
-81.2405260000000027
11
178.4828739999999812
21
-81.4279099999999971
0
LINE
8
BLACK
6
CONTINUOUS
10
178.4828739999999812
20
-81.4279099999999971
11
178.5900759999999821
21
-80.2025909999999982
0
LINE
8
BLACK
6
CONTINUOUS
10
178.2780579999999873
20
-83.768968000000001
11
176.1362399999999866
21
-83.5815829999999949
0
LINE
8
BLACK
6
CONTINUOUS
10
182.3421669999999892
20
-80.5316430000000025
11
178.5900759999999821
21
-80.2025909999999982
0
LINE
8
BLACK
6
CONTINUOUS
10
182.2893109999999979
20
-85.2492039999999918
11
179.3007269999999949
21
-84.9877369999999956
0
LINE
8
BLACK
6
CONTINUOUS
10
183.061253999999991
20
-86.7522029999999944
11
183.1074459999999817
21
-86.2242200000000025
0
LINE
8
BLACK
6
CONTINUOUS
10
183.7618919999999889
20
-87.58719099999999
11
183.061253999999991
21
-86.7522029999999944
0
LINE
8
BLACK
6
CONTINUOUS
10
187.3650810000000035
20
-83.2331689999999895
11
185.0130649999999832
21
-83.0273949999999985
0
LINE
8
BLACK
6
CONTINUOUS
10
186.9596769999999992
20
-87.8669609999999892
11
183.7618919999999889
21
-87.58719099999999
0
LINE
8
BLACK
6
CONTINUOUS
10
188.0657190000000014
20
-84.0681569999999994
11
187.3650810000000035
21
-83.2331689999999895
0
LINE
8
BLACK
6
CONTINUOUS
10
188.0304209999999898
20
-84.4716159999999974
11
188.0657190000000014
21
-84.0681569999999994
0
LINE
8
BLACK
6
CONTINUOUS
10
187.8256049999999959
20
-86.8126740000000012
11
187.7946649999999806
21
-87.1663229999999913
0
LINE
8
BLACK
6
CONTINUOUS
10
187.7946649999999806
20
-87.1663229999999913
11
186.9596769999999992
21
-87.8669609999999892
0
LINE
8
BLACK
6
CONTINUOUS
10
190.172239999999988
20
-84.6590009999999893
11
188.0304209999999898
21
-84.4716159999999974
0
LINE
8
BLACK
6
CONTINUOUS
10
190.172239999999988
20
-84.6590009999999893
11
189.9674239999999941
21
-87.0000589999999931
0
LINE
8
BLACK
6
CONTINUOUS
10
189.9674239999999941
20
-87.0000589999999931
11
187.8256049999999959
21
-86.8126740000000012
0
ARC
8
BLACK
10
178.1800079999999866
20
-84.889686999999995
40
1.1249999464271099
50
-4.99998947
51
85.00001053
0
ARC
8
BLACK
10
182.2108709999999974
20
-86.145780000000002
40
0.9000007540974618
50
-4.99999058
51
85.00001497
0
ARC
8
BLACK
10
185.1902299999999855
20
-81.0023929999999979
40
2.0327372031890887
50
-171.38537619
51
-95.00000790
0
ARC
8
BLACK
10
182.2609180000000038
20
-81.4603199999999958
40
0.9322244205822974
50
9.47455839
51
84.99998222
0
CIRCLE
8
BLACK
10
174.9891140000000007
20
-88.374843999999996
40
1.
0
CIRCLE
8
BLACK
10
180.4681850000000054
20
-88.8542009999999891
40
1.5999999999999999
0
CIRCLE
8
BLACK
10
185.9472559999999817
20
-89.3335579999999965
40
1.
0
LINE
8
BLACK
6
CONTINUOUS
10
189.4789949999999976
20
-137.6000379999999836
11
189.2741790000000037
21
-139.94109499999999
0
LINE
8
BLACK
6
CONTINUOUS
10
189.4789949999999976
20
-137.6000379999999836
11
191.6208129999999983
21
-137.7874219999999923
0
LINE
8
BLACK
6
CONTINUOUS
10
191.6208129999999983
20
-137.7874219999999923
11
191.7280149999999992
21
-136.5621030000000076
0
LINE
8
BLACK
6
CONTINUOUS
10
191.4159970000000044
20
-140.1284799999999962
11
189.2741790000000037
21
-139.94109499999999
0
LINE
8
BLACK
6
CONTINUOUS
10
195.4801059999999779
20
-136.8911549999999977
11
191.7280149999999992
21
-136.5621030000000076
0
LINE
8
BLACK
6
CONTINUOUS
10
195.4272499999999866
20
-141.6087159999999869
11
192.4386659999999836
21
-141.347249000000005
0
LINE
8
BLACK
6
CONTINUOUS
10
196.1991929999999797
20
-143.1117150000000038
11
196.2453849999999989
21
-142.5837319999999977
0
LINE
8
BLACK
6
CONTINUOUS
10
196.8998309999999776
20
-143.9467029999999852
11
196.1991929999999797
21
-143.1117150000000038
0
LINE
8
BLACK
6
CONTINUOUS
10
200.5030199999999923
20
-139.5926809999999989
11
198.1510040000000004
21
-139.3869070000000079
0
LINE
8
BLACK
6
CONTINUOUS
10
200.0976159999999879
20
-144.2264729999999986
11
196.8998309999999776
21
-143.9467029999999852
0
LINE
8
BLACK
6
CONTINUOUS
10
201.2036579999999901
20
-140.4276689999999803
11
200.5030199999999923
21
-139.5926809999999989
0
LINE
8
BLACK
6
CONTINUOUS
10
201.1683599999999785
20
-140.8311280000000068
11
201.2036579999999901
21
-140.4276689999999803
0
LINE
8
BLACK
6
CONTINUOUS
10
200.9635439999999846
20
-143.1721859999999822
11
200.9326039999999978
21
-143.5258350000000007
0
LINE
8
BLACK
6
CONTINUOUS
10
200.9326039999999978
20
-143.5258350000000007
11
200.0976159999999879
21
-144.2264729999999986
0
LINE
8
BLACK
6
CONTINUOUS
10
203.3101789999999767
20
-141.0185129999999845
11
201.1683599999999785
21
-140.8311280000000068
0
LINE
8
BLACK
6
CONTINUOUS
10
203.3101789999999767
20
-141.0185129999999845
11
203.1053629999999828
21
-143.3595709999999883
0
LINE
8
BLACK
6
CONTINUOUS
10
203.1053629999999828
20
-143.3595709999999883
11
200.9635439999999846
21
-143.1721859999999822
0
ARC
8
BLACK
10
191.3179470000000038
20
-141.2491990000000044
40
1.1249999464271099
50
-4.99998947
51
85.00001053
0
ARC
8
BLACK
10
195.3488099999999861
20
-142.5052919999999972
40
0.9000007540974618
50
-4.99999058
51
85.00001497
0
ARC
8
BLACK
10
198.3281690000000026
20
-137.3619050000000072
40
2.0327372031890887
50
-171.38537619
51
-95.00000790
0
ARC
8
BLACK
10
195.3988569999999925
20
-137.819831999999991
40
0.9322244205822974
50
9.47455839
51
84.99998222
0
CIRCLE
8
BLACK
10
188.1270529999999894
20
-144.7343559999999911
40
1.
0
CIRCLE
8
BLACK
10
193.6061239999999941
20
-145.2137129999999843
40
1.5999999999999999
0
CIRCLE
8
BLACK
10
199.0851949999999988
20
-145.6930700000000058
40
1.
0
LINE
8
BLACK
6
CONTINUOUS
10
190.9606430000000046
20
-120.6647279999999967
11
190.7558269999999823
21
-123.0057849999999888
0
LINE
8
BLACK
6
CONTINUOUS
10
190.9606430000000046
20
-120.6647279999999967
11
193.1024610000000052
21
-120.8521119999999911
0
LINE
8
BLACK
6
CONTINUOUS
10
193.1024610000000052
20
-120.8521119999999911
11
193.2096629999999777
21
-119.6267929999999922
0
LINE
8
BLACK
6
CONTINUOUS
10
192.8976449999999829
20
-123.193169999999995
11
190.7558269999999823
21
-123.0057849999999888
0
LINE
8
BLACK
6
CONTINUOUS
10
196.9617539999999849
20
-119.9558449999999965
11
193.2096629999999777
21
-119.6267929999999922
0
LINE
8
BLACK
6
CONTINUOUS
10
196.9088979999999935
20
-124.6734059999999999
11
193.9203139999999905
21
-124.4119389999999896
0
LINE
8
BLACK
6
CONTINUOUS
10
197.6808409999999867
20
-126.1764049999999884
11
197.7270329999999774
21
-125.6484219999999965
0
LINE
8
BLACK
6
CONTINUOUS
10
198.3814789999999846
20
-127.0113929999999982
11
197.6808409999999867
21
-126.1764049999999884
0
LINE
8
BLACK
6
CONTINUOUS
10
201.9846679999999992
20
-122.6573709999999977
11
199.6326519999999789
21
-122.4515969999999925
0
LINE
8
BLACK
6
CONTINUOUS
10
201.5792639999999949
20
-127.2911629999999974
11
198.3814789999999846
21
-127.0113929999999982
0
LINE
8
BLACK
6
CONTINUOUS
10
202.6853059999999971
20
-123.4923589999999933
11
201.9846679999999992
21
-122.6573709999999977
0
LINE
8
BLACK
6
CONTINUOUS
10
202.6500079999999855
20
-123.8958179999999913
11
202.6853059999999971
21
-123.4923589999999933
0
LINE
8
BLACK
6
CONTINUOUS
10
202.4451919999999916
20
-126.2368759999999952
11
202.4142520000000047
21
-126.5905249999999995
0
LINE
8
BLACK
6
CONTINUOUS
10
202.4142520000000047
20
-126.5905249999999995
11
201.5792639999999949
21
-127.2911629999999974
0
LINE
8
BLACK
6
CONTINUOUS
10
204.7918269999999836
20
-124.0832029999999975
11
202.6500079999999855
21
-123.8958179999999913
0
LINE
8
BLACK
6
CONTINUOUS
10
204.7918269999999836
20
-124.0832029999999975
11
204.5870109999999897
21
-126.4242610000000013
0
LINE
8
BLACK
6
CONTINUOUS
10
204.5870109999999897
20
-126.4242610000000013
11
202.4451919999999916
21
-126.2368759999999952
0
ARC
8
BLACK
10
192.7995949999999823
20
-124.313888999999989
40
1.1249999464271099
50
-4.99998947
51
85.00001053
0
ARC
8
BLACK
10
196.830457999999993
20
-125.569981999999996
40
0.9000007540974618
50
-4.99999058
51
85.00001497
0
ARC
8
BLACK
10
199.8098169999999811
20
-120.4265949999999918
40
2.0327372031890887
50
-171.38537619
51
-95.00000790
0
ARC
8
BLACK
10
196.8805049999999994
20
-120.8845219999999898
40
0.9322244205822974
50
9.47455839
51
84.99998222
0
CIRCLE
8
BLACK
10
189.6087009999999964
20
-127.7990459999999899
40
1.
0
CIRCLE
8
BLACK
10
195.0877720000000011
20
-128.2784029999999973
40
1.5999999999999999
0
CIRCLE
8
BLACK
10
200.5668429999999773
20
-128.7577599999999904
40
1.
0
LINE
8
BLACK
6
CONTINUOUS
10
192.4422899999999856
20
-103.7294179999999955
11
192.2374739999999917
21
-106.0704750000000018
0
LINE
8
BLACK
6
CONTINUOUS
10
192.4422899999999856
20
-103.7294179999999955
11
194.5841079999999863
21
-103.9168019999999899
0
LINE
8
BLACK
6
CONTINUOUS
10
194.5841079999999863
20
-103.9168019999999899
11
194.6913099999999872
21
-102.691482999999991
0
LINE
8
BLACK
6
CONTINUOUS
10
194.3792919999999924
20
-106.2578599999999938
11
192.2374739999999917
21
-106.0704750000000018
0
LINE
8
BLACK
6
CONTINUOUS
10
198.4434009999999944
20
-103.0205349999999953
11
194.6913099999999872
21
-102.691482999999991
0
LINE
8
BLACK
6
CONTINUOUS
10
198.390545000000003
20
-107.7380959999999988
11
195.401961
21
-107.4766289999999884
0
LINE
8
BLACK
6
CONTINUOUS
10
199.1624879999999962
20
-109.2410950000000014
11
199.2086799999999869
21
-108.7131119999999953
0
LINE
8
BLACK
6
CONTINUOUS
10
199.8631259999999941
20
-110.076082999999997
11
199.1624879999999962
21
-109.2410950000000014
0
LINE
8
BLACK
6
CONTINUOUS
10
203.4663149999999803
20
-105.7220609999999965
11
201.1142989999999884
21
-105.5162869999999913
0
LINE
8
BLACK
6
CONTINUOUS
10
203.0609110000000044
20
-110.3558529999999962
11
199.8631259999999941
21
-110.076082999999997
0
LINE
8
BLACK
6
CONTINUOUS
10
204.1669529999999781
20
-106.5570489999999921
11
203.4663149999999803
21
-105.7220609999999965
0
LINE
8
BLACK
6
CONTINUOUS
10
204.131654999999995
20
-106.9605079999999901
11
204.1669529999999781
21
-106.5570489999999921
0
LINE
8
BLACK
6
CONTINUOUS
10
203.9268390000000011
20
-109.301565999999994
11
203.8958989999999858
21
-109.6552149999999983
0
LINE
8
BLACK
6
CONTINUOUS
10
203.8958989999999858
20
-109.6552149999999983
11
203.0609110000000044
21
-110.3558529999999962
0
LINE
8
BLACK
6
CONTINUOUS
10
206.2734739999999931
20
-107.1478929999999963
11
204.131654999999995
21
-106.9605079999999901
0
LINE
8
BLACK
6
CONTINUOUS
10
206.2734739999999931
20
-107.1478929999999963
11
206.0686579999999992
21
-109.4889510000000001
0
LINE
8
BLACK
6
CONTINUOUS
10
206.0686579999999992
20
-109.4889510000000001
11
203.9268390000000011
21
-109.301565999999994
0
ARC
8
BLACK
10
194.2812419999999918
20
-107.378579000000002
40
1.1249999464271099
50
-4.99998947
51
85.00001053
0
ARC
8
BLACK
10
198.3121050000000025
20
-108.6346719999999948
40
0.9000007540974618
50
-4.99999058
51
85.00001497
0
ARC
8
BLACK
10
201.2914639999999906
20
-103.4912849999999906
40
2.0327372031890887
50
-171.38537619
51
-95.00000790
0
ARC
8
BLACK
10
198.3621519999999805
20
-103.9492119999999886
40
0.9322244205822974
50
9.47455839
51
84.99998222
0
CIRCLE
8
BLACK
10
191.0903479999999774
20
-110.8637359999999887
40
1.
0
CIRCLE
8
BLACK
10
196.5694189999999821
20
-111.3430929999999961
40
1.5999999999999999
0
CIRCLE
8
BLACK
10
202.0484899999999868
20
-111.8224499999999892
40
1.
0
LINE
8
BLACK
6
CONTINUOUS
10
193.9239379999999926
20
-86.7941079999999943
11
193.7191219999999987
21
-89.1351650000000006
0
LINE
8
BLACK
6
CONTINUOUS
10
193.9239379999999926
20
-86.7941079999999943
11
196.0657559999999933
21
-86.9814920000000029
0
LINE
8
BLACK
6
CONTINUOUS
10
196.0657559999999933
20
-86.9814920000000029
11
196.1729579999999942
21
-85.7561729999999898
0
LINE
8
BLACK
6
CONTINUOUS
10
195.8609399999999994
20
-89.3225499999999926
11
193.7191219999999987
21
-89.1351650000000006
0
LINE
8
BLACK
6
CONTINUOUS
10
199.9250490000000013
20
-86.0852249999999941
11
196.1729579999999942
21
-85.7561729999999898
0
LINE
8
BLACK
6
CONTINUOUS
10
199.8721929999999816
20
-90.8027859999999976
11
196.8836089999999786
21
-90.5413190000000014
0
LINE
8
BLACK
6
CONTINUOUS
10
200.6441360000000032
20
-92.3057850000000002
11
200.6903279999999938
21
-91.7778019999999941
0
LINE
8
BLACK
6
CONTINUOUS
10
201.344774000000001
20
-93.1407729999999958
11
200.6441360000000032
21
-92.3057850000000002
0
LINE
8
BLACK
6
CONTINUOUS
10
204.9479629999999872
20
-88.7867509999999953
11
202.5959469999999953
21
-88.5809769999999901
0
LINE
8
BLACK
6
CONTINUOUS
10
204.5425589999999829
20
-93.420542999999995
11
201.344774000000001
21
-93.1407729999999958
0
LINE
8
BLACK
6
CONTINUOUS
10
205.6486009999999851
20
-89.6217389999999909
11
204.9479629999999872
21
-88.7867509999999953
0
LINE
8
BLACK
6
CONTINUOUS
10
205.6133030000000019
20
-90.025197999999989
11
205.6486009999999851
21
-89.6217389999999909
0
LINE
8
BLACK
6
CONTINUOUS
10
205.4084869999999796
20
-92.3662559999999928
11
205.3775469999999927
21
-92.7199049999999971
0
LINE
8
BLACK
6
CONTINUOUS
10
205.3775469999999927
20
-92.7199049999999971
11
204.5425589999999829
21
-93.420542999999995
0
LINE
8
BLACK
6
CONTINUOUS
10
207.7551220000000001
20
-90.2125829999999951
11
205.6133030000000019
21
-90.025197999999989
0
LINE
8
BLACK
6
CONTINUOUS
10
207.7551220000000001
20
-90.2125829999999951
11
207.5503059999999778
21
-92.5536409999999989
0
LINE
8
BLACK
6
CONTINUOUS
10
207.5503059999999778
20
-92.5536409999999989
11
205.4084869999999796
21
-92.3662559999999928
0
ARC
8
BLACK
10
195.7628899999999987
20
-90.4432690000000008
40
1.1249999464271099
50
-4.99998947
51
85.00001053
0
ARC
8
BLACK
10
199.7937529999999811
20
-91.6993619999999936
40
0.9000007540974618
50
-4.99999058
51
85.00001497
0
ARC
8
BLACK
10
202.7731119999999976
20
-86.5559749999999894
40
2.0327372031890887
50
-171.38537619
51
-95.00000790
0
ARC
8
BLACK
10
199.8437999999999874
20
-87.0139020000000016
40
0.9322244205822974
50
9.47455839
51
84.99998222
0
CIRCLE
8
BLACK
10
192.5719959999999844
20
-93.9284260000000017
40
1.
0
CIRCLE
8
BLACK
10
198.0510669999999891
20
-94.4077829999999949
40
1.5999999999999999
0
CIRCLE
8
BLACK
10
203.5301379999999938
20
-94.8871400000000023
40
1.
0
LINE
8
BLACK
6
CONTINUOUS
10
207.0618769999999813
20
-143.1536199999999894
11
206.8570609999999874
21
-145.4946769999999958
0
LINE
8
BLACK
6
CONTINUOUS
10
207.0618769999999813
20
-143.1536199999999894
11
209.203694999999982
21
-143.3410039999999981
0
LINE
8
BLACK
6
CONTINUOUS
10
209.203694999999982
20
-143.3410039999999981
11
209.3108969999999829
21
-142.1156849999999849
0
LINE
8
BLACK
6
CONTINUOUS
10
208.9988789999999881
20
-145.6820620000000019
11
206.8570609999999874
21
-145.4946769999999958
0
LINE
8
BLACK
6
CONTINUOUS
10
213.0629879999999901
20
-142.4447370000000035
11
209.3108969999999829
21
-142.1156849999999849
0
LINE
8
BLACK
6
CONTINUOUS
10
213.0101319999999987
20
-147.1622979999999927
11
210.0215479999999957
21
-146.9008309999999824
0
LINE
8
BLACK
6
CONTINUOUS
10
213.7820749999999919
20
-148.6652969999999812
11
213.8282669999999825
21
-148.1373140000000035
0
LINE
8
BLACK
6
CONTINUOUS
10
214.4827129999999897
20
-149.500284999999991
11
213.7820749999999919
21
-148.6652969999999812
0
LINE
8
BLACK
6
CONTINUOUS
10
218.0859019999999759
20
-145.1462630000000047
11
215.7338859999999841
21
-144.9404889999999853
0
LINE
8
BLACK
6
CONTINUOUS
10
217.680498
20
-149.7800550000000044
11
214.4827129999999897
21
-149.500284999999991
0
LINE
8
BLACK
6
CONTINUOUS
10
218.7865400000000022
20
-145.9812509999999861
11
218.0859019999999759
21
-145.1462630000000047
0
LINE
8
BLACK
6
CONTINUOUS
10
218.7512419999999906
20
-146.3847099999999841
11
218.7865400000000022
21
-145.9812509999999861
0
LINE
8
BLACK
6
CONTINUOUS
10
218.5464259999999967
20
-148.725767999999988
11
218.5154859999999815
21
-149.0794170000000065
0
LINE
8
BLACK
6
CONTINUOUS
10
218.5154859999999815
20
-149.0794170000000065
11
217.680498
21
-149.7800550000000044
0
LINE
8
BLACK
6
CONTINUOUS
10
220.8930609999999888
20
-146.5720949999999903
11
218.7512419999999906
21
-146.3847099999999841
0
LINE
8
BLACK
6
CONTINUOUS
10
220.8930609999999888
20
-146.5720949999999903
11
220.6882449999999949
21
-148.9131529999999941
0
LINE
8
BLACK
6
CONTINUOUS
10
220.6882449999999949
20
-148.9131529999999941
11
218.5464259999999967
21
-148.725767999999988
0
ARC
8
BLACK
10
208.9008289999999874
20
-146.8027809999999818
40
1.1249999464271099
50
-4.99998947
51
85.00001053
0
ARC
8
BLACK
10
212.9316919999999982
20
-148.058874000000003
40
0.9000007540974618
50
-4.99999058
51
85.00001497
0
ARC
8
BLACK
10
215.9110509999999863
20
-142.9154869999999846
40
2.0327372031890887
50
-171.38537619
51
-95.00000790
0
ARC
8
BLACK
10
212.9817389999999762
20
-143.3734139999999968
40
0.9322244205822974
50
9.47455839
51
84.99998222
0
CIRCLE
8
BLACK
10
205.7099350000000015
20
-150.2879379999999969
40
1.
0
CIRCLE
8
BLACK
10
211.1890059999999778
20
-150.7672949999999901
40
1.5999999999999999
0
CIRCLE
8
BLACK
10
216.6680769999999825
20
-151.2466519999999832
40
1.
0
LINE
8
BLACK
6
CONTINUOUS
10
208.5435239999999908
20
-126.2183099999999882
11
208.3387079999999969
21
-128.5593669999999804
0
LINE
8
BLACK
6
CONTINUOUS
10
208.5435239999999908
20
-126.2183099999999882
11
210.6853419999999915
21
-126.4056939999999969
0
LINE
8
BLACK
6
CONTINUOUS
10
210.6853419999999915
20
-126.4056939999999969
11
210.7925439999999924
21
-125.180374999999998
0
LINE
8
BLACK
6
CONTINUOUS
10
210.4805259999999976
20
-128.7467519999999865
11
208.3387079999999969
21
-128.5593669999999804
0
LINE
8
BLACK
6
CONTINUOUS
10
214.5446349999999995
20
-125.5094269999999881
11
210.7925439999999924
21
-125.180374999999998
0
LINE
8
BLACK
6
CONTINUOUS
10
214.4917789999999798
20
-130.2269880000000057
11
211.5031949999999767
21
-129.9655209999999954
0
LINE
8
BLACK
6
CONTINUOUS
10
215.2637220000000013
20
-131.7299869999999942
11
215.309913999999992
21
-131.2020039999999881
0
LINE
8
BLACK
6
CONTINUOUS
10
215.9643599999999992
20
-132.564975000000004
11
215.2637220000000013
21
-131.7299869999999942
0
LINE
8
BLACK
6
CONTINUOUS
10
219.5675489999999854
20
-128.2109529999999893
11
217.2155329999999935
21
-128.0051789999999983
0
LINE
8
BLACK
6
CONTINUOUS
10
219.1621449999999811
20
-132.844744999999989
11
215.9643599999999992
21
-132.564975000000004
0
LINE
8
BLACK
6
CONTINUOUS
10
220.2681869999999833
20
-129.0459409999999991
11
219.5675489999999854
21
-128.2109529999999893
0
LINE
8
BLACK
6
CONTINUOUS
10
220.2328890000000001
20
-129.4493999999999971
11
220.2681869999999833
21
-129.0459409999999991
0
LINE
8
BLACK
6
CONTINUOUS
10
220.0280729999999778
20
-131.790458000000001
11
219.9971329999999909
21
-132.1441069999999911
0
LINE
8
BLACK
6
CONTINUOUS
10
219.9971329999999909
20
-132.1441069999999911
11
219.1621449999999811
21
-132.844744999999989
0
LINE
8
BLACK
6
CONTINUOUS
10
222.3747079999999983
20
-129.6367850000000033
11
220.2328890000000001
21
-129.4493999999999971
0
LINE
8
BLACK
6
CONTINUOUS
10
222.3747079999999983
20
-129.6367850000000033
11
222.169891999999976
21
-131.9778430000000071
0
LINE
8
BLACK
6
CONTINUOUS
10
222.169891999999976
20
-131.9778430000000071
11
220.0280729999999778
21
-131.790458000000001
0
ARC
8
BLACK
10
210.3824759999999969
20
-129.8674709999999948
40
1.1249999464271099
50
-4.99998947
51
85.00001053
0
ARC
8
BLACK
10
214.4133389999999793
20
-131.1235639999999876
40
0.9000007540974618
50
-4.99999058
51
85.00001497
0
ARC
8
BLACK
10
217.3926979999999958
20
-125.9801769999999976
40
2.0327372031890887
50
-171.38537619
51
-95.00000790
0
ARC
8
BLACK
10
214.4633859999999856
20
-126.4381039999999956
40
0.9322244205822974
50
9.47455839
51
84.99998222
0
CIRCLE
8
BLACK
10
207.1915819999999826
20
-133.3526279999999815
40
1.
0
CIRCLE
8
BLACK
10
212.6706529999999873
20
-133.8319850000000031
40
1.5999999999999999
0
CIRCLE
8
BLACK
10
218.149723999999992
20
-134.3113419999999962
40
1.
0
LINE
8
BLACK
6
CONTINUOUS
10
210.0251719999999978
20
-109.2830000000000013
11
209.8203560000000039
21
-111.6240569999999934
0
LINE
8
BLACK
6
CONTINUOUS
10
210.0251719999999978
20
-109.2830000000000013
11
212.1669899999999984
21
-109.4703839999999957
0
LINE
8
BLACK
6
CONTINUOUS
10
212.1669899999999984
20
-109.4703839999999957
11
212.2741919999999993
21
-108.2450649999999968
0
LINE
8
BLACK
6
CONTINUOUS
10
211.9621740000000045
20
-111.8114419999999996
11
209.8203560000000039
21
-111.6240569999999934
0
LINE
8
BLACK
6
CONTINUOUS
10
216.0262829999999781
20
-108.5741170000000011
11
212.2741919999999993
21
-108.2450649999999968
0
LINE
8
BLACK
6
CONTINUOUS
10
215.9734269999999867
20
-113.2916779999999903
11
212.9848429999999837
21
-113.0302109999999942
0
LINE
8
BLACK
6
CONTINUOUS
10
216.7453699999999799
20
-114.794676999999993
11
216.791561999999999
21
-114.2666940000000011
0
LINE
8
BLACK
6
CONTINUOUS
10
217.4460079999999778
20
-115.6296649999999886
11
216.7453699999999799
21
-114.794676999999993
0
LINE
8
BLACK
6
CONTINUOUS
10
221.0491969999999924
20
-111.2756429999999881
11
218.6971810000000005
21
-111.0698689999999971
0
LINE
8
BLACK
6
CONTINUOUS
10
220.6437929999999881
20
-115.9094349999999878
11
217.4460079999999778
21
-115.6296649999999886
0
LINE
8
BLACK
6
CONTINUOUS
10
221.7498349999999903
20
-112.1106309999999979
11
221.0491969999999924
21
-111.2756429999999881
0
LINE
8
BLACK
6
CONTINUOUS
10
221.7145369999999787
20
-112.5140899999999959
11
221.7498349999999903
21
-112.1106309999999979
0
LINE
8
BLACK
6
CONTINUOUS
10
221.5097209999999848
20
-114.8551479999999998
11
221.4787809999999979
21
-115.2087969999999899
0
LINE
8
BLACK
6
CONTINUOUS
10
221.4787809999999979
20
-115.2087969999999899
11
220.6437929999999881
21
-115.9094349999999878
0
LINE
8
BLACK
6
CONTINUOUS
10
223.8563559999999768
20
-112.7014749999999879
11
221.7145369999999787
21
-112.5140899999999959
0
LINE
8
BLACK
6
CONTINUOUS
10
223.8563559999999768
20
-112.7014749999999879
11
223.6515399999999829
21
-115.0425329999999917
0
LINE
8
BLACK
6
CONTINUOUS
10
223.6515399999999829
20
-115.0425329999999917
11
221.5097209999999848
21
-114.8551479999999998
0
ARC
8
BLACK
10
211.8641240000000039
20
-112.9321609999999936
40
1.1249999464271099
50
-4.99998947
51
85.00001053
0
ARC
8
BLACK
10
215.8949869999999862
20
-114.1882540000000006
40
0.9000007540974618
50
-4.99999058
51
85.00001497
0
ARC
8
BLACK
10
218.8743460000000027
20
-109.0448669999999964
40
2.0327372031890887
50
-171.38537619
51
-95.00000790
0
ARC
8
BLACK
10
215.9450339999999926
20
-109.5027939999999944
40
0.9322244205822974
50
9.47455839
51
84.99998222
0
CIRCLE
8
BLACK
10
208.6732299999999896
20
-116.4173179999999945
40
1.
0
CIRCLE
8
BLACK
10
214.1523009999999942
20
-116.8966749999999877
40
1.5999999999999999
0
CIRCLE
8
BLACK
10
219.6313719999999989
20
-117.376031999999995
40
1.
0
LINE
8
BLACK
6
CONTINUOUS
10
211.5068189999999788
20
-92.3476900000000001
11
211.3020029999999849
21
-94.6887469999999922
0
LINE
8
BLACK
6
CONTINUOUS
10
211.5068189999999788
20
-92.3476900000000001
11
213.6486369999999795
21
-92.5350739999999945
0
LINE
8
BLACK
6
CONTINUOUS
10
213.6486369999999795
20
-92.5350739999999945
11
213.7558389999999804
21
-91.3097549999999956
0
LINE
8
BLACK
6
CONTINUOUS
10
213.4438209999999856
20
-94.8761319999999984
11
211.3020029999999849
21
-94.6887469999999922
0
LINE
8
BLACK
6
CONTINUOUS
10
217.5079299999999876
20
-91.6388069999999999
11
213.7558389999999804
21
-91.3097549999999956
0
LINE
8
BLACK
6
CONTINUOUS
10
217.4550739999999962
20
-96.3563679999999891
11
214.4664899999999932
21
-96.094900999999993
0
LINE
8
BLACK
6
CONTINUOUS
10
218.2270169999999894
20
-97.8593669999999918
11
218.2732089999999801
21
-97.3313839999999999
0
LINE
8
BLACK
6
CONTINUOUS
10
218.9276549999999872
20
-98.6943550000000016
11
218.2270169999999894
21
-97.8593669999999918
0
LINE
8
BLACK
6
CONTINUOUS
10
222.5308440000000019
20
-94.3403330000000011
11
220.1788279999999816
21
-94.1345589999999959
0
LINE
8
BLACK
6
CONTINUOUS
10
222.1254399999999976
20
-98.9741250000000008
11
218.9276549999999872
21
-98.6943550000000016
0
LINE
8
BLACK
6
CONTINUOUS
10
223.2314819999999997
20
-95.1753209999999967
11
222.5308440000000019
21
-94.3403330000000011
0
LINE
8
BLACK
6
CONTINUOUS
10
223.1961839999999881
20
-95.5787799999999947
11
223.2314819999999997
21
-95.1753209999999967
0
LINE
8
BLACK
6
CONTINUOUS
10
222.9913679999999943
20
-97.9198379999999986
11
222.960427999999979
21
-98.2734869999999887
0
LINE
8
BLACK
6
CONTINUOUS
10
222.960427999999979
20
-98.2734869999999887
11
222.1254399999999976
21
-98.9741250000000008
0
LINE
8
BLACK
6
CONTINUOUS
10
225.3380029999999863
20
-95.7661650000000009
11
223.1961839999999881
21
-95.5787799999999947
0
LINE
8
BLACK
6
CONTINUOUS
10
225.3380029999999863
20
-95.7661650000000009
11
225.1331869999999924
21
-98.1072229999999905
0
LINE
8
BLACK
6
CONTINUOUS
10
225.1331869999999924
20
-98.1072229999999905
11
222.9913679999999943
21
-97.9198379999999986
0
ARC
8
BLACK
10
213.345770999999985
20
-95.9968509999999924
40
1.1249999464271099
50
-4.99998947
51
85.00001053
0
ARC
8
BLACK
10
217.3766339999999957
20
-97.2529439999999994
40
0.9000007540974618
50
-4.99999058
51
85.00001497
0
ARC
8
BLACK
10
220.3559929999999838
20
-92.1095569999999952
40
2.0327372031890887
50
-171.38537619
51
-95.00000790
0
ARC
8
BLACK
10
217.4266810000000021
20
-92.5674839999999932
40
0.9322244205822974
50
9.47455839
51
84.99998222
0
CIRCLE
8
BLACK
10
210.154876999999999
20
-99.4820079999999933
40
1.
0
CIRCLE
8
BLACK
10
215.6339480000000037
20
-99.9613650000000007
40
1.5999999999999999
0
CIRCLE
8
BLACK
10
221.11301899999998
20
-100.4407219999999938
40
1.
0
LINE
8
BLACK
6
CONTINUOUS
10
184.7872789999999839
20
-160.5590880000000027
11
184.1790539999999794
21
-162.8290140000000008
0
LINE
8
BLACK
6
CONTINUOUS
10
184.7872789999999839
20
-160.5590880000000027
11
186.8640189999999848
21
-161.1155489999999872
0
LINE
8
BLACK
6
CONTINUOUS
10
186.8640189999999848
20
-161.1155489999999872
11
187.1823669999999993
21
-159.9274599999999964
0
LINE
8
BLACK
6
CONTINUOUS
10
186.2557949999999778
20
-163.3854749999999854
11
184.1790539999999794
21
-162.8290140000000008
0
LINE
8
BLACK
6
CONTINUOUS
10
190.8203159999999912
20
-160.9030569999999898
11
187.1823669999999993
21
-159.9274599999999964
0
LINE
8
BLACK
6
CONTINUOUS
10
189.9490669999999852
20
-165.5397700000000043
11
187.0512899999999945
21
-164.7633129999999824
0
LINE
8
BLACK
6
CONTINUOUS
10
190.4482889999999884
20
-167.1539809999999875
11
190.5854630000000043
21
-166.6420399999999802
0
LINE
8
BLACK
6
CONTINUOUS
10
190.9932890000000043
20
-168.0979480000000024
11
190.4482889999999884
21
-167.1539809999999875
0
LINE
8
BLACK
6
CONTINUOUS
10
195.29780599999998
20
-164.4357609999999852
11
193.0172549999999774
21
-163.8246890000000064
0
LINE
8
BLACK
6
CONTINUOUS
10
194.0939109999999914
20
-168.9287569999999903
11
190.9932890000000043
21
-168.0979480000000024
0
LINE
8
BLACK
6
CONTINUOUS
10
195.8428049999999985
20
-165.3797280000000001
11
195.29780599999998
21
-164.4357609999999852
0
LINE
8
BLACK
6
CONTINUOUS
10
195.7379839999999831
20
-165.7709279999999978
11
195.8428049999999985
21
-165.3797280000000001
0
LINE
8
BLACK
6
CONTINUOUS
10
195.1297589999999786
20
-168.0408539999999959
11
195.0378779999999779
21
-168.3837570000000028
0
LINE
8
BLACK
6
CONTINUOUS
10
195.0378779999999779
20
-168.3837570000000028
11
194.0939109999999914
21
-168.9287569999999903
0
LINE
8
BLACK
6
CONTINUOUS
10
197.814723999999984
20
-166.3273889999999824
11
195.7379839999999831
21
-165.7709279999999978
0
LINE
8
BLACK
6
CONTINUOUS
10
197.814723999999984
20
-166.3273889999999824
11
197.2064989999999796
21
-168.5973149999999805
0
LINE
8
BLACK
6
CONTINUOUS
10
197.2064989999999796
20
-168.5973149999999805
11
195.1297589999999786
21
-168.0408539999999959
0
ARC
8
BLACK
10
185.9646229999999889
20
-164.4721409999999935
40
1.1249996129510444
50
-15.00002238
51
74.99996444
0
ARC
8
BLACK
10
189.7161299999999926
20
-166.4091029999999876
40
0.8999997282544034
50
-14.99999537
51
75.00000463
0
ARC
8
BLACK
10
193.5433659999999918
20
-161.8612159999999847
40
2.0327368265592081
50
-181.38538951
51
-104.99999987
0
ARC
8
BLACK
10
190.5790379999999971
20
-161.8035169999999994
40
0.9322249111046109
50
-0.52544064
51
74.99997209
0
CIRCLE
8
BLACK
10
182.2170150000000035
20
-167.3502579999999966
40
1.
0
CIRCLE
8
BLACK
10
187.5296069999999986
20
-168.7737630000000024
40
1.5999999999999999
0
CIRCLE
8
BLACK
10
192.8421989999999937
20
-170.1972679999999798
40
1.
0
LINE
8
BLACK
6
CONTINUOUS
10
206.2026369999999815
20
-168.0243810000000053
11
205.2094840000000033
21
-170.1542039999999929
0
LINE
8
BLACK
6
CONTINUOUS
10
206.2026369999999815
20
-168.0243810000000053
11
208.1511989999999912
21
-168.9330099999999959
0
LINE
8
BLACK
6
CONTINUOUS
10
208.1511989999999912
20
-168.9330099999999959
11
208.6710190000000011
21
-167.8182520000000011
0
LINE
8
BLACK
6
CONTINUOUS
10
207.1580459999999846
20
-171.062833999999981
11
205.2094840000000033
21
-170.1542039999999929
0
LINE
8
BLACK
6
CONTINUOUS
10
212.0842889999999841
20
-169.4107510000000048
11
208.6710190000000011
21
-167.8182520000000011
0
LINE
8
BLACK
6
CONTINUOUS
10
210.4211200000000019
20
-173.825729999999993
11
207.702196999999984
21
-172.5578749999999957
0
LINE
8
BLACK
6
CONTINUOUS
10
210.6324529999999982
20
-175.5021069999999952
11
210.8564409999999896
21
-175.0217639999999903
0
LINE
8
BLACK
6
CONTINUOUS
10
211.0052549999999769
20
-176.5263709999999833
11
210.6324529999999982
21
-175.5021069999999952
0
LINE
8
BLACK
6
CONTINUOUS
10
215.8803079999999852
20
-173.6672920000000033
11
213.7405159999999853
21
-172.6694909999999936
0
LINE
8
BLACK
6
CONTINUOUS
10
213.9145029999999963
20
-177.8829759999999851
11
211.0052549999999769
21
-176.5263709999999833
0
LINE
8
BLACK
6
CONTINUOUS
10
216.2531099999999924
20
-174.6915569999999889
11
215.8803079999999852
21
-173.6672920000000033
0
LINE
8
BLACK
6
CONTINUOUS
10
216.0819499999999778
20
-175.0586109999999849
11
216.2531099999999924
21
-174.6915569999999889
0
LINE
8
BLACK
6
CONTINUOUS
10
215.0887969999999996
20
-177.1884349999999984
11
214.9387669999999844
21
-177.5101739999999779
0
LINE
8
BLACK
6
CONTINUOUS
10
214.9387669999999844
20
-177.5101739999999779
11
213.9145029999999963
21
-177.8829759999999851
0
LINE
8
BLACK
6
CONTINUOUS
10
218.03051099999999
20
-175.9672410000000013
11
216.0819499999999778
21
-175.0586109999999849
0
LINE
8
BLACK
6
CONTINUOUS
10
218.03051099999999
20
-175.9672410000000013
11
217.0373579999999833
21
-178.0970639999999889
0
LINE
8
BLACK
6
CONTINUOUS
10
217.0373579999999833
20
-178.0970639999999889
11
215.0887969999999996
21
-177.1884349999999984
0
ARC
8
BLACK
10
206.6826009999999769
20
-172.082429999999988
40
1.1249995338847922
50
-24.99998047
51
65.00001953
0
ARC
8
BLACK
10
210.0407639999999958
20
-174.6414069999999867
40
0.8999998083694241
50
-25.00003279
51
65.00002491
0
ARC
8
BLACK
10
214.5995869999999854
20
-170.8272049999999922
40
2.0327372404806772
50
-191.38538742
51
-114.99997266
0
ARC
8
BLACK
10
211.6903140000000008
20
-170.2556319999999914
40
0.9322232590887227
50
-10.52548562
51
64.99997106
0
CIRCLE
8
BLACK
10
202.4921469999999886
20
-174.2660569999999893
40
1.
0
CIRCLE
8
BLACK
10
207.4768399999999815
20
-176.5904569999999865
40
1.5999989999999999
0
CIRCLE
8
BLACK
10
212.4615330000000029
20
-178.9148569999999836
40
1.0000009999999999
0
LINE
8
BLACK
6
CONTINUOUS
10
227.4968849999999918
20
-181.0409029999999859
11
225.9863339999999994
21
-182.8411079999999913
0
LINE
8
BLACK
6
CONTINUOUS
10
227.4968849999999918
20
-181.0409029999999859
11
229.1438809999999933
21
-182.4228959999999802
0
LINE
8
BLACK
6
CONTINUOUS
10
229.1438809999999933
20
-182.4228959999999802
11
229.9345099999999888
21
-181.4806619999999953
0
LINE
8
BLACK
6
CONTINUOUS
10
227.6333300000000008
20
-184.2231009999999856
11
225.9863339999999994
21
-182.8411079999999913
0
LINE
8
BLACK
6
CONTINUOUS
10
232.8193059999999832
20
-183.9023169999999823
11
229.9345099999999888
21
-181.4806619999999953
0
LINE
8
BLACK
6
CONTINUOUS
10
230.0701269999999852
20
-187.7364000000000033
11
227.7719939999999781
21
-185.8080369999999846
0
LINE
8
BLACK
6
CONTINUOUS
10
229.8403809999999794
20
-189.4103519999999889
11
230.1810579999999788
21
-189.0043489999999906
0
LINE
8
BLACK
6
CONTINUOUS
10
229.9353809999999783
20
-190.4962039999999774
11
229.8403809999999794
21
-189.4103519999999889
0
LINE
8
BLACK
6
CONTINUOUS
10
235.3843049999999835
20
-188.9963019999999858
11
233.5756739999999922
21
-187.4786809999999946
0
LINE
8
BLACK
6
CONTINUOUS
10
232.3943829999999764
20
-192.5595519999999965
11
229.9353809999999783
21
-190.4962039999999774
0
LINE
8
BLACK
6
CONTINUOUS
10
235.4793039999999849
20
-190.0821540000000027
11
235.3843049999999835
21
-188.9963019999999858
0
LINE
8
BLACK
6
CONTINUOUS
10
235.2189750000000004
20
-190.3924020000000041
11
235.4793039999999849
21
-190.0821540000000027
0
LINE
8
BLACK
6
CONTINUOUS
10
233.708424999999977
20
-192.1926069999999811
11
233.4802349999999933
21
-192.4645519999999976
0
LINE
8
BLACK
6
CONTINUOUS
10
233.4802349999999933
20
-192.4645519999999976
11
232.3943829999999764
21
-192.5595519999999965
0
LINE
8
BLACK
6
CONTINUOUS
10
236.8659710000000018
20
-191.7743949999999984
11
235.2189750000000004
21
-190.3924020000000041
0
LINE
8
BLACK
6
CONTINUOUS
10
236.8659710000000018
20
-191.7743949999999984
11
235.355419999999981
21
-193.5746000000000038
0
LINE
8
BLACK
6
CONTINUOUS
10
235.355419999999981
20
-193.5746000000000038
11
233.708424999999977
21
-192.1926069999999811
0
ARC
8
BLACK
10
226.91019399999999
20
-185.0849010000000021
40
1.1249999619982214
50
-39.99999758
51
50.00000242
0
ARC
8
BLACK
10
229.4916179999999883
20
-188.4258399999999938
40
0.9000000981561057
50
-40.00000733
51
49.99999267
0
ARC
8
BLACK
10
234.8822919999999783
20
-185.9215140000000019
40
2.0327369883516657
50
-206.38538621
51
-129.99999449
0
ARC
8
BLACK
10
232.2200839999999857
20
-184.616441999999978
40
0.9322239649939278
50
-25.52543167
51
50.00000114
0
CIRCLE
8
BLACK
10
222.2973629999999901
20
-186.1095530000000053
40
1.
0
CIRCLE
8
BLACK
10
226.5106069999999931
20
-189.6448849999999879
40
1.5999999999999999
0
CIRCLE
8
BLACK
10
230.7238509999999962
20
-193.180216999999999
40
1.
  0
ENDSEC
  0
EOF
