0
SECTION
2
HEADER
9
$INSUNITS
70
4
0
ENDSEC
0
SECTION
2
TABLES
0
TABLE
2
LTYPE
0
LTYPE
72
65
70
64
2
CONTINUOUS
3
______
73
0
40
0
0
ENDTAB
0
TABLE
2
LAYER
0
ENDTAB
0
ENDSEC
0
SECTION
2
ENTITIES
0
LINE
8
0
10
109
20
-158.9214207
11
109
21
-90.1043432
0
LINE
8
0
10
110.566139
20
-88.1519691
11
126.9649867
21
-84.5077807
0
LINE
8
0
10
127.0352672
20
-84.4934801
11
152.0944933
21
-79.8607655
0
LINE
8
0
10
152.1960243
20
-79.844682
11
170.2075268
21
-77.4642092
0
LINE
8
0
10
170.6438876
20
-77.4545779
11
192.122753
21
-79.3337351
0
LINE
8
0
10
192.5508122
20
-79.4189932
11
209.8964159
21
-84.8976308
0
LINE
8
0
10
209.9520017
20
-84.9160871
11
223.8454828
21
-89.7561488
0
LINE
8
0
10
225.1799157
20
-91.8191352
11
222.1779903
21
-126.1313007
0
LINE
8
0
10
223.9960683
20
-128.2980015
11
234.4999175
21
-129.2169692
0
LINE
8
0
10
235.1966943
20
-133.0096934
11
224.3024905
21
-138.2808303
0
LINE
8
0
10
223.1811893
20
-139.9068536
11
221.3001096
21
-161.4076932
0
LINE
8
0
10
221.7095785
20
-162.8044459
11
240.7021304
21
-187.3976101
0
LINE
8
0
10
240.6512987
20
-189.9056266
11
229.228514
21
-203.5187714
0
LINE
8
0
10
226.7580635
20
-203.9994004
11
174.4122721
21
-176.1887523
0
LINE
8
0
10
173.9385155
20
-176.0096693
11
110.535395
21
-160.8667079
0
ARC
8
0
10
111
20
-90.1043432
40
2
50
102.5288096
51
180
0
ARC
8
0
10
127.3988477
20
-86.4601548
40
2
50
100.4740517
51
102.5288096
0
ARC
8
0
10
152.4580737
20
-81.8274402
40
2
50
97.5288098
51
100.4740517
0
ARC
8
0
10
170.4695762
20
-79.4469674
40
2
50
85.0000024
51
97.5288098
0
ARC
8
0
10
191.9484416
20
-81.3261245
40
2
50
72.4711905
51
85.0000024
0
ARC
8
0
10
209.2940453
20
-86.8047621
40
2
50
70.7932316
51
72.4711905
0
ARC
8
0
10
223.1875263
20
-91.6448238
40
2
50
355.0000024
51
70.7932316
0
ARC
8
0
10
224.1703797
20
-126.3056121
40
2
50
175.0000024
51
265.0000024
0
ARC
8
0
10
234.3256061
20
-131.2093586
40
2
50
295.8199207
51
85.0000024
0
ARC
8
0
10
225.1735787
20
-140.081165
40
2
50
115.8199207
51
175.0000024
0
ARC
8
0
10
223.292499
20
-161.5820046
40
2
50
175.0000024
51
217.6778156
0
ARC
8
0
10
239.1192099
20
-188.6200514
40
2
50
319.9999988
51
37.6778156
0
ARC
8
0
10
227.6964251
20
-202.2331961
40
2
50
242.0188655
51
319.9999988
0
ARC
8
0
10
173.4739105
20
-177.9549565
40
2
50
62.0188655
51
76.5673326
0
ARC
8
0
10
111
20
-158.9214207
40
2
50
180
51
256.5673326
0
LINE
8
0
10
113.1
20
-156.9
11
126.9
21
-156.9
0
LINE
8
0
10
126.9
20
-156.9
11
126.9
21
-143.1
0
LINE
8
0
10
126.9
20
-143.1
11
113.1
21
-143.1
0
LINE
8
0
10
113.1
20
-143.1
11
113.1
21
-156.9
0
LINE
8
0
10
113.1
20
-139.9
11
126.9
21
-139.9
0
LINE
8
0
10
126.9
20
-139.9
11
126.9
21
-126.1
0
LINE
8
0
10
126.9
20
-126.1
11
113.1
21
-126.1
0
LINE
8
0
10
113.1
20
-126.1
11
113.1
21
-139.9
0
LINE
8
0
10
113.1
20
-122.9
11
126.9
21
-122.9
0
LINE
8
0
10
126.9
20
-122.9
11
126.9
21
-109.1
0
LINE
8
0
10
126.9
20
-109.1
11
113.1
21
-109.1
0
LINE
8
0
10
113.1
20
-109.1
11
113.1
21
-122.9
0
LINE
8
0
10
113.1
20
-105.9
11
126.9
21
-105.9
0
LINE
8
0
10
126.9
20
-105.9
11
126.9
21
-92.1
0
LINE
8
0
10
126.9
20
-92.1
11
113.1
21
-92.1
0
LINE
8
0
10
113.1
20
-92.1
11
113.1
21
-105.9
0
LINE
8
0
10
131.1
20
-152.9
11
144.9
21
-152.9
0
LINE
8
0
10
144.9
20
-152.9
11
144.9
21
-139.1
0
LINE
8
0
10
144.9
20
-139.1
11
131.1
21
-139.1
0
LINE
8
0
10
131.1
20
-139.1
11
131.1
21
-152.9
0
LINE
8
0
10
131.1
20
-135.9
11
144.9
21
-135.9
0
LINE
8
0
10
144.9
20
-135.9
11
144.9
21
-122.1
0
LINE
8
0
10
144.9
20
-122.1
11
131.1
21
-122.1
0
LINE
8
0
10
131.1
20
-122.1
11
131.1
21
-135.9
0
LINE
8
0
10
131.1
20
-118.9
11
144.9
21
-118.9
0
LINE
8
0
10
144.9
20
-118.9
11
144.9
21
-105.1
0
LINE
8
0
10
144.9
20
-105.1
11
131.1
21
-105.1
0
LINE
8
0
10
131.1
20
-105.1
11
131.1
21
-118.9
0
LINE
8
0
10
131.1
20
-101.9
11
144.9
21
-101.9
0
LINE
8
0
10
144.9
20
-101.9
11
144.9
21
-88.1
0
LINE
8
0
10
144.9
20
-88.1
11
131.1
21
-88.1
0
LINE
8
0
10
131.1
20
-88.1
11
131.1
21
-101.9
0
LINE
8
0
10
150.2679969
20
-148.3484748
11
164.0154837
21
-149.551224
0
LINE
8
0
10
164.0154837
20
-149.551224
11
165.2182329
21
-135.8037372
0
LINE
8
0
10
165.2182329
20
-135.8037372
11
151.4707461
21
-134.600988
0
LINE
8
0
10
151.4707461
20
-134.600988
11
150.2679969
21
-148.3484748
0
LINE
8
0
10
151.7496445
20
-131.4131649
11
165.4971313
21
-132.6159141
0
LINE
8
0
10
165.4971313
20
-132.6159141
11
166.6998805
21
-118.8684273
0
LINE
8
0
10
166.6998805
20
-118.8684273
11
152.9523937
21
-117.6656781
0
LINE
8
0
10
152.9523937
20
-117.6656781
11
151.7496445
21
-131.4131649
0
LINE
8
0
10
153.2312921
20
-114.477855
11
166.9787789
21
-115.6806042
0
LINE
8
0
10
166.9787789
20
-115.6806042
11
168.1815281
21
-101.9331174
0
LINE
8
0
10
168.1815281
20
-101.9331174
11
154.4340413
21
-100.7303682
0
LINE
8
0
10
154.4340413
20
-100.7303682
11
153.2312921
21
-114.477855
0
LINE
8
0
10
154.7129397
20
-97.5425451
11
168.4604265
21
-98.7452943
0
LINE
8
0
10
168.4604265
20
-98.7452943
11
169.6631757
21
-84.9978075
0
LINE
8
0
10
169.6631757
20
-84.9978075
11
155.9156889
21
-83.7950583
0
LINE
8
0
10
155.9156889
20
-83.7950583
11
154.7129397
21
-97.5425451
0
LINE
8
0
10
168.5481244
20
-145.9324994
11
182.2956112
21
-147.1352486
0
LINE
8
0
10
182.2956112
20
-147.1352486
11
183.4983604
21
-133.3877618
0
LINE
8
0
10
183.4983604
20
-133.3877618
11
169.7508736
21
-132.1850126
0
LINE
8
0
10
169.7508736
20
-132.1850126
11
168.5481244
21
-145.9324994
0
LINE
8
0
10
170.029772
20
-128.9971895
11
183.7772588
21
-130.1999387
0
LINE
8
0
10
183.7772588
20
-130.1999387
11
184.980008
21
-116.4524519
0
LINE
8
0
10
184.980008
20
-116.4524519
11
171.2325212
21
-115.2497027
0
LINE
8
0
10
171.2325212
20
-115.2497027
11
170.029772
21
-128.9971895
0
LINE
8
0
10
171.5114196
20
-112.0618796
11
185.2589064
21
-113.2646288
0
LINE
8
0
10
185.2589064
20
-113.2646288
11
186.4616556
21
-99.517142
0
LINE
8
0
10
186.4616556
20
-99.517142
11
172.7141688
21
-98.3143928
0
LINE
8
0
10
172.7141688
20
-98.3143928
11
171.5114196
21
-112.0618796
0
LINE
8
0
10
172.9930672
20
-95.1265697
11
186.740554
21
-96.3293189
0
LINE
8
0
10
186.740554
20
-96.3293189
11
187.9433032
21
-82.5818321
0
LINE
8
0
10
187.9433032
20
-82.5818321
11
174.1958164
21
-81.3790829
0
LINE
8
0
10
174.1958164
20
-81.3790829
11
172.9930672
21
-95.1265697
0
LINE
8
0
10
186.131006
20
-151.4860816
11
199.8784928
21
-152.6888308
0
LINE
8
0
10
199.8784928
20
-152.6888308
11
201.081242
21
-138.941344
0
LINE
8
0
10
201.081242
20
-138.941344
11
187.3337552
21
-137.7385948
0
LINE
8
0
10
187.3337552
20
-137.7385948
11
186.131006
21
-151.4860816
0
LINE
8
0
10
187.6126536
20
-134.5507717
11
201.3601404
21
-135.7535209
0
LINE
8
0
10
201.3601404
20
-135.7535209
11
202.5628896
21
-122.0060341
0
LINE
8
0
10
202.5628896
20
-122.0060341
11
188.8154028
21
-120.8032849
0
LINE
8
0
10
188.8154028
20
-120.8032849
11
187.6126536
21
-134.5507717
0
LINE
8
0
10
189.0943012
20
-117.6154618
11
202.841788
21
-118.818211
0
LINE
8
0
10
202.841788
20
-118.818211
11
204.0445372
21
-105.0707242
0
LINE
8
0
10
204.0445372
20
-105.0707242
11
190.2970504
21
-103.867975
0
LINE
8
0
10
190.2970504
20
-103.867975
11
189.0943012
21
-117.6154618
0
LINE
8
0
10
190.5759488
20
-100.6801519
11
204.3234356
21
-101.8829011
0
LINE
8
0
10
204.3234356
20
-101.8829011
11
205.5261848
21
-88.1354143
0
LINE
8
0
10
205.5261848
20
-88.1354143
11
191.778698
21
-86.9326651
0
LINE
8
0
10
191.778698
20
-86.9326651
11
190.5759488
21
-100.6801519
0
LINE
8
0
10
203.7138876
20
-157.0396637
11
217.4613744
21
-158.2424129
0
LINE
8
0
10
217.4613744
20
-158.2424129
11
218.6641236
21
-144.4949261
0
LINE
8
0
10
218.6641236
20
-144.4949261
11
204.9166368
21
-143.2921769
0
LINE
8
0
10
204.9166368
20
-143.2921769
11
203.7138876
21
-157.0396637
0
LINE
8
0
10
205.1955352
20
-140.1043538
11
218.943022
21
-141.307103
0
LINE
8
0
10
218.943022
20
-141.307103
11
220.1457712
21
-127.5596162
0
LINE
8
0
10
220.1457712
20
-127.5596162
11
206.3982844
21
-126.356867
0
LINE
8
0
10
206.3982844
20
-126.356867
11
205.1955352
21
-140.1043538
0
LINE
8
0
10
206.6771828
20
-123.1690439
11
220.4246696
21
-124.3717931
0
LINE
8
0
10
220.4246696
20
-124.3717931
11
221.6274188
21
-110.6243063
0
LINE
8
0
10
221.6274188
20
-110.6243063
11
207.879932
21
-109.4215571
0
LINE
8
0
10
207.879932
20
-109.4215571
11
206.6771828
21
-123.1690439
0
LINE
8
0
10
208.1588304
20
-106.233734
11
221.9063172
21
-107.4364832
0
LINE
8
0
10
221.9063172
20
-107.4364832
11
223.1090664
21
-93.6889964
0
LINE
8
0
10
223.1090664
20
-93.6889964
11
209.3615796
21
-92.4862472
0
LINE
8
0
10
209.3615796
20
-92.4862472
11
208.1588304
21
-106.233734
0
LINE
8
0
10
179.0788678
20
-173.6527993
11
192.4086442
21
-177.2245021
0
LINE
8
0
10
192.4086442
20
-177.2245021
11
195.980347
21
-163.8947257
0
LINE
8
0
10
195.980347
20
-163.8947257
11
182.6505706
21
-160.3230229
0
LINE
8
0
10
182.6505706
20
-160.3230229
11
179.0788678
21
-173.6527993
0
LINE
8
0
10
198.3072505
20
-179.9279144
11
210.8142979
21
-185.7600464
0
LINE
8
0
10
210.8142979
20
-185.7600464
11
216.6464299
21
-173.252999
0
LINE
8
0
10
216.6464299
20
-173.252999
11
204.1393825
21
-167.420867
0
LINE
8
0
10
204.1393825
20
-167.420867
11
198.3072505
21
-179.9279144
0
LINE
8
0
10
216.7896659
20
-190.4953567
11
227.3610793
21
-199.3658257
0
LINE
8
0
10
227.3610793
20
-199.3658257
11
236.2315483
21
-188.7944123
0
LINE
8
0
10
236.2315483
20
-188.7944123
11
225.6601349
21
-179.9239433
0
LINE
8
0
10
225.6601349
20
-179.9239433
11
216.7896659
21
-190.4953567
0
ENDSEC
0
EOF